<?xml version="1.0" standalone="no"?>
<!DOCTYPE svg PUBLIC "-//W3C//DTD SVG 20010904//EN"
 "http://www.w3.org/TR/2001/REC-SVG-20010904/DTD/svg10.dtd">
<svg version="1.0" xmlns="http://www.w3.org/2000/svg"
 width="144.000000pt" height="144.000000pt" viewBox="0 0 144.000000 144.000000"
 preserveAspectRatio="xMidYMid meet">
<metadata>
Created by potrace 1.11, written by Peter Selinger 2001-2013
</metadata>
<g transform="translate(0.000000,144.000000) scale(0.100000,-0.100000)"
fill="#000000" stroke="none">
<path d="M714 1418 c-7 -13 -30 -59 -52 -103 -36 -72 -96 -228 -108 -280 -32
-137 -37 -183 -37 -320 0 -134 3 -160 27 -240 34 -111 77 -194 136 -258 l46
-50 47 53 c56 62 118 185 143 285 24 95 24 318 0 435 -27 129 -70 253 -133
383 -53 108 -59 116 -69 95z"/>
<path d="M1305 560 c-137 -35 -246 -98 -330 -192 -88 -98 -122 -170 -131 -277
-4 -54 -2 -70 10 -74 27 -10 141 1 186 19 206 80 372 310 353 486 -3 24 -8 46
-11 49 -4 4 -38 -2 -77 -11z"/>
<path d="M46 509 c13 -129 68 -240 172 -345 102 -104 209 -156 315 -156 66 1
75 11 71 77 -7 112 -68 229 -167 322 -98 93 -196 139 -318 149 l-79 7 6 -54z"/>
</g>
</svg>
