<?xml version="1.0" encoding="utf-8"?>
<!-- Generator: Adobe Illustrator 23.0.0, SVG Export Plug-In . SVG Version: 6.00 Build 0)  -->
<svg version="1.1" id="Layer_1" xmlns="http://www.w3.org/2000/svg" xmlns:xlink="http://www.w3.org/1999/xlink" x="0px" y="0px"
	 viewBox="0 0 716 408" style="enable-background:new 0 0 716 408;" xml:space="preserve">
<style type="text/css">
	.st0{fill:#FFFFFF;}
</style>
<path class="st0" d="M142.8,289.2c2.5-2.7,5.2-5.3,7.4-8.3c13.5-18.7,25.2-38.6,34.9-59.5c0.1-0.3,0.1-0.7,0.3-0.9
	c2.4-2.9,3.5-8.4,8.3-7.3c5.1,1.2,2.2,6.2,2.5,9.4c0.7,8.6,0.6,17.3,1.2,25.9c0.2,2.7,1.3,5.4,3.3,8.5c2.8-5.6,5.9-11.1,8.5-16.9
	c8.1-18,16-36.1,24-54.1c1-2.2,2.5-4.4,4.2-6.1c1-1,3-1.9,4.3-1.6c0.9,0.2,1.9,2.7,1.7,4c-1,6.9-2.4,13.7-3.7,20.5
	c-2.4,12.2-4.9,24.3-6.5,36.9c0.7-1.1,1.7-2.1,2.2-3.2c6.4-15.9,14-31.3,25.3-44.3c3.6-4.1,8.3-7.5,13-10.3
	c5.5-3.2,11.7,0.6,10.5,6.8c-1.3,7.8-4.1,15.2-8.1,22c-7.2,12.2-17.6,22.2-30.1,28.8c-5.7,2.7-7.9,6.9-9.6,12.2
	c-4.1,12.7-8.5,25.4-12.3,38.2c-2.1,7.3-3.1,14.9-4.7,22.4c-0.4,1.8-0.5,3.8-1.5,5.2c-1.1,1.3-2.7,2.1-4.4,2.2
	c-0.8,0-2.4-2.4-2.3-3.6c0.9-6.4,2.3-12.7,3.5-19l6.6-33.6c2.1-10.7,4-21.5,6.2-32.2c2-10,4.1-20.1,5.1-30.5c-2,4.1-4.2,8.1-6,12.3
	l-17.4,41.4l-0.6,1.4c-2.3,3.5-4,8.4-9.3,7.5c-5.1-0.8-6.3-5.4-6.8-9.7c-1.1-9.5-1.8-19.1-2.7-29.3c-3.2,6.3-6.1,12.6-9.4,18.7
	c-8.7,15.7-17.2,31.5-28.9,45.3c-3,3.5-6,8.2-11.3,6.4c-5.4-1.8-4.5-7.5-4.2-11.7c1-17.1,2.8-34.1,3.9-51.2
	c0.5-7.5,0.1-15.1-0.7-23.1c-4.2,8.6-8.6,17.2-12.7,25.9c-9.8,21.2-19.3,42.5-29,63.8c-1.7,3.8-3.2,7.6-5.3,11.2
	c-0.7,1.2-2.9,1.4-4.4,2.1c-0.7-1.7-2.2-3.6-1.9-5.1c5.3-22,10.9-44,16.3-66c4.1-16.9,7.9-33.8,11.9-51.1
	c-24.3-9.6-43.7-24.7-52-50.9c-1.1-3.6-0.7-7.6-0.2-11.7c7.1,29.4,26.9,46,53.6,56.2c7.9-28.1,12.4-56.5,25-82.4l1.4,0.4l-21.1,82
	c7.5,1,13.7-0.5,19.5-3.1c27-12.6,44.9-33.9,57.1-60.5c8.6-17.4,11.7-37,8.8-56.2c-3.8-23.4-13-43.6-37-53.4
	C157.7,5.7,145,6.4,134,11.9c-24.8,10.5-42,29.4-56.8,51.2C58.9,91.2,45.1,122,36.4,154.4C30.6,174.4,25,194.6,21,215
	c-6.6,31.3-9,63.4-7.1,95.3c1,13.8,2.5,27.5,6.5,40.7c4.6,15.1,10.2,29.8,24,39.4c7.8,5.6,17.6,7.7,27,5.8
	c24.8-4.6,42.9-19.5,57.7-38.8c8.6-11.2,17-22.7,23.9-34.9c7.4-13,12.9-27,19.3-40.5l3.1-6.3l2,0.4c-0.2,3.7,0.3,7.8-0.8,11.2
	c-3.4,10-6.7,20-11.3,29.4c-10.6,21.8-24.4,41.9-40.8,59.8c-11.7,13.6-27.2,23.6-44.4,28.7c-25.3,6.7-44.9,1.1-60-22.7
	C9.4,365.1,3.3,345.2,2.3,324.8c-1.1-14.8-2.5-29.6-1.7-44.4c1-19,3.6-38,6.4-56.9c8-49.5,23.9-97.5,47-142
	c10.7-21.6,25.6-40.9,43.8-56.7c10.4-9.5,22.6-16.8,35.8-21.6c18.1-6,35.7-5.3,51.4,6.7c19.5,14.9,28,35.4,29.3,59.5
	c2,33.9-11,62.2-32.4,87.4c-10.5,13.4-24.4,23.8-40.3,30.1c-5.4,1.9-11.3,2.3-17,3.3c-1.6,0.3-3.2,0-4.8,0l-17.1,79.9l0.5,0.2
	c3.7-8.1,7.2-16.3,11.1-24.3l19.7-39.8c0.7-1.5,1.6-3,2.7-4.1c3.4-3.6,8.2-2.5,8.7,2.3c0.7,6.6,0.7,13.3,0.3,19.9
	c-1.3,19.6-3,39.1-4.5,58.7v5.4L142.8,289.2L142.8,289.2z M243.4,234c12-4.3,35.3-33.6,33.5-46.6C260,199.1,251.8,216.2,243.4,234z
	 M384.4,110.4c-3.8,13.7-7.9,27.3-11.4,41.1c-3.5,13.6-6.3,27.4-9.4,41.1l1.9,0.7c8.1-9.7,16.7-18.9,24.2-29.1
	c12.9-17.4,25.6-35.1,37.4-53.2c10.5-16.2,20-33.2,23.7-52.5c4.1-21.6-3.3-38.2-29.6-40.6c-22-2.3-44,3.1-62.5,15.2
	c-15,10.2-27.6,23.6-36.7,39.3c-7.8,12.6-13.8,26.2-17.8,40.5c-1.1,4-1.7,8.1-2.7,12.1c-0.2,0.8-0.8,1.5-1.1,2.3l-1.7-0.1
	c0-3.1-0.5-6.3,0.1-9.3c2.7-14.9,7.9-28.9,14.8-42.2c8.6-17,20.8-31.9,35.9-43.5c23.4-18.3,53.7-25.3,82.8-19.2
	c14.5,3.6,25.2,16,26.4,30.9c0.5,15-2.9,29.8-9.8,43.1c-15.2,31.2-34.1,60.5-56.2,87.2c-6.1,7.7-12.4,15.1-19.3,23.4
	c8.3-4.4,15.6-8.7,23.3-12.3c16.2-8.4,33.8-13.7,51.9-15.6c17.6-1.2,30.3,3.6,38,18.6c4.6,9,6.1,19,5.3,29
	c-1.6,19.5-6.6,38.5-14.8,56.2c-14.8,32.7-36.6,61.8-63.7,85.3c-15,14.1-33.2,24.3-53,29.7c-16.8,4.4-34.7,1.1-48.9-8.9
	c-17.2-11.3-29.2-28.9-33.4-49.1c-2-12.2-2.4-24.5-1.2-36.8c1-11.9,2.9-23.7,5.7-35.3c1.6-7.2,3.7-14.7,11.9-18.7
	c-1,3-2.4,6-3.1,9.1c-2.8,14.1-5.5,28.2-7.9,42.4c-2.7,16.2-0.7,32.8,5.9,47.8c9.1,21.1,23.8,36.5,47.4,40.6
	c11.8,1.6,23.8-0.4,34.4-5.8c18-8.7,34.3-20.4,48.2-34.7c14.8-14.3,27.7-30.5,38.3-48.1c9-14.9,16.6-30.7,21-47.8
	c2.8-11,5.4-22,4.5-33.4c-0.8-10.7-2.5-21.7-13.1-27.4c-5.4-2.7-11.4-4.2-17.5-4.3c-13.5,0-26.7,3.1-38.8,9.1
	c-15.6,7.3-30.7,15.9-46,23.9c-0.3,0.2-0.5,0.5-0.8,0.6c-8,1.7-8.5,8.3-9.7,14.6l-6.3,35.2l-6.7,40.7c-0.8,4.7-1.6,9.5-2.8,14.1
	c-0.4,1.4-2.3,2.4-3.5,3.5c-0.9-1.5-2.6-3.1-2.5-4.5c0.5-7.5,1.2-14.9,2.3-22.3c2.4-16.6,5-33.1,7.6-49.7c1.3-7.8,2.7-15.7,4.4-23.4
	c4.8-22.1,9.1-44.2,14.8-66.1c3.6-13.6,9.2-26.7,14.2-40c0.7-1.8,2.7-3,4.2-4.5L384.4,110.4L384.4,110.4z M667.7,260
	c-1.1,6.8-6.8,10.5-13.9,7.8c-22.6-8.6-43.5-20-56.6-41.5c-3.5-5.7-6.4-11.8-10.1-18.9c-1.1,2.2-2.3,3.8-2.7,5.6l-6.1,32.7
	c-0.3,1.3-1.9,2.4-2.8,3.6c-0.9-1.3-2.7-2.6-2.7-3.9c-0.1-4.5,0.1-9,0.7-13.4c2-15,4.1-29.9,6.3-44.9c1.7-11.6,3.6-23.2,4.7-35.1
	c-1.4,4-2.6,8-4.1,11.9c-7.3,18.8-14.5,37.7-22.2,56.4c-2.9,7-7,9.1-11.7,6.9c-2.2-1.1-4.7-4-4.9-6.3c-0.6-7.3-0.2-14.6-0.2-22
	c0-1.6,0-3.2-0.9-5c-2.7,5.9-5.2,11.9-8.3,17.6c-4.8,9-9.7,17.9-14.9,26.6c-2,3.3-5.1,6.2-9.4,4.9c-4.1-1.2-6.1-5-5.7-9
	c0.9-9.2,1.3-18.7,4.1-27.3c4.2-12.8,10.2-25,15.9-37.2c2.8-6,7-11.2,13.7-13.4c4.4-1.4,6.4,0.3,6.2,5.4c-5.4-1.6-8.3,1.8-10.5,5.8
	c-9.7,17.3-16.7,35.9-21,55.3c-0.5,2.4-0.3,5-0.4,7.5c0,0.8,0.1,1.6,1.4,2.8c3.3-5.5,6.8-10.9,9.7-16.7c7.7-15.5,15-31.2,22.7-46.7
	c0.8-1.6,3.1-2.3,4.7-3.5c0.9,1.7,2.7,3.4,2.7,5c-0.6,9.8-1.8,19.5-2.4,29.3c-0.4,6.4-0.1,12.8-0.1,19.2l1.5,0.5
	c2.7-5.5,5.8-10.9,7.9-16.6c8.6-23.5,16.7-47.2,25.2-70.8c5.4-14.9,11-29.7,16.9-44.4c1.1-2.6,1.6-7.7,6.3-6s1.2,5.5,0.6,8.2
	c-3.7,16.5-7.9,32.8-11.3,49.3c-2.2,11.3-3.8,22.7-4.7,34.2c2.9-5.3,5.5-10.8,8.7-15.9c6.6-10.3,11.6-21.9,22.6-28.7l0.4-0.3
	l9.8-1.6c-0.2,3.2,0.5,6.7-0.7,9.5c-9.5,22.4-21.9,43.6-36.7,62.9c-1.1,1.7-1.3,3.8-0.8,5.7c6.1,16.3,17,30.4,31.2,40.4
	c8.2,5.6,17.3,10.1,26,15.1c4.9,2.8,9.6,3.1,14.1-0.7c0.4-0.3,0.9-0.4,1.4-0.5L667.7,260L667.7,260z M587.2,194.2
	c4.1,3.3,5.2-0.5,6.3-2.2c7.3-11.1,14.7-22.2,21.6-33.5c4.9-8.2,9.1-16.9,13.6-25.4l-1-0.9c-1.7,1-3.7,1.8-5.1,3.2
	C605.7,151.8,597.2,173.3,587.2,194.2L587.2,194.2z"/>
<path class="st0" d="M683.3,129.2c6.8-3.3,13.7-6.6,20.5-10.1c2.5-1.3,4.6-3.2,7.1-4.4c1.3-0.6,3.1-0.4,4.7-0.5c0,1.7,0.6,3.8-0.2,5
	c-7.2,11.2-12.8,23.4-16.6,36.2c-6.8,19.1-10.1,39.2-9.6,59.5c0.3,7.2-1,14.6,2.8,21.5c0.5,0.8-1.3,2.9-2.1,4.4
	c-1.2-1.1-3-2-3.5-3.3c-4-11.3-5.6-23.3-4.9-35.3c1.4-23.9,7.6-46.6,17.7-68.3l2.1-4.4l0.4-1.5l-22.2,8.4
	c-2.8,8.1-5.8,17.9-9.4,27.4c-6.1,16.4-12.5,32.7-24,46.2c-4.5,5.3-10.4,9.2-17,11.4c-5,1.7-10.4-3.2-11.8-9.9
	c-2-10-0.5-20.4,4.1-29.5c6.1-14.1,14.2-27.2,24.1-38.9c0.7-0.7,1.2-1.7,2.1-2.1l6.8-3.1c0.4,2.4,1.3,4.9,1,7.2
	c-2.2,18-10.9,34.5-24.4,46.5c-1.7,1.5-3.8,2.6-5.5,4.1c-1,0.9-2.2,2.1-2.4,3.3c-0.4,2.1-0.4,4.3,0.1,6.4c0.7,3.1,1.9,6.1,2.9,9.2
	c3.4-1.4,7.1-2.3,10.1-4.3c7.8-5.2,12.1-13.3,16.3-21.2c10-18.9,16.7-39.1,23.1-59.4c3.6-11.5,7.6-22.9,11.6-34.2
	c0.4-1.2,2.1-1.9,3.3-2.8c0.7,1.3,2.2,2.7,2,3.7c-1,4.2-2.6,8.4-3.9,12.5l-5.9,18.7C682.8,128.4,683,128.8,683.3,129.2L683.3,129.2z
	 M652.8,143.5c-8,4.2-28.6,40.7-27.8,48.7C639.8,179.1,649,163.2,652.8,143.5z M211.6,153.2c-4,6.7-7.8,13.3-11.8,19.8
	c-0.4,0.6-2.5,0.9-2.9,0.5c-0.8-0.8-1.6-2.5-1.3-3.4c2.7-6.5,5.7-13,8.8-19.3c0.5-0.9,2.6-1.7,3.7-1.4
	C209.2,149.6,210,151.2,211.6,153.2L211.6,153.2z"/>
</svg>
