<?xml version="1.0" encoding="utf-8"?>
<!-- Generator: Adobe Illustrator 21.1.0, SVG Export Plug-In . SVG Version: 6.00 Build 0)  -->
<svg version="1.1" id="Layer_1" xmlns="http://www.w3.org/2000/svg" xmlns:xlink="http://www.w3.org/1999/xlink" x="0px" y="0px"
	 viewBox="0 0 263.3 119.2" style="enable-background:new 0 0 263.3 119.2;" xml:space="preserve">
<style type="text/css">
	.st0{fill:#FFFFFF;}
</style>
<title>flourish-logo</title>
<g>
	<path class="st0" d="M131.6,105.6l3.4-3.6c18.8-20,19-58.7,0.7-94.1L131.6,0l-4.1,7.9c-18.3,35.1-18,73.8,0.8,94.1L131.6,105.6z"/>
	<path class="st0" d="M141.6,118.4l4.3,0.3c0.6,0,1.1,0.1,1.7,0.1c8.8,0,18.8-4.8,27-13c8.8-8.8,13.6-19.6,13-28.8l-0.4-5.2l-5.1,1
		c-22,4.1-40.5,23-40.4,41.3L141.6,118.4z"/>
	<path class="st0" d="M74.7,73.2l0.3,5.1c1,13.4,10.5,25.5,19.1,32.4c7,5.6,14.2,8.6,20.5,8.6c1,0,1.9-0.1,2.9-0.2l3.9-0.6v-3.9
		c0.2-19.7-21.3-40.8-41.7-41.2L74.7,73.2z"/>
	
		<rect x="157" y="15.8" transform="matrix(0.2028 -0.9792 0.9792 0.2028 117.8731 185.7228)" class="st0" width="31.9" height="9.3"/>
	
		<rect x="197.7" y="27.5" transform="matrix(0.3849 -0.9229 0.9229 0.3849 101.8068 216.9415)" class="st0" width="31.9" height="9.3"/>
	
		<rect x="234.4" y="47.1" transform="matrix(0.5691 -0.8222 0.8222 0.5691 65.3319 228.1853)" class="st0" width="31.9" height="9.3"/>
	<path class="st0" d="M229.1,82.7l3.9,2.6l5.1-7.7l-3.9-2.6c-20.3-13.5-43-22.9-66.9-27.6l-4.6-0.9l-1.8,9.1l4.6,0.9
		C188.3,60.9,209.9,69.9,229.1,82.7z"/>
	<rect x="85.7" y="4.5" transform="matrix(0.9792 -0.2028 0.2028 0.9792 -2.2727 18.7366)" class="st0" width="9.3" height="31.9"/>
	<rect x="45" y="16.1" transform="matrix(0.9229 -0.3849 0.3849 0.9229 -8.5211 21.5751)" class="st0" width="9.3" height="31.9"/>
	<rect x="8.3" y="35.8" transform="matrix(0.8223 -0.569 0.569 0.8223 -27.1513 16.531)" class="st0" width="9.3" height="31.9"/>
	<path class="st0" d="M30.3,85.3l3.9-2.6C53.4,69.9,75,60.9,97.7,56.5l4.6-0.9l-1.8-9.1l-4.6,0.9C72,52.1,49.3,61.5,29,75l-3.9,2.6
		L30.3,85.3z"/>
</g>
</svg>
