<svg xmlns="http://www.w3.org/2000/svg" width="63.55" height="56.37" viewBox="0 0 63.55 56.37">
  <defs>
    <style>
      .a {
        fill: none;
      }

      .b {
        fill: #231f20;
      }
    </style>
  </defs>
  <title>icon-chip-baker</title>
  <g>
    <path class="a" d="M1031.77,1890.19c0-.18-.16-.06-.13.1S1031.7,1890.17,1031.77,1890.19Z" transform="translate(-1018.51 -1886.62)"/>
    <path class="a" d="M1033.23,1922.44l.12.32.17,0-.06-.33Z" transform="translate(-1018.51 -1886.62)"/>
    <polygon class="a" points="33.76 6.21 33.49 7.93 34.61 7.73 33.76 6.21"/>
    <path class="a" d="M1032.72,1918.3v0h0a.16.16,0,0,0,0,.07h-.08v-.06h-.07l0,0-.19,0,.35,1.94.37-.06-.35-1.93Z" transform="translate(-1018.51 -1886.62)"/>
    <path class="a" d="M1033.13,1920.59a.27.27,0,0,0-.08.31l-.24,0a11,11,0,0,0,.29,1.15l.28,0Z" transform="translate(-1018.51 -1886.62)"/>
    <path class="a" d="M1038.71,1896.15l.07.12a.54.54,0,0,0,.31-.65.58.58,0,0,0-.77-.38l-.92.25.25.93Z" transform="translate(-1018.51 -1886.62)"/>
    <path class="a" d="M1047.12,1894c-.05-.3-.29-.42-.69-.34l-.94.17.17.91.93-.17C1047,1894.44,1047.18,1894.25,1047.12,1894Z" transform="translate(-1018.51 -1886.62)"/>
    <polygon class="a" points="17.77 10.52 15.91 10.99 16.7 12.33 18.22 12.18 17.77 10.52"/>
    <path class="a" d="M1031.63,1913.54a11,11,0,0,0,.18,1.83l.14,0a3.07,3.07,0,0,0,.14.39l.15,0-.4-2.19Z" transform="translate(-1018.51 -1886.62)"/>
    <polygon class="a" points="14.47 46.51 15.11 44.89 13.61 45.77 14.47 46.51"/>
    <path class="a" d="M1047.63,1896.06q-.08-.47-.73-.35l-1,.19.17.94,1-.18C1047.5,1896.57,1047.69,1896.37,1047.63,1896.06Z" transform="translate(-1018.51 -1886.62)"/>
    <path class="a" d="M1067.78,1921.12a11.1,11.1,0,0,0,.79-2.06l-2.06.33.33,1.83Z" transform="translate(-1018.51 -1886.62)"/>
    <path class="a" d="M1065.09,1911.55l3.14-.31-.43-2.39c0-.15-.06-.31-.09-.46l-3.05.77Z" transform="translate(-1018.51 -1886.62)"/>
    <path class="a" d="M1068.75,1918.32a10.9,10.9,0,0,0,.21-2.24l-2.94.59.37,2Z" transform="translate(-1018.51 -1886.62)"/>
    <path class="a" d="M1057.92,1908.77l.06-.27-.06.27Z" transform="translate(-1018.51 -1886.62)"/>
    <path class="a" d="M1039.16,1910.75s.05-.08.07-.12-.05.08-.07.12l-.1.65h0Z" transform="translate(-1018.51 -1886.62)"/>
    <path class="a" d="M1064.54,1908.53l3-.76a10.94,10.94,0,0,0-.45-1.27l-2.83.51Z" transform="translate(-1018.51 -1886.62)"/>
    <path class="a" d="M1063.72,1903.28a1,1,0,0,1,0,.21l.14-.22,1-.09a11.36,11.36,0,0,0-1.58-1.36l.27,1.47Z" transform="translate(-1018.51 -1886.62)"/>
    <path class="a" d="M1067,1906.28l-.08-.17a.19.19,0,0,1-.08.07A.15.15,0,0,0,1067,1906.28Z" transform="translate(-1018.51 -1886.62)"/>
    <path class="a" d="M1032.3,1916.33c-.17-.05-.23-.19-.29-.36l-.1,0,.31,1.72.37-.07-.24-1.33Z" transform="translate(-1018.51 -1886.62)"/>
    <path class="a" d="M1031.67,1912.52c0,.12,0,.25,0,.37l.09,0Z" transform="translate(-1018.51 -1886.62)"/>
    <path class="a" d="M1053,1924.57l0-.21,0,.21Z" transform="translate(-1018.51 -1886.62)"/>
    <path class="a" d="M1035.2,1928.58l0,.14.08,0,0-.14Z" transform="translate(-1018.51 -1886.62)"/>
    <path class="a" d="M1033.59,1923.35l.06.13,0-.14Z" transform="translate(-1018.51 -1886.62)"/>
    <path class="a" d="M1068.54,1912.92l-.19-1.06-3.14.31.19,1.07Z" transform="translate(-1018.51 -1886.62)"/>
    <path class="a" d="M1052.07,1928.54c-.06-.15-.12-.3.05-.44l-.13-.22.13.22C1052,1928.24,1052,1928.38,1052.07,1928.54Z" transform="translate(-1018.51 -1886.62)"/>
    <path class="a" d="M1066.82,1905.91a10.94,10.94,0,0,0-1.4-2.13l-1.72.15.45,2.47Z" transform="translate(-1018.51 -1886.62)"/>
    <path class="a" d="M1067.05,1922.37q.19-.29.37-.58l-.46,0Z" transform="translate(-1018.51 -1886.62)"/>
    <path class="a" d="M1068.93,1915.43a11.05,11.05,0,0,0-.15-1.2l-.12-.69-3.14.32.39,2.17Z" transform="translate(-1018.51 -1886.62)"/>
    <path class="a" d="M1056.29,1932.45a1.44,1.44,0,1,0,1.6,1.17A1.34,1.34,0,0,0,1056.29,1932.45Z" transform="translate(-1018.51 -1886.62)"/>
    <path class="a" d="M1038.06,1934.49l-.17.6.91.27a.57.57,0,0,0,.78-.36.53.53,0,0,0-.22-.61Z" transform="translate(-1018.51 -1886.62)"/>
    <path class="a" d="M1073.16,1924.18a1.26,1.26,0,0,0-1.87.52l-.44.79,2.44,1.34.44-.79A1.27,1.27,0,0,0,1073.16,1924.18Z" transform="translate(-1018.51 -1886.62)"/>
    <polygon class="a" points="19.69 47.38 19.66 47.5 20.01 47.47 19.69 47.38"/>
    <path class="a" d="M1044.58,1934.58l-.94.12.09.67,1.56-.37A.58.58,0,0,0,1044.58,1934.58Z" transform="translate(-1018.51 -1886.62)"/>
    <path class="a" d="M1071.44,1900.15c.26-.21.21-.53,0-.81l-.6-.74-.77.62.6.74C1070.88,1900.24,1071.18,1900.36,1071.44,1900.15Z" transform="translate(-1018.51 -1886.62)"/>
    <path class="a" d="M1044.94,1935.17c-.06,0-.14-.11-.17,0C1044.66,1935.49,1045.18,1935.46,1044.94,1935.17Z" transform="translate(-1018.51 -1886.62)"/>
    <path class="a" d="M1050.25,1933.55l-.94.17.18,1,.94-.17c.36-.07.61-.27.55-.6S1050.62,1933.49,1050.25,1933.55Z" transform="translate(-1018.51 -1886.62)"/>
    <path class="a" d="M1041.08,1938.2c-.13.35.37.2.16-.07C1041.17,1938,1041.13,1938.16,1041.08,1938.2Z" transform="translate(-1018.51 -1886.62)"/>
    <path class="a" d="M1043.78,1935.82l.94-.12a.64.64,0,0,0,.52-.32l-1.48.35Z" transform="translate(-1018.51 -1886.62)"/>
    <path class="a" d="M1053,1889.21l-14.17,2.57a21.92,21.92,0,0,0-5,1.55h0l.09.13.08-.15,1.42-.12a.56.56,0,0,1,0,.12l.08-.12,1.7-.15c-.08.19,0,.3,0,.36l-1.92.17c-.17-.28-.43-.46-.56-.07a.5.5,0,0,1,.13.1l-.24,0,0-.07a.16.16,0,0,0,0,.08h0s-.05,0-.11,0l-.52,0a.12.12,0,0,1,0-.16c-.06-.06-.11,0-.12.17l-.31,0-.06-.08a.2.2,0,0,0-.05.09h-.08a.45.45,0,0,0,0-.16,22.08,22.08,0,0,0-12.13,23.73l1,5.39a21.8,21.8,0,0,0,9.12,14.11,22.27,22.27,0,0,0,4.84,2.54c0-.11,0-.21,0-.29l1.21-.29a1.36,1.36,0,0,0,0,.33l0,0-1.11.26a21.69,21.69,0,0,0,4.72,1.16h0l2-.37.28.23c0,.05,0,.09-.08.1l-1,.18a21.91,21.91,0,0,0,5.44-.3l14.17-2.57a22,22,0,0,0,17.69-25.53l-1-5.39a22,22,0,0,0-25.53-17.69Zm15.79,5.52-.68,1.16-2.44-1.44-.37.63,2.27,1.34-.68,1.16-2.27-1.34-.4.69,2.44,1.44-.68,1.16-3.74-2.2,2.82-4.79Zm-29.1,36.27-2.91.5-.5-.28,2.74-.47a13.06,13.06,0,0,1-1.65-.8l-1.48.3c-.06,0-.13-.06-.15-.15s0-.19.08-.2l1.09-.22-.49-.32q-.37-.26-.72-.54l-2.08.52-.51-.24,1.26-.32v0l.16,0v0l.19,0s.06.15.11.15a.38.38,0,0,0,0-.18l.56-.14a12.81,12.81,0,0,1-3.17-4l-1.47.39a.09.09,0,0,1-.08,0,.22.22,0,0,1-.07-.12c0-.1,0-.19.07-.2l1.39-.36a12.69,12.69,0,0,1-.55-1.42l-.34.06H1031a.21.21,0,0,1-.08-.14c0-.1,0-.19.08-.2l.3-.05a12.87,12.87,0,0,1-.31-1.3l-.46-2.52-1.54.16c-.06,0-.13-.07-.14-.17a.26.26,0,0,1,0-.09c0-.06,0-.09.09-.1l1.53-.16-.46-2.52a12.79,12.79,0,0,1,2.11-9.62,13.17,13.17,0,0,1,1.86-2.15.47.47,0,0,0-.52-.06c0-.08,0-.15.09-.15l.75-.08a12.75,12.75,0,0,1,1.75-1.28.3.3,0,0,1,0-.1c0-.11,0-.2.08-.21l.75-.12a12.75,12.75,0,0,1,3.56-1.21l14.17-2.57a13,13,0,0,1,15,10.38l1,5.39a13,13,0,0,1-10.38,15l-14.17,2.57a12.79,12.79,0,0,1-2.84.2l-2.94.46c-.06,0-.12-.05-.14-.14l.13-.22,1.54-.24A12.72,12.72,0,0,1,1039.65,1931Zm-10.33-9.18a2.51,2.51,0,0,1-1.51,1.1h-.1l-.27,0,0-.26a3,3,0,0,1,2-3l.3-.12.08.31A2.44,2.44,0,0,1,1029.32,1921.82Zm6-19.27-1.26.3a2.24,2.24,0,0,0,0-.38l1.21-.29a1.36,1.36,0,0,0,0,.33Zm5.66-2.94.29,0C1041.21,1899.73,1041.09,1899.68,1041,1899.61Zm16.45-8.92,1.49.24-.33,2.06.43.07,1.71-1.84,1.81.29-2.41,2.36,1.71,3.15-1.83-.29-1.21-2.35-.42-.07-.34,2.1-1.49-.24Zm-6.28.81,1.75-.32,3.06,5.09-1.57.29-.55-1-2,.37-.17,1.11-1.55.28Zm-7.36,1.34,2.45-.44c1.47-.27,2.23.22,2.4,1.18a1.28,1.28,0,0,0,.53,2.31c.18,1-.36,1.69-1.8,1.95l-2.59.47Zm-.34,6.66c.23.2.37.06.48-.17l.31,0,.5.31-2.71.27,0-.07s0,.05,0,.08l-.54.05a2.74,2.74,0,0,1,0-.36l2-.2s0,0,0,.07Zm-3.57-6.69c.06,0,.13.07.14.17a.22.22,0,0,1,0,.14.09.09,0,0,1-.07,0l-2.53.22c0-.06.05-.18-.06-.35Zm-6.71.85.07.09h-.09Zm-1.22,1.19-.16-.2C1031.87,1894.71,1032,1894.63,1031.94,1894.84Zm-4.52,5.8,1.52,1.38,1.38-1.52-1.52-1.38,1-1.12,3.28,3,1.42-.29-.74-1.24-.21,0a1,1,0,0,0,0-.33l-.69-1.15-.07,0,0-.06-.85-1.42,1.29-.77.91,1.53,2-.5-.41-1.5-4.71.86a1.48,1.48,0,0,1,0-.36l.31-.06a.4.4,0,0,0,0,.09c.1-.06.12.07.23,0h0v-.05s0,0,0-.09l.13,0a.15.15,0,0,0,.09,0v0l.22,0a.39.39,0,0,0,0,.2.27.27,0,0,0,0-.21l3.59-.65-.1-.36,2.39-.65a1.88,1.88,0,0,1,2.58,1.29,1.86,1.86,0,0,1-1.57,2.38l-1,.26.21.77,2.91-.3c.06,0,.13.07.14.17s0,.18-.09.19l-.54.06c0-.16-.21-.11-.17,0l-2.16.22.15.56-1.46.39-.22-.8-1.4.14.66,1.1.93-.19h0c0-.1,0-.18.09-.19l3.65-.36,0,.1c.08-.19.29.08.46.21l-1.44.14-.07,0v0l-1.49.15a.11.11,0,0,1-.07.08l-2.5.51-.78.46-.16-.27-1.28.26.5.45-1,1.12-1.32-1.2-.55.11L1030,1903l1.57,1.42-1,1.12-4.11-3.74Zm4.79-1.51v0c0-.1,0-.18.1-.17h.34a.38.38,0,0,0-.07.35h-.24C1032.28,1899.28,1032.23,1899.22,1032.21,1899.13Zm-8.27,7.43a2.82,2.82,0,0,1,2.17-1.92l.25,1.51A1.4,1.4,0,1,0,1028,1908a1.43,1.43,0,0,0-.24-1.41l1.23-.88a2.87,2.87,0,0,1,.38,2.76,2.88,2.88,0,1,1-5.43-1.92Zm2.26,16.62-.23.08-.17,0a2.14,2.14,0,0,1-1.36-.3,3.08,3.08,0,0,1-1.53-1.77l-.08-.31.31-.05a2.86,2.86,0,0,1,3,2.06Zm.24-1.08c-1.38-1-1.83-3.41-1.1-5.77l.16-.53.34.44c1.52,2,1.94,4.35,1,5.78l-.17.26Zm5.62,13.39.41-1-1.58-1.35-1,.57-1.2-1,5.2-2.86,1.35,1.15-2,5.59Zm2.41.29-.16-.2C1034.4,1935.65,1034.55,1935.57,1034.47,1935.79Zm.56,1.56.23-.06a1.06,1.06,0,0,0,0,.18Zm-.31-2.73-.1.17h-.11a1.76,1.76,0,0,0,0-.36l.43,0h0c.09.13.17.13.25.06a.25.25,0,0,0-.09-.09l.25,0c0,.15,0,.28-.07.37l-.43,0A.91.91,0,0,0,1034.72,1934.62Zm13,.16-.91.22c.08,1-.56,1.83-1.89,2l-1,.13.08.61.45-.06c.06,0,.13.07.14.16s0,.18-.08.19l-.46.06.1.77-1.5.19-.1-.78-4.24.53a.85.85,0,0,0-.13-.35l4.32-.54-.24-1.85-.64.15c-.06,0-.13-.05-.15-.15s0-.19.07-.2l.67-.16-.2-1.58-1,.09a1.94,1.94,0,0,1,0,1.18,1.86,1.86,0,0,1-2.57,1.22l-.42-.12v0l-.34.06a1,1,0,0,0,0-.19l-.16,0L1037,1938l-1.45-.42.2-.68-.55.1a.46.46,0,0,1,0-.33.14.14,0,0,0,0,0h.08l.1,0,0,0,.35-.06a1,1,0,0,0,0,.16h.08a.93.93,0,0,0,0-.21h.06l.56-1.92h-.08a.12.12,0,0,1,0-.16c-.06-.06-.11,0-.12.17l-.31,0-.06-.08a.2.2,0,0,0-.05.09h-.08a.38.38,0,0,0-.09-.25s0-.07,0-.1l.6-.05.09.13.08-.15h.06l.34-1.16-1.53.3.32-.38-.07,0,1.38-.27.13-.43.93.27,0,0,.34-.07a3.05,3.05,0,0,0,.39.29h0l.78.23a2.32,2.32,0,0,1,1.37.92l1.11-.1,0-.24,2.46-.32a1.88,1.88,0,0,1,2.34,1.41l1-.23A.85.85,0,0,0,1047.73,1934.78Zm-12.05-.09,0-.09.07.09Zm15.79,2.91-1.67-1.7h-.08l.35,1.94-1.48.27-1-5.46,2.44-.44c1.39-.25,2.25.33,2.45,1.43a1.62,1.62,0,0,1-1.12,1.9l1.85,1.74Zm5.59-.91a2.88,2.88,0,1,1,2.37-3.36A2.81,2.81,0,0,1,1057.06,1936.69Zm7.21-1.48-1.73.4-3.23-5,1.56-.36,2.19,3.58.39-4.18,1.53-.36Zm4.2-1.68-3.38-4.41,3.45-2.64.82,1.07-2.25,1.72.45.58,2.09-1.6.82,1.06-2.09,1.6.48.63,2.25-1.72.82,1.07Zm6.49-6.87-1.18,2.15-4.87-2.67,1.18-2.15a2.78,2.78,0,1,1,4.87,2.67Zm-.48-12.24-.23.08-.17,0a2.14,2.14,0,0,1-1.36-.3,3.08,3.08,0,0,1-1.53-1.77l-.08-.31.31-.05a2.86,2.86,0,0,1,3,2.06Zm3.21-3.47.3-.12.08.31a2.44,2.44,0,0,1-.48,1.91,2.51,2.51,0,0,1-1.51,1.1h-.1l-.27,0,0-.26A3,3,0,0,1,1077.69,1911Zm-2.56,2.32-.17.26-.25-.19c-1.38-1-1.83-3.41-1.1-5.77l.16-.53.34.44C1075.65,1909.46,1076.07,1911.84,1075.14,1913.27Zm-2.66-14.78c.89,1.1.79,2.13-.08,2.84a1.62,1.62,0,0,1-2.2-.07l-.63,2.46-1.12-1.38.69-2.28-.05-.06-1.53,1.24-1-1.17,4.31-3.5Z" transform="translate(-1018.51 -1886.62)"/>
    <path d="M1061.21,1915.83c-.19.13-.15.2,0,.31s.21.29.17.33c-.18.21,0,.4,0,.6s.12.33.2.52l.21-.19c0-.23,0-.43,0-.62,0-.43-.26-.81-.28-1.24s-.17-.58-.63-.66l0,.46.51.23A1.39,1.39,0,0,1,1061.21,1915.83Z" transform="translate(-1018.51 -1886.62)"/>
    <path d="M1059.74,1923.1c0-.08.15-.13.22-.2s.1-.13.09-.18a4.7,4.7,0,0,0-.18-.51l-.5.92C1059.48,1923.27,1059.6,1923.33,1059.74,1923.1Z" transform="translate(-1018.51 -1886.62)"/>
    <path d="M1043,1908.82l-.08-.09a1.86,1.86,0,0,0-.93.81l.06.06Z" transform="translate(-1018.51 -1886.62)"/>
    <path d="M1058.92,1921.91c-.05.45,0,.56.42.65l-.32-.69Z" transform="translate(-1018.51 -1886.62)"/>
    <path d="M1060.32,1911.52l.55.08C1060.72,1911.24,1060.7,1911.24,1060.32,1911.52Z" transform="translate(-1018.51 -1886.62)"/>
    <path d="M1041.78,1921.87c0-.17-.07-.34-.11-.5a.12.12,0,0,0-.1,0,.15.15,0,0,0,0,.11c0,.15.09.3.14.49C1041.72,1921.93,1041.78,1921.89,1041.78,1921.87Z" transform="translate(-1018.51 -1886.62)"/>
    <path d="M1053.74,1926l-.32-.11v.45l-.26-.19c-.15.26,0,.34.18.45l.25-.33.32.24,0-.78h-.09Z" transform="translate(-1018.51 -1886.62)"/>
    <path d="M1052.27,1923.72l.18.3.14-.08-.15-.32Z" transform="translate(-1018.51 -1886.62)"/>
    <path d="M1036,1919.12c.11,0,.17-.19.13-.36s-.15-.29-.26-.26l-.6.15,0,.21a1,1,0,0,1,0,.43Z" transform="translate(-1018.51 -1886.62)"/>
    <path d="M1045.67,1906.19c0,.06,0,.13-.07.19l.15,0Z" transform="translate(-1018.51 -1886.62)"/>
    <path d="M1048.46,1910.32l-.42,0a1.86,1.86,0,0,1,.05.32Z" transform="translate(-1018.51 -1886.62)"/>
    <path d="M1048.55,1907c-.11.16-.39.13-.14.43Z" transform="translate(-1018.51 -1886.62)"/>
    <path d="M1035.25,1914.74l-.29.05s.08.07.09.19-.19.06-.29.09a.21.21,0,0,1,.08-.25l-.23,0-.06.08a1.72,1.72,0,0,1,.19.54l.6-.11A2.88,2.88,0,0,1,1035.25,1914.74Z" transform="translate(-1018.51 -1886.62)"/>
    <path d="M1034.52,1914.87l-.22,0C1034.36,1915,1034.43,1915,1034.52,1914.87Z" transform="translate(-1018.51 -1886.62)"/>
    <path d="M1061.76,1923.85c-.11,0-.18.17-.15.34a.44.44,0,0,0,.08.19.19.19,0,0,0,.17.09l.74-.1c0-.18-.1-.36.07-.52.17.37.23.09.36.2a1.39,1.39,0,0,0-.24.3l1.72-.24a3,3,0,0,1-.4-.58Z" transform="translate(-1018.51 -1886.62)"/>
    <path d="M1059.79,1904.1l0,.16h.15Z" transform="translate(-1018.51 -1886.62)"/>
    <path d="M1057.36,1905.84l.28.36C1057.77,1905.82,1057.51,1906,1057.36,1905.84Z" transform="translate(-1018.51 -1886.62)"/>
    <path d="M1061.37,1920.35l2.22-.53-.08-.07a2.41,2.41,0,0,1,.05-.58l-1.74.42-.36-.62-.08,0,.12.66-.08,0A4,4,0,0,1,1061.37,1920.35Z" transform="translate(-1018.51 -1886.62)"/>
    <path d="M1061.52,1911.88a.73.73,0,0,0,.1.37c-.13.26-.32,0-.38.12a.67.67,0,0,0,0,.22l.67-.12a.34.34,0,0,1,.26-.15.61.61,0,0,0,0,.11l.39-.07c.06-.27.1-.6.31-.55,0,.16,0,.36-.07.51l.18,0a1,1,0,0,0,0-.65Z" transform="translate(-1018.51 -1886.62)"/>
    <path d="M1037.64,1905a.48.48,0,0,0,0-.11c0-.17-.15-.3-.25-.28l-.51.09a3,3,0,0,1,0,.65l.64-.12C1037.58,1905.19,1037.63,1905.09,1037.64,1905Z" transform="translate(-1018.51 -1886.62)"/>
    <path d="M1041,1905.3l-.22,0C1040.86,1905.4,1040.93,1905.36,1041,1905.3Z" transform="translate(-1018.51 -1886.62)"/>
    <path d="M1039.41,1921.66l-1.81.33,0,.36-.15-.05V1922l-.3.05a1.65,1.65,0,0,1,0,.37l-.07,0-.07,0a1.81,1.81,0,0,1,0-.28l-.62.11,0,.09-.17-.06-.13,0a.25.25,0,0,1,0,.06.81.81,0,0,0,0,.59l3.51-.63A.66.66,0,0,1,1039.41,1921.66Zm-.77.55c-.12,0-.07.3-.23.17C1038.36,1922.1,1038.63,1921.89,1038.64,1922.21Z" transform="translate(-1018.51 -1886.62)"/>
    <path d="M1040.49,1922.11l.6-.11a1.72,1.72,0,0,1,0-.57l-.09-.06-.23,0a.21.21,0,0,1,.16.21c-.1,0-.15.13-.3,0s0-.18,0-.21l-.29.05A2.88,2.88,0,0,1,1040.49,1922.11Z" transform="translate(-1018.51 -1886.62)"/>
    <path d="M1041.3,1921.32l-.22,0C1041.2,1921.42,1041.26,1921.39,1041.3,1921.32Z" transform="translate(-1018.51 -1886.62)"/>
    <path d="M1038.11,1917.19a.61.61,0,0,0,0,.11l.39-.07c.06-.27.1-.59.31-.55,0,.16,0,.36-.07.51l.18,0a1,1,0,0,0,0-.65l-1.46.26a.73.73,0,0,0,.1.37c-.13.26-.32,0-.38.12a.67.67,0,0,0,0,.22l.67-.12A.34.34,0,0,1,1038.11,1917.19Z" transform="translate(-1018.51 -1886.62)"/>
    <path d="M1040.12,1916.72a.48.48,0,0,0,0-.11c0-.17-.15-.3-.25-.28l-.51.09a3,3,0,0,1,0,.65l.64-.12C1040.06,1916.95,1040.12,1916.85,1040.12,1916.72Z" transform="translate(-1018.51 -1886.62)"/>
    <path d="M1036.18,1917.65l.6-.11a1.72,1.72,0,0,1,0-.57l-.09-.06-.23,0a.21.21,0,0,1,.16.21c-.1,0-.15.13-.3,0s0-.18,0-.21l-.29.05A2.88,2.88,0,0,1,1036.18,1917.65Z" transform="translate(-1018.51 -1886.62)"/>
    <path d="M1037,1916.86l-.22,0C1036.89,1917,1037,1916.92,1037,1916.86Z" transform="translate(-1018.51 -1886.62)"/>
    <path d="M1070.65,1891a24,24,0,0,0-18.09-3.94l-14.17,2.57a24.27,24.27,0,0,0-19.49,28.13l1,5.39a24,24,0,0,0,10,15.55,24.5,24.5,0,0,0,5.58,2.89l.31.11.28.1.09,0a23.87,23.87,0,0,0,5.47,1.12l1,.06a24.2,24.2,0,0,0,5.39-.37l14.17-2.57a24.27,24.27,0,0,0,19.49-28.13l-1-5.39A24,24,0,0,0,1070.65,1891Zm8.82,21.34a22,22,0,0,1-17.69,25.53l-14.17,2.57a21.91,21.91,0,0,1-5.44.3q-.64,0-1.27-.13a21.69,21.69,0,0,1-4.72-1.16l-.14,0a22.27,22.27,0,0,1-4.84-2.54,21.8,21.8,0,0,1-9.12-14.11l-1-5.39a22.08,22.08,0,0,1,12.13-23.73l.53-.24a21.92,21.92,0,0,1,5-1.55l14.17-2.57a22,22,0,0,1,25.53,17.69Z" transform="translate(-1018.51 -1886.62)"/>
    <path d="M1025.79,1909.9a2.79,2.79,0,0,0,3.69-1.81,2.87,2.87,0,0,0-.38-2.76l-1.23.88a1.43,1.43,0,0,1,.24,1.41,1.44,1.44,0,1,1-1.64-1.87l-.25-1.51a2.82,2.82,0,0,0-2.17,1.92A2.79,2.79,0,0,0,1025.79,1909.9Z" transform="translate(-1018.51 -1886.62)"/>
    <polygon points="13.01 17.76 11.51 16.27 12.64 15.13 12.96 14.81 13.19 15.05 14.46 16.31 15.52 15.24 15.04 14.76 14.73 14.45 11.58 11.32 10.52 12.39 11.98 13.84 10.53 15.3 9.07 13.85 8.01 14.92 11.95 18.83 13.01 17.76"/>
    <polygon points="16.36 14.68 17.13 14.22 17.65 13.91 17.56 13.77 16.91 12.67 16.7 12.33 15.91 10.99 15.71 10.67 14.8 9.14 13.51 9.92 14.36 11.34 14.38 11.38 15.07 12.53 15.25 12.84 16 14.08 16.19 14.41 16.36 14.68"/>
    <path d="M1036.73,1898.79l.09.35.22.8,1.46-.39-.15-.56-.09-.35-.21-.77,1-.26a1.86,1.86,0,0,0,1.57-2.38,1.88,1.88,0,0,0-2.58-1.29l-2.39.65.1.36.09.35.41,1.5.09.35Zm1.59-3.55a.58.58,0,0,1,.77.38.54.54,0,0,1-.31.65l-.16.06-.92.25,0-.17-.25-.93Z" transform="translate(-1018.51 -1886.62)"/>
    <path d="M1049.17,1895.88a1.28,1.28,0,0,1-.53-2.31c-.18-1-.94-1.45-2.4-1.18l-2.45.44,1,5.46,2.59-.47C1048.82,1897.57,1049.35,1896.85,1049.17,1895.88Zm-3.68-2.11.94-.17c.41-.07.64,0,.69.34s-.12.49-.53.57l-.93.17Zm.55,3-.17-.94,1-.19q.64-.12.73.35c.06.32-.13.51-.56.59Z" transform="translate(-1018.51 -1886.62)"/>
    <path d="M1051.79,1896l2-.37.55,1,1.57-.29-3.06-5.09-1.75.32-1.08,5.84,1.55-.28Zm.49-3.12.85,1.51-1.12.2Z" transform="translate(-1018.51 -1886.62)"/>
    <polygon points="39.86 7.7 40.28 7.76 41.49 10.11 43.32 10.4 41.61 7.25 44.02 4.89 42.21 4.6 40.5 6.44 40.07 6.37 40.4 4.31 38.91 4.07 38.03 9.56 39.52 9.8 39.86 7.7"/>
    <polygon points="47.59 13.01 48.27 11.86 45.83 10.42 46.23 9.73 48.5 11.07 49.18 9.91 46.91 8.58 47.29 7.95 49.73 9.38 50.41 8.23 46.67 6.03 43.85 10.81 47.59 13.01"/>
    <path d="M1067.73,1901.58l1.53-1.24.05.06-.69,2.28,1.12,1.38.63-2.46a1.62,1.62,0,0,0,2.2.07c.87-.71,1-1.74.08-2.84l-1.56-1.92-4.31,3.5Zm3.26-2.65.6.74c.23.29.28.6,0,.81s-.56.09-.79-.19l-.6-.74Z" transform="translate(-1018.51 -1886.62)"/>
    <path d="M1046,1931.46l14.17-2.57a13,13,0,0,0,10.38-15l-1-5.39a13,13,0,0,0-15-10.38l-14.17,2.57a12.75,12.75,0,0,0-3.56,1.21q-.4.21-.78.44a12.75,12.75,0,0,0-1.75,1.28l-.32.29a13.17,13.17,0,0,0-1.86,2.15,12.79,12.79,0,0,0-2.11,9.62l.46,2.52.06.35.46,2.52a12.87,12.87,0,0,0,.31,1.3l.11.35a12.69,12.69,0,0,0,.55,1.42l.16.33a12.81,12.81,0,0,0,3.17,4l.34.28q.35.28.72.54l.49.32.45.27a13.06,13.06,0,0,0,1.65.8l.67.25a12.7,12.7,0,0,0,6.35.46Zm.13-7.77c0,.15.17.61-.34.47,0-.19,0-.37-.23-.41,0,0-.07-.06-.09-.09-.17-.28-.21-.29-.46,0,.11-.33.29-.63,0-.92l.08-.1a1.7,1.7,0,0,0,.23.13.86.86,0,0,1,.28.6C1045.77,1923.45,1046.14,1923.32,1046.13,1923.69Zm1.35,1.35c-.26-.22-.29-.44-.1-.53Zm-1.06-6.07c0,.23-.06.39-.3.45a.68.68,0,0,0-.15.1l.17.18c-.29.23-.59.45-.87.69a2.37,2.37,0,0,0-.27.34.58.58,0,0,0-.53-.14c-.35.07-.37-.05-.59-.35-.29.32-.25-.14-.35-.16a1.36,1.36,0,0,0,.08-.32s-.16-.11-.19-.09a3.6,3.6,0,0,0-.36.35v-.17c-.16-.27-.55,0-.59-.36a.88.88,0,0,1,.29-.94c.1-.07.29,0,.44,0a8.24,8.24,0,0,1,.88-.37,18,18,0,0,0,3-1.37l-.1.49.05,0,.26-.29.08,0c0,.08-.08.17-.13.25l-.22.36c-.15.27-.31.54-.45.81A1.22,1.22,0,0,0,1046.42,1919Zm-.91-7.55a2.8,2.8,0,0,1,1.83,0v.1Zm1.5,9.1a2.91,2.91,0,0,1-.09-.37.34.34,0,0,1,.06-.2,1.48,1.48,0,0,1,.59-.57c.15-.07.26,0,.27.19s0,.21,0,.32-.06.2-.09.2C1047.41,1920.06,1047.23,1920.36,1047,1920.51Zm1.08,0-.1.65C1047.83,1920.94,1047.77,1920.74,1048.09,1920.52Zm1,6-.06-.32.25.12Zm1.18,0a1.58,1.58,0,0,0,0,.41l-.25-.41.34-.52.1,0A3.3,3.3,0,0,0,1050.27,1926.55Zm6,1.22-.2,0c0-.06,0-.12,0-.18l.22.12Zm1-1.52a.64.64,0,0,0,0,.2l-.13,0-.11.48c-.09-.1-.13-.2-.18-.2-.22,0-.33-.16-.27-.34s.26-.07.41-.05l.33-.24.06,0S1057.3,1926.2,1057.29,1926.25Zm1.21-1.82-.37-.35c-.13.37.17.57.14.89l-.38-.55-.13.57-.21-.12,0,0,.11.19-.05,0-.46-.87c.15-.09.26-.22.1-.37s-.23.15-.41.14l.26.2-.33.16c.16.18.47.31.24.59l.08.28c.22.15.4.27.57.41s0,.14.06.22-.15,0-.2,0a.69.69,0,0,1-.27-.18c-.09-.11-.31.11-.34-.17,0-.12-.18-.22-.33-.39l0,.6-.33.06.43.22-.3.32a1.58,1.58,0,0,0-.26-.1,2.13,2.13,0,0,0-.32,0,1.18,1.18,0,0,0,.09.32c.14.21.11.36-.07.46l0,.48h-.13l.05-.32c-.11,0-.25,0-.29.06a3,3,0,0,0-.22.5l.06.06-.07,0v0l-.09-.1,0,.34-.88.16,0-.16-.07,0-.09.22-.89.16v-.13h-.08l-.11.18h0l-.46-.53.1-.25-.06,0-.38.29.13.22c-.17.15-.12.29-.05.44H1052l-.18-.37.05-.18c-.07,0-.15,0-.19,0a1.67,1.67,0,0,1-.22-.23c.15-.35.29-.64.39-.95,0-.07-.09-.18-.15-.3l.14-.2a.33.33,0,0,0-.33.47,1.22,1.22,0,0,1,0,.25h-.08v-.16l-.26,0a2.72,2.72,0,0,0,.16-.35.44.44,0,0,1,.43-.33.64.64,0,0,0,.15-.05l.27.3-.18.41c.28.07.32,0,.33-.19s0-.13.14-.19a1.68,1.68,0,0,0,.43-.51s0-.12,0-.25l.66.06.07-.27c.38,0,.44-.41.86-.48-.36-.14-.48-.3-.26-.59,0,0-.12-.24-.19-.36l-.27.15-.11-.17a.5.5,0,0,0-.21-.17v.75l-.4-.43,0,.1,0,.21h0l-.39.12c-.09-.29-.18-.58-.45-.69l-.42.34.12-.52-.06,0-1,.61,0,0,.69-.51-.06-.09-.68.38.06-.27,0,0-.46.51-.06,0,.19-.43-.31-.2h.07v-.34l.19-.21.18.13.08-.27.53-.1,0-.26a2,2,0,0,0,.25,0l.75-.19c.51-.13,1-.25,1.53-.4.34-.1.67-.26,1-.4l.43-.15v-.11l0,.06c.35-.21.7-.4,1-.63s.42-.55.83-.31c.05,0,.07-.11.21-.09a.48.48,0,0,1,.47.56c0,.51.22.79.68,1l-.65.18a3,3,0,0,1,.35.38,1.09,1.09,0,0,1,.09.33l-.3-.12s0-.06-.05-.1l-.1.06v.38h-.12l-.11.53.37-.12.67.87Zm-1.62-5.73.39.16.06-.07-.17-.15-.28-.17.34-.1c.07.29.62.3.4.69l-.67.12C1057.23,1918.88,1057,1918.82,1056.87,1918.7Zm3.42,8.33-.08,0c0-.05,0-.12,0-.18h0l0,0Zm6.76-4.66-.09.14a11.11,11.11,0,0,1-4.13,3.61,6.25,6.25,0,0,0-.83.15c0,.05,0,.13,0,.22q-.48.2-1,.35l-.49,0,0,.12-.12,0c.12-.18.29-.34.1-.54.09-.07.2-.11.23-.18.15-.36.29-.73.42-1.1s.32-.89.48-1.34a.93.93,0,0,1,0-.12,2.47,2.47,0,0,0,.17-.39,3.52,3.52,0,0,0,.15-1.07,1.37,1.37,0,0,0,.17-.19.67.67,0,0,1,0,.26l4.74-.49.46,0Q1067.24,1922.09,1067.05,1922.37Zm.75-13.53.43,2.39-3.14.31-.88.09c-.11,0-.18.16-.15.33s.14.3.25.29l.9-.09,3.14-.31.19,1.06-3.14.32-4.86.5a1.88,1.88,0,0,1,0,.64l5-.52,3.14-.32.12.69a11.05,11.05,0,0,1,.15,1.2l-3,.61-3.09.63c0,.32-.19.49-.41.11l.07,0-.65.13.64.52,3.56-.72,2.94-.59a10.9,10.9,0,0,1-.21,2.24l-2.36.38-1.4.22c-.12,0-.18.19-.14.38s.18.33.3.31l1.36-.22,2.06-.33a11.1,11.1,0,0,1-.79,2.06l-.94.1-4.72.49c0-.06,0-.12-.06-.19a1.64,1.64,0,0,1-.14.21l-1.28.13c0-.16,0-.3.2-.36,0-.24,0-.45,0-.66,0-.36.05-.72.07-1,.06-.07.14-.14.13-.16a4.19,4.19,0,0,0-.31-.43.21.21,0,0,0-.14.07c-.1.26-.18.53-.29.88l-.08-.66-.11,0-.23.53s-.06,0,0-.07c.19-.47-.06-.55-.45-.51l-.1,0a.87.87,0,0,0-.08.35c0,.23-.1.22-.26.23,0,.26,0,.51,0,.75,0,.08.11.15.13.24.09.32.16.65.23,1l.12,0a3.35,3.35,0,0,0-.05-.45c0-.18-.07-.31.16-.39.08,0,.12-.16.18-.25l-.06,0-.18.07c.23-.31-.1-.51-.16-.76l.08,0,.36.67.23-.23v1.53h.1c0-.2.08-.41.11-.61a1.09,1.09,0,0,1,0-.21.19.19,0,0,1,.16,0c.05.06.12.16.1.23a1,1,0,0,1-.16.28l0,.11a.36.36,0,0,0,0,.19l.11,0,.08.17a.37.37,0,0,0,.08-.21.82.82,0,0,1,.81.36l.19,0,0,.22c-.14-.11-.28-.31-.38,0s-.23.65-.34.94c-.1,0-.22,0-.23,0a.53.53,0,0,0-.09.32c.06.26.07.26-.18.26a2.24,2.24,0,0,1,0-.3c0-.11.06-.21.09-.31a.48.48,0,0,0-.35-.58l.25.41-.18-.09-.19.5V1923h-.09c0,.08,0,.16-.07.24a.25.25,0,0,1-.07.13.45.45,0,0,0-.13.66s0,.14,0,.21-.1.06-.1.06c.1.24-.13.29-.24.48,0-.11,0-.18,0-.2.24-.19.15-.37,0-.57s-.06-.24,0-.28c.28-.25,0-.3-.08-.39l-.54.76c0-.11,0-.22,0-.3s0-.35.21-.45.14-.14,0-.22l-.15-.11-.24-.13s0-.08.08-.09.21-.14.07-.29-.09-.23-.06-.25c.32-.21.12-.52.22-.83l-.69.12.12-.57.08-.44a.9.9,0,0,1,0-.21c.13-.27.36-.53.37-.8a1,1,0,0,1,.59-1l-.43-.4s0-.09,0-.12a.71.71,0,0,0-.12-.21c-.11-.11-.23-.25-.37-.27s-.42-.33-.66-.15c-.07-.07-.12-.16-.19-.18s-.37-.07-.56-.12-.16-.1-.24-.11a5.61,5.61,0,0,1-.62-.1c-.46-.15-.91-.34-1.38-.49a5.26,5.26,0,0,0-.55-.13c0,.09-.1.21-.12.2-.24-.07-.19.14-.23.25a1.43,1.43,0,0,0-.07.35,2,2,0,0,0,0,.29c.25-.42.38-.47.79-.36a1.33,1.33,0,0,1,.19,0,9.77,9.77,0,0,1,1.42.64,3.6,3.6,0,0,1,.69.84l-.5-.05.15.3-.34.11.26.54-.09.17-.39,0,.1.41-.78-.07v.08l.19.08c.17.09.21.32,0,.4a5.3,5.3,0,0,1-1,.37,5.57,5.57,0,0,0-1.6.56,2.92,2.92,0,0,1-.83.35,5.67,5.67,0,0,1-1,.06c-.05,0-.15,0-.16,0-.1-.3-.25,0-.43,0a4.64,4.64,0,0,0,.59-.34,4.25,4.25,0,0,0,.44-.46c.26.34.26.34.63.11l-.09-.15c.39.2.86.21.93,0l-.09-.17.32-.12.16.22h.08c.09-.53.29-1.07-.17-1.58a6.09,6.09,0,0,1,.64.46c.1.08.18.19.27.27s.09,0,.13,0,0-.11,0-.14a.37.37,0,0,0-.14-.05l0-.06.39.15.05,0c-.06-.08-.11-.19-.19-.22-.26-.12-.31-.21-.14-.54l-.89-.5,0,.05.16.15-.17.22s-.14-.1-.17-.08c-.2.11-.35,0-.52-.06s-.17.06-.26.09l0,.09.22.05,0,.22c.2.12.4.23.59.37s.06.14.09.23c-.4-.06-.51-.36-.69-.59l-.1,0h-.18l.22.3h-.5c.1-.25.1-.25-.4-.41.25-.2.28-.41,0-.68l1-.39c0,.28,0,.36.23.27a1,1,0,0,0,.58-.94c-.11,0-.26.17-.37.14a1.27,1.27,0,0,0-1.26.24,2.47,2.47,0,0,0-.4.52.35.35,0,0,1-.39.18c-.34-.06-.67-.15-1-.19-.11,0-.24.08-.39.13l-.35-.2.06,0c-.09-.12-.17-.24-.26-.35s-.16-.16-.24-.24l0,0-.25-.41c.06-.09.08-.21,0-.24a.33.33,0,0,1-.1-.51l-.24-.23.1,0a1.76,1.76,0,0,0,0-.19c0-.23,0-.46.05-.69a6.31,6.31,0,0,0,0-.69c0-.14-.1-.29-.1-.43s.06-.46,0-.69-.06-.54.2-.74a.13.13,0,0,0,0-.12c-.12-.16-.26-.32-.39-.49a2.1,2.1,0,0,1,.14-.21.82.82,0,0,1,1.16-.12c.33.42.63.86,1,1.26a11.68,11.68,0,0,0,1.39,1.33,2.12,2.12,0,0,0,1.8.27c.8-.17,1.59-.39,2.39-.59a7.05,7.05,0,0,0,1.83-.69.42.42,0,0,0,0,.16v.06c0,.15.13.26.23.26h.42a.67.67,0,0,1,.12-.62h-.53l.06,0a1.86,1.86,0,0,0,1-1.91c-.06-.37,0-.75-.07-1.15l.45,0,0,.06.07,0c-.13.21-.09.25.25.33l.12-.42,4.42-1.12,3.05-.77C1067.74,1908.54,1067.77,1908.69,1067.8,1908.84Zm-15.86,1.33-.07,0-.14-.49c-.41.64-1,.57-1.67.58a3,3,0,0,1,1-.79l1.09-.62.18.37c.28,0,.62-.13.79.29-.19,0-.39,0-.58,0s-.23.08-.24.13c0,.28-.2.29-.45.2Zm5.45-.29-.55,0a.7.7,0,0,1,0-.24c0-.13.05-.31.15-.37a.69.69,0,0,1,.42,0s.07.15.07.23A2.86,2.86,0,0,1,1057.38,1909.87Zm.25.81-.2.15-.15-.22.31,0Zm-.56-1.59a1.18,1.18,0,0,1-.34.08l-1.7.41,0,0,1.1-.41c.28-.11.55-.25.83-.34s.41,0,.43,0C1057.46,1909,1057.19,1909,1057.07,1909.09Zm.69-.41a.92.92,0,0,1,.1-.22l.12,0-.06.27-.1,0S1057.76,1908.69,1057.77,1908.68Zm1.48-1.57,0,0,.27.15-.15,0Zm8.31.66-3,.76-4.11,1-.05.07a3.42,3.42,0,0,1,0-.36,1.68,1.68,0,0,0-.2-1.53l4-.73,2.83-.51A10.94,10.94,0,0,1,1067.55,1907.77Zm-.55-1.49a.15.15,0,0,1-.16-.11.19.19,0,0,0,.08-.07Zm-3.81-4.55.14.1a11.36,11.36,0,0,1,1.58,1.36l-1,.09-.14.22a1,1,0,0,0,0-.21h-.13l-2.37.21-.15.26-.16-.23-1.06.09c0,.05,0,.11,0,.17a.68.68,0,0,1,.15.45h.14a.36.36,0,0,1,.09-.16l.1.14.54,0c0-.21.11-.41.22-.3a.21.21,0,0,0-.07.29l.92-.08c.11-.07.17-.07.2,0h.06a.29.29,0,0,1,.08-.14l.09.12.42,0a.88.88,0,0,0-.24-.18c.24-.7.7-.38,1,.12h.17l1.72-.15a10.94,10.94,0,0,1,1.4,2.13l-2.67.48-4,.73c0-.05,0-.1,0-.15,0-.41-.32-.7-.4-1.07a4.06,4.06,0,0,0-.9-1.56l.18,0c.2-.15.14-.38.13-.65l-.44,0a.45.45,0,0,1,.16.15.24.24,0,0,1-.38,0,2.12,2.12,0,0,0,0-.4c0-.23.08-.54-.24-.68s-.25-.43,0-.64a1.18,1.18,0,0,1,.15-.09,1.5,1.5,0,0,0-.25-.43l3.43-.82A11.42,11.42,0,0,1,1063.19,1901.73Zm-4.42,3.3-.07,0-.4-.67.25,0A.69.69,0,0,0,1058.77,1905Zm-2.92-5.23s0,0,0,0a10.91,10.91,0,0,1,4.67.58l-3.82.92a.17.17,0,0,0-.11.1l-.94,0c-.27,0-.39-.12-.3-.37s.22-.46.32-.69A1.73,1.73,0,0,0,1055.85,1899.8Zm2.3,4-.22,0-.25-.42,0,0Zm-3.1-3.88.12,0a1.38,1.38,0,0,1-.67.68l-.1-.27A.6.6,0,0,0,1055.05,1899.88Zm-2.75,1.12.75.36v0l-.76-.34Zm-11.59,4.38.1-.18c.29-.47.45-1,1-1.28,0,0,0-.09.07-.14a2.63,2.63,0,0,1,.32-.49,3.64,3.64,0,0,1,.51-.36,1.72,1.72,0,0,1,.33-.24,5.35,5.35,0,0,0,1.4-.56c.18-.14.22-.21-.06-.32a1.87,1.87,0,0,1,.63,0,.3.3,0,0,0,.31,0l.51-.25,4.29-.78a1.83,1.83,0,0,1,.3.11s.12.05.14,0c.19-.17.32,0,.46.08l.26.15V1901l.67.25,1,.41a1.28,1.28,0,0,0,.29,0,.92.92,0,0,1,.34.05,13.94,13.94,0,0,1,2.41,1.92l.49.45.2.2c.39.29.8.6,1.21.9.05,0,.15,0,.29,0l1,1.1a.71.71,0,0,1-.09.25.3.3,0,0,1-.21.06c-.2-.4-.71-.59-.79-1.08a.1.1,0,0,0,0-.07l-.79-.36,0,.06.39.52-.16.05c.24.25.61.37.6.79h-.26l0,.1a3.39,3.39,0,0,0,.33.08c.3,0,.4.2.32.52a1.45,1.45,0,0,0-.91-.07,10.91,10.91,0,0,1-1.51.12,9.36,9.36,0,0,0-2.76.65,13.71,13.71,0,0,0-3.65,2.09,3.79,3.79,0,0,1-1.78.77,17.74,17.74,0,0,1-1.92.1,3.68,3.68,0,0,1-.62-.09,15.38,15.38,0,0,0-4.08,1.49l.21-.37-.39-.36-.09.2c-.08-.06-.09-.13-.12-.19s-.1-.16-.14-.16a4.13,4.13,0,0,0-.47.12c0-.08-.06-.15-.11-.19-.3-.23-.43.08-.61.22.31-.59.29-1-.09-1.18a2.64,2.64,0,0,0-.14.79c0,.22-.23.45-.2.71-.47.19-.12.71-.42,1l-.1-.57.1,0a1,1,0,0,1-.28-.4l0-.1,0,.11.42-.56,0,.47h.11l0-.14,0-.25.1-.65s.05-.08.07-.12v0c.08-.47.12-.94.22-1.41a15,15,0,0,1,.9-3.14l.39-.07a1.72,1.72,0,0,1,0-.57Zm1.53,14.74-.27.48,0,0,.24-.49Zm-1.14-1.19h0v-.08Zm-1.91-6.45a2.93,2.93,0,0,0,.23-.36c.15.36-.41.41-.34.75C1039,1912.71,1039,1912.71,1039.18,1912.47Zm.08,1.62,0,0s0-.06,0-.09v.07Zm-.33-3.78a.66.66,0,0,1,.1-.16.74.74,0,0,0,.09-.22h.08c0,.13,0,.27,0,.4s0,.25-.06.37H1039a.41.41,0,0,1-.14-.2A.31.31,0,0,1,1038.92,1910.31Zm.28-4.14.53-.29c-.16.11-.33.22-.49.33Zm1.39-.56h0Zm-8.92,6.91a10.89,10.89,0,0,1,.18-1.28l2.93-.11-.76-.52.1-.09-2.12.08a11.21,11.21,0,0,1,1.5-3.31l.25,0-.15-.05v-.05l0,0,.12-.17,0,0v.3l1.39-.25a.45.45,0,0,0-.11-.18c.14-.19.22.25.31-.14-.09-.06,0-.15,0-.25a.23.23,0,0,1-.12-.09l-.56.1c.13,0,.29,0,.21.33a.49.49,0,0,1-.27-.32l-.14,0c0,.17-.18.14-.26,0l-.21,0a11,11,0,0,1,5.41-3.75l-.08.09,0,0,.66-.27,0,.06c-.24.1-.57.08-.62.44h.21l-.2.2.66-.12-.87.65c.32.23.32.26,0,.49,0,0,0,.11,0,.13s-.15.12-.15.17a2,2,0,0,0,.1.38l.06,0-.15.23c.17.08.31.11.3-.19l.09.2.41-.07a5.85,5.85,0,0,1-.73.52l-.19.11a.91.91,0,0,1,0-.2l-1.81.33,0,.36-.15-.05V1906l-.3.05a1.65,1.65,0,0,1,0,.37l-.07,0-.07,0a1.81,1.81,0,0,1,0-.28l-.62.11,0,.09-.17-.06-.13,0a.25.25,0,0,1,0,.06.81.81,0,0,0,0,.59l3.18-.57h0l.23,0a1.4,1.4,0,0,0-.52.7c-.08.28-.26.52-.37.8L1034,1909c-.11,0-.16.19-.13.36a.39.39,0,0,0,.12.22.15.15,0,0,0,.14,0l4.07-1.14,0,.05.24-.12-.24,1.74.1,0,.18-.37.07,0-.36,1.31h.17l.06.07-.23.16.11,0,.06.33-5.15.93.05.12-.48.41-.15-.36.1-.08-1.05.19-.09,0C1031.65,1912.77,1031.66,1912.64,1031.67,1912.52Zm6.65-6.33c-.12,0-.07.3-.23.17C1038,1906.08,1038.3,1905.87,1038.31,1906.19Zm-2.44,20.42a11.08,11.08,0,0,1-1.19-1.39l.87-.14c-.11-.34.35-.52.2,0l.83-.14,0-.05,0,0,1.1-.18a.9.9,0,0,0-.32-.2c.06-.16.17,0,.27,0a2.47,2.47,0,0,1,.17-.49l-3.57.59a10.89,10.89,0,0,1-.63-1.15l-.06-.13h0l.44-.08-.15-.05,0-.32.19.07v.3l1.39-.25a.45.45,0,0,0-.11-.18c.14-.19.22.25.31-.14-.09-.06,0-.15,0-.25a.23.23,0,0,1-.12-.09l-.56.1c.13,0,.29,0,.21.33a.49.49,0,0,1-.27-.32l-.14,0c0,.17-.18.14-.26,0l-1.05.19-.17,0-.12-.32-.11-.34a11,11,0,0,1-.29-1.15l.24,0a.27.27,0,0,1,.08-.31c.09-.07.21,0,.12.27l.83-.14,0-.05,0,0,1.1-.18a.9.9,0,0,0-.32-.2c.06-.16.17,0,.27,0a2.48,2.48,0,0,1,.17-.49l-2.3.38-.37.06-.35-1.94v0l.16,0h.07l.11,0h0l2.58-.47a.66.66,0,0,1-.19-.61l-1.81.33,0,.36-.15-.05v-.28l-.3.05a1.65,1.65,0,0,1,0,.37l-.07,0-.07,0a1.81,1.81,0,0,1,0-.28h-.08l-.37.07-.31-1.72.1,0c.05.17.11.3.29.36h.05l.67-.19a1.6,1.6,0,0,1,.05-.31l.27.22.19-.05c0-.13-.09-.25-.12-.38a.39.39,0,0,1,.26.07l.67-.12a.67.67,0,0,0-.1-.19c-.1-.07-.19.22-.4,0a.73.73,0,0,0,0-.38l-1.46.27a1.07,1.07,0,0,0,.21.54.24.24,0,0,1-.27,0,.45.45,0,0,1,.09-.2l-.14,0-.15,0a3.07,3.07,0,0,1-.14-.39l-.14,0a11,11,0,0,1-.18-1.83l.21,0,6.59-1.19a1.32,1.32,0,0,0,0,.26,4.59,4.59,0,0,0,.16.47l.33.86.05,0,0-.1a1.27,1.27,0,0,1,.2.23l-.61.11a1.81,1.81,0,0,1,.09.27l-.06.05-.06.05a1.65,1.65,0,0,1-.15-.34l-.3.06.11.26-.12.1-.14-.33-1.81.33a.66.66,0,0,1,0,.64l3.13-.57,0,.11s0,.09,0,.13a2,2,0,0,0,.07.38,3.53,3.53,0,0,0,.23.45c.07.12.14.23.21.34.23-.17.21.09.25.16.14.29.25.59.38.89,0,0-.13.1-.13.14.07.34-.23.65,0,1a7.16,7.16,0,0,1,.28.74l-4.6.76c0,.13.1.19.16,0,.14.15-.09.32-.23.62l1-.17c.07-.13.14-.22.26-.08v0l4.05-.67,0,.08a6,6,0,0,0,.46,1.6.71.71,0,0,1,.12.44c0,.24.19.48,0,.71,0,0,0,.06,0,.08l.34.46.55-.4c-.08.12-.21.17-.3.26a.55.55,0,0,0-.11.53l-3.88.64c0,.13.1.19.16,0,.14.15-.09.32-.23.62l1-.17c.07-.13.14-.22.26-.08v0l2.93-.49a.9.9,0,0,0,.19.53l.8,1.3-.62.07v0l-.29,0v0l-.34,0c-.06.07,0,.28-.09.33a.66.66,0,0,1-.06-.31Zm-1.76-8.69c-.05-.28.22-.49.23-.17C1034.22,1917.72,1034.27,1918,1034.11,1917.92Zm-1.46-2.34-.1-.19c.11-.07.21,0,.3.14Zm0,0h0Zm4.72-.7c-.11.17-.18-.15-.28-.08C1037,1914.51,1037.33,1914.62,1037.38,1914.89Zm4.11,11.11,0,.26-.14,0,0-.26Zm-2.11,3-.19-.1c.06-.16.17,0,.27,0a2.48,2.48,0,0,1,.17-.49l-1.05.17a11.49,11.49,0,0,1-2.08-1.41l7.57-.86.18.28.62,1-4.55.75c0,.13.1.19.16,0,.14.15-.09.32-.23.62l1-.17c.07-.13.14-.22.26-.08v0l3.72-.62.32.48c.08.12.16.28.31.13a3.84,3.84,0,0,0,.11.56c0,.11.08.22.13.32l-.42.08A10.93,10.93,0,0,1,1039.37,1929Z" transform="translate(-1018.51 -1886.62)"/>
    <path d="M1034.58,1930.33l-5.2,2.86,1.2,1,1-.57,1.58,1.35-.41,1,1.22,1,2-5.59Zm-.95,3.33-.87-.74,1.5-.88Z" transform="translate(-1018.51 -1886.62)"/>
    <path d="M1039.46,1933l-.78-.23-.67-.19-.93-.27-.13.43-.11.39-.34,1.16-.11.37-.56,1.92-.11.38-.2.68,1.45.42.49-1.68.16,0,.37.11.42.12a1.86,1.86,0,0,0,2.57-1.22,1.94,1.94,0,0,0,0-1.18,1.61,1.61,0,0,0-.17-.34A2.32,2.32,0,0,0,1039.46,1933Zm.07,2a.57.57,0,0,1-.78.36l-.91-.27.17-.6.11-.37,0-.12.32.09.6.17a.83.83,0,0,1,.24.11A.53.53,0,0,1,1039.53,1935Z" transform="translate(-1018.51 -1886.62)"/>
    <path d="M1046.76,1934.64a1.88,1.88,0,0,0-2.34-1.41l-2.46.32,0,.24,0,.36.2,1.58,0,.36.24,1.85,0,.36.1.78,1.5-.19-.1-.77,0-.36-.08-.61,1-.13c1.33-.17,2-1,1.89-2,0,0,0-.09,0-.14S1046.78,1934.71,1046.76,1934.64Zm-1.47.42a.54.54,0,0,1-.05.32.64.64,0,0,1-.52.32l-.94.12v-.09l0-.36-.09-.67.94-.12a.58.58,0,0,1,.7.42Z" transform="translate(-1018.51 -1886.62)"/>
    <path d="M1052.52,1934c-.2-1.1-1.06-1.69-2.45-1.43l-2.44.44,1,5.46,1.48-.27-.35-1.94h.08l1.67,1.7,1.75-.32-1.85-1.74A1.62,1.62,0,0,0,1052.52,1934Zm-2,.87-.94.17-.18-1,.94-.17c.36-.07.66,0,.72.37S1050.83,1934.76,1050.47,1934.83Z" transform="translate(-1018.51 -1886.62)"/>
    <path d="M1055.92,1931.25a2.88,2.88,0,1,0,3.4,2.31A2.81,2.81,0,0,0,1055.92,1931.25Zm.77,4.25a1.44,1.44,0,1,1,1.09-1.66A1.34,1.34,0,0,1,1056.69,1935.5Z" transform="translate(-1018.51 -1886.62)"/>
    <polygon points="44.24 47.41 42.05 43.84 40.5 44.2 43.72 49.15 45.45 48.75 46.17 42.88 44.64 43.24 44.24 47.41"/>
    <polygon points="50.34 44.94 49.85 44.3 51.95 42.7 51.13 41.64 49.04 43.24 48.59 42.65 50.84 40.93 50.03 39.87 46.58 42.51 49.96 46.92 53.4 44.28 52.59 43.21 50.34 44.94"/>
    <path d="M1073.92,1922.8a2.67,2.67,0,0,0-3.82,1.19l-1.18,2.15,4.87,2.67,1.18-2.15A2.67,2.67,0,0,0,1073.92,1922.8Zm-.18,3.23-.44.79-2.44-1.34.44-.79a1.39,1.39,0,0,1,2.44,1.34Z" transform="translate(-1018.51 -1886.62)"/>
    <path class="b" d="M1025.85,1916.25l-.34-.44-.16.53c-.73,2.36-.28,4.73,1.1,5.77l.25.19.17-.26C1027.79,1920.6,1027.37,1918.22,1025.85,1916.25Z" transform="translate(-1018.51 -1886.62)"/>
    <path class="b" d="M1029.8,1919.91l-.08-.31-.3.12a3,3,0,0,0-2,3l0,.26.27,0h.1a2.51,2.51,0,0,0,1.51-1.1A2.44,2.44,0,0,0,1029.8,1919.91Z" transform="translate(-1018.51 -1886.62)"/>
    <path class="b" d="M1023.14,1920.88l-.31.05.08.31a3.08,3.08,0,0,0,1.53,1.77,2.14,2.14,0,0,0,1.36.3l.17,0,.23-.08,0-.24A2.86,2.86,0,0,0,1023.14,1920.88Z" transform="translate(-1018.51 -1886.62)"/>
    <path class="b" d="M1073.79,1907l-.16.53c-.73,2.36-.28,4.73,1.1,5.77l.25.19.17-.26c.93-1.43.52-3.81-1-5.78Z" transform="translate(-1018.51 -1886.62)"/>
    <path class="b" d="M1075.72,1914.2l.27,0h.1a2.51,2.51,0,0,0,1.51-1.1,2.44,2.44,0,0,0,.48-1.91l-.08-.31-.3.12a3,3,0,0,0-2,3Z" transform="translate(-1018.51 -1886.62)"/>
    <path class="b" d="M1071.42,1912.12l-.31.05.08.31a3.08,3.08,0,0,0,1.53,1.77,2.14,2.14,0,0,0,1.36.3l.17,0,.23-.08,0-.24A2.86,2.86,0,0,0,1071.42,1912.12Z" transform="translate(-1018.51 -1886.62)"/>
  </g>
</svg>
