<?xml version="1.0" encoding="utf-8"?>
<!-- Generator: Adobe Illustrator 22.1.0, SVG Export Plug-In . SVG Version: 6.00 Build 0)  -->
<svg version="1.1" id="Artwork" xmlns="http://www.w3.org/2000/svg" xmlns:xlink="http://www.w3.org/1999/xlink" x="0px" y="0px"
	 viewBox="0 0 241.7 219.2" style="enable-background:new 0 0 241.7 219.2;" xml:space="preserve">
<style type="text/css">
	.st0{fill:#231F20;}
	.st1{fill:#FFFFFF;}
	.st2{font-family:'Mark-Bold';}
	.st3{font-size:19.3532px;}
	.st4{letter-spacing:1;}
</style>
<title>application-all</title>
<path class="st0" d="M9.6,170.2v-9.3H7.7v9.3H3.4v-21h4.2v8h1.9v-8h4.2v21H9.6z"/>
<path class="st0" d="M24.3,170.2l-0.4-4.1h-2l-0.4,4.1h-4.1l3.2-21h4.4l3.2,21H24.3z M23.4,161.1c-0.1-1.9-0.5-4.9-0.6-7.3
	c-0.1,2.4-0.4,5.4-0.6,7.3l-0.1,1.4h1.4L23.4,161.1z"/>
<path class="st0" d="M39.1,170.2l-1.5-4.8c-0.7-2.4-1.5-5.2-1.8-6.6c0.1,1.4,0.1,4,0.1,6.3v5.2H32v-21h3.6l1,3.1
	c0.8,2.4,1.7,5.4,2,6.9c-0.1-1.4-0.2-4.4-0.2-6.6v-3.4h3.8v21L39.1,170.2z"/>
<path class="st0" d="M51.3,170.2h-4.5v-21h4.8c4.2,0,5.4,3.9,5.4,10.4C57.1,166.7,55.3,170.2,51.3,170.2z M51.3,152.5h-0.4v14.3h0.3
	c1,0,1.5-0.8,1.5-7.3S52.3,152.5,51.3,152.5L51.3,152.5z"/>
<path class="st0" d="M61.1,161.1v-3.9h6v3.9H61.1z"/>
<path class="st0" d="M83.4,170.2h-3.9l-0.5-3.7c-0.4-3.1-0.7-6.2-0.8-8.4c-0.1,2.1-0.4,5.2-0.8,8.3l-0.4,3.8h-3.9l-2.3-21h3.8
	l0.3,4.2c0.2,2.3,0.4,5.5,0.4,8.2c0.2-2.8,0.5-6,0.7-8.2l0.4-4.2h3.4l0.4,4.2c0.2,2.2,0.5,5.5,0.7,8.2c0.1-2.8,0.3-6,0.4-8.2
	l0.3-4.2h3.8L83.4,170.2z"/>
<path class="st0" d="M95.6,170.2l-0.4-4.1h-2l-0.4,4.1h-4.1l3.2-21h4.4l3.2,21H95.6z M94.7,161.1c-0.2-1.9-0.4-4.9-0.6-7.3
	c-0.1,2.4-0.4,5.4-0.6,7.3l-0.1,1.4h1.4L94.7,161.1z"/>
<path class="st0" d="M109.5,152.9v17.3h-4.2v-17.3h-2.7v-3.7h9.5v3.7H109.5z"/>
<path class="st0" d="M115.9,170.2v-21h8.5v3.7h-4.3v4.4h3.3v3.7h-3.3v5.5h4.5v3.7L115.9,170.2z"/>
<path class="st0" d="M134.6,170.2l-1.5-9h-0.4v9h-4.1v-21h5.1c2.6,0,4.8,1.6,4.8,6c0,2.3-0.6,3.9-1.7,4.9l1.9,10.2L134.6,170.2z
	 M133.2,152.4h-0.4v5.7h0.4c1,0,1.3-0.8,1.3-2.8C134.4,153.1,134.1,152.4,133.2,152.4L133.2,152.4z"/>
<path class="st0" d="M142.8,170.2v-21h8.5v3.7H147v4.4h3.3v3.7H147v5.5h4.5v3.7L142.8,170.2z"/>
<path class="st0" d="M160,170.2h-4.5v-21h4.8c4.2,0,5.4,3.9,5.4,10.4C165.8,166.7,164,170.2,160,170.2z M160,152.5h-0.4v14.3h0.3
	c1.1,0,1.5-0.8,1.5-7.3S161.1,152.5,160,152.5L160,152.5z"/>
<path class="st0" d="M7.6,197.8c-3.1,0-4.4-2.5-4.4-8.9s1.3-9,4.4-9s4.4,2.5,4.4,8.9S10.7,197.8,7.6,197.8z M7.6,182.8
	c-0.7,0-0.8,0.7-0.8,6s0.2,6,0.8,6s0.8-0.7,0.8-6S8.3,182.8,7.6,182.8L7.6,182.8z"/>
<path class="st0" d="M20.4,197.5l-1.2-7.4h-0.3v7.4h-3.4v-17.4h4.2c2.2,0,4,1.3,4,4.9c0.1,1.5-0.4,3-1.4,4.1l1.6,8.4H20.4z
	 M19.2,182.8h-0.4v4.7h0.3c0.8,0,1.1-0.7,1.1-2.3S20,182.8,19.2,182.8z"/>
<path class="st0" d="M31.3,197.8c-3.1,0-4.4-2.6-4.4-9s1.3-9,4.5-9c2.9,0,3.8,2.2,4,5.5L32,186c-0.1-2.6-0.1-3.2-0.7-3.2
	s-0.8,0.8-0.8,6s0.1,6,0.9,6c0.8,0,0.8-0.6,0.8-2.2v-1.4h-0.9v-2.8h4.2v3.3C35.5,195.2,34.3,197.8,31.3,197.8z"/>
<path class="st0" d="M44.1,197.5l-0.3-3.4h-1.6l-0.3,3.4h-3.4l2.7-17.4h3.7l2.7,17.4H44.1z M43.4,190c-0.1-1.6-0.4-4-0.5-6
	c-0.1,2-0.3,4.4-0.5,6l-0.1,1.1h1.2L43.4,190z"/>
<path class="st0" d="M56.3,197.5l-1.2-4c-0.6-2-1.2-4.3-1.5-5.5c0,1.2,0.1,3.3,0.1,5.2v4.3h-3.2v-17.4h3l0.8,2.6
	c0.7,2,1.4,4.5,1.7,5.7c-0.1-1.1-0.2-3.6-0.2-5.4v-2.8H59v17.4L56.3,197.5z"/>
<path class="st0" d="M62.7,197.5v-17.4h3.5v17.4L62.7,197.5z"/>
<path class="st0" d="M74,197.8c-3,0-4.4-2.4-4.4-8.9s1.3-9,4.4-9s3.9,2.3,4.1,5.7l-3.4,0.5c-0.1-2.5-0.1-3.2-0.7-3.2s-0.8,0.8-0.8,6
	c0,5.3,0.2,6.1,0.9,6.1c0.4,0,0.6-0.4,0.8-3.2l3.3,0.5C77.8,196.1,76.8,197.8,74,197.8z"/>
<path class="st0" d="M92.5,197.8c-3.1,0-4.4-2.6-4.4-9s1.3-9,4.4-9c2.9,0,3.8,2.2,4,5.5l-3.4,0.6c-0.1-2.6-0.2-3.2-0.7-3.2
	s-0.8,0.8-0.8,6s0.1,6,0.9,6s0.8-0.6,0.8-2.2v-1.3h-0.9v-2.8h4.2v3.3C96.7,195.2,95.6,197.8,92.5,197.8z"/>
<path class="st0" d="M105.3,197.5l-0.3-3.4h-1.6l-0.3,3.4h-3.4l2.7-17.4h3.7l2.7,17.4H105.3z M104.6,190c-0.1-1.6-0.4-4-0.5-6
	c-0.1,2-0.3,4.4-0.5,6l-0.1,1.1h1.2L104.6,190z"/>
<path class="st0" d="M116.6,197.5l-1.2-7.4h-0.3v7.4h-3.4v-17.4h4.2c2.2,0,4,1.3,4,4.9c0.1,1.5-0.4,3-1.4,4.1l1.6,8.4H116.6z
	 M115.5,182.8h-0.3v4.7h0.3c0.8,0,1.1-0.7,1.1-2.3S116.2,182.8,115.5,182.8L115.5,182.8z"/>
<path class="st0" d="M127.1,197.5h-3.7v-17.4h4c3.5,0,4.5,3.2,4.5,8.6C131.9,194.6,130.4,197.5,127.1,197.5z M127.1,182.9h-0.3v11.9
	h0.2c0.9,0,1.2-0.7,1.2-6S128,182.9,127.1,182.9z"/>
<path class="st0" d="M135.3,197.5v-17.4h7.1v3.1h-3.6v3.6h2.7v3.1h-2.7v4.6h3.7v3.1L135.3,197.5z"/>
<path class="st0" d="M151.6,197.5l-1.2-4c-0.6-2-1.2-4.3-1.5-5.5c0,1.2,0.1,3.3,0.1,5.2v4.3h-3.2v-17.4h3l0.8,2.6
	c0.6,2,1.4,4.5,1.7,5.7c-0.1-1.1-0.1-3.6-0.1-5.4v-2.8h3.2v17.4L151.6,197.5z"/>
<path class="st0" d="M161.7,197.8c-2.9,0-3.9-2-4.1-4.9l3.3-0.6c0.2,2.3,0.4,2.8,0.8,2.8s0.7-0.4,0.7-1.5c0-1.7-0.4-2.3-1.8-3.6
	c-2.3-1.8-2.9-3.4-2.9-5.3c0-2.8,1.3-4.6,3.9-4.6s3.7,1.6,4,4.5l-3.2,0.6c-0.1-2-0.4-2.3-0.8-2.3s-0.7,0.4-0.7,1.4s0.4,1.8,1.7,3
	c2.4,1.9,3.1,3.5,3.1,6.1C165.8,196,164.4,197.8,161.7,197.8z"/>
<polygon class="st0" points="220.5,195.3 193.3,196.3 195.8,189.6 220.5,190.8 "/>
<path class="st0" d="M183.8,171.9l2.5,1.1l5.5-12.9c2.8-7.8,11.4-11.8,19.2-9s11.8,11.4,9,19.2c-0.2,0.5-0.4,0.9-0.6,1.4l-3.4,7.9
	l2.6,1.1l3.4-7.9c3.8-9-0.4-19.4-9.4-23.3s-19.4,0.4-23.3,9.4l0,0L183.8,171.9z"/>
<path class="st0" d="M208.3,158.3l-28,14.8c-1,0.5-1.4,1.7-0.9,2.7c0,0.1,0.1,0.1,0.1,0.2l6.3,10.6l29.9-17.9l-5.9-9.9
	C209.4,158.3,208.8,158.1,208.3,158.3z"/>
<polygon class="st0" points="220.5,195.3 226,199.7 226,185.7 220.5,190.8 "/>
<path class="st0" d="M221.6,178.6l-6-9.9l-29.9,17.9l6.3,10.6c0.5,1,1.8,1.3,2.7,0.7c0.1,0,0.1-0.1,0.2-0.1l26.2-17.7
	C221.8,179.8,222,179.1,221.6,178.6z"/>
<path class="st0" d="M226.4,200.5L226.4,200.5c-0.5,0-0.9-0.4-0.9-0.9v-13.9c0-0.5,0.4-0.9,0.9-0.9l0,0c0.5,0,0.9,0.4,0.9,0.9v13.9
	C227.3,200.1,226.9,200.5,226.4,200.5z"/>
<path class="st0" d="M227.2,210.7H2.5v-1.6h224.7c2,0,3.6-1.6,3.6-3.6v-5.3c0-1.5-1.2-2.7-2.7-2.7h0h-1.6v-1.6h1.6
	c2.4,0,4.3,1.9,4.3,4.3v5.3C232.4,208.3,230.1,210.7,227.2,210.7z"/>
<path class="st0" d="M227.8,214.5H2.5v-1.6h225.3c3.8,0,6.8-3.1,6.8-6.9c0,0,0,0,0,0v-6.1c0-3.4-2.8-6.2-6.2-6.2h-3.9V192h3.9
	c4.3,0,7.8,3.5,7.8,7.8v6.1C236.2,210.7,232.4,214.5,227.8,214.5C227.8,214.5,227.8,214.5,227.8,214.5z"/>
<path class="st0" d="M228.2,218.2H2.5v-1.6h225.7c5.6,0,10.2-4.6,10.2-10.2v-6.8c0-5.4-4.4-9.8-9.8-9.8h-2.8v-1.6h2.8
	c6.3,0,11.4,5.1,11.4,11.4v6.8C240,213,234.7,218.3,228.2,218.2C228.2,218.3,228.2,218.2,228.2,218.2z"/>
<path class="st0" d="M5.1,134.2H4.8c-0.1,0-0.2,0-0.3-0.1c-0.1,0-0.2-0.1-0.3-0.1c-0.1-0.1-0.2-0.1-0.2-0.2
	c-0.1-0.1-0.1-0.1-0.2-0.2c-0.1-0.1-0.1-0.2-0.1-0.3c-0.1-0.2-0.1-0.4-0.1-0.6c0-0.4,0.1-0.8,0.4-1.1c0.1-0.1,0.1-0.1,0.2-0.2
	c0.2-0.1,0.3-0.2,0.5-0.2c0.5-0.1,1,0.1,1.3,0.4c0.1,0.1,0.1,0.1,0.2,0.2c0.1,0.1,0.1,0.2,0.1,0.3c0,0.1,0.1,0.2,0.1,0.3
	c0,0.2,0,0.4,0,0.6c0,0.1,0,0.2-0.1,0.3s-0.1,0.2-0.1,0.3c-0.1,0.1-0.1,0.2-0.2,0.2C5.8,134.1,5.5,134.2,5.1,134.2z"/>
<path class="st0" d="M223.4,132.7c0-0.8,0.7-1.5,1.5-1.5l0,0c0.8,0,1.5,0.7,1.5,1.5l0,0c0,0.8-0.7,1.5-1.5,1.5l0,0
	C224.1,134.2,223.4,133.6,223.4,132.7z M212.4,132.7c0-0.8,0.7-1.5,1.5-1.5l0,0c0.8,0,1.5,0.7,1.5,1.5l0,0c0,0.8-0.7,1.5-1.5,1.5
	l0,0C213.1,134.2,212.4,133.6,212.4,132.7L212.4,132.7z M201.4,132.7c0-0.8,0.7-1.5,1.5-1.5l0,0c0.8,0,1.5,0.7,1.5,1.5l0,0
	c0,0.8-0.7,1.5-1.5,1.5l0,0C202.1,134.2,201.4,133.6,201.4,132.7L201.4,132.7z M190.4,132.7c0-0.8,0.7-1.5,1.5-1.5l0,0
	c0.8,0,1.5,0.7,1.5,1.5l0,0c0,0.8-0.7,1.5-1.5,1.5l0,0C191.1,134.2,190.4,133.6,190.4,132.7L190.4,132.7z M179.4,132.7
	c0-0.8,0.7-1.5,1.5-1.5l0,0c0.8,0,1.5,0.7,1.5,1.5l0,0c0,0.8-0.7,1.5-1.5,1.5l0,0C180.1,134.2,179.4,133.5,179.4,132.7L179.4,132.7z
	 M168.4,132.7c0-0.8,0.7-1.5,1.5-1.5l0,0c0.8,0,1.5,0.7,1.5,1.5l0,0c0,0.8-0.7,1.5-1.5,1.5l0,0C169.1,134.2,168.4,133.5,168.4,132.7
	L168.4,132.7z M157.4,132.7c0-0.8,0.7-1.5,1.5-1.5l0,0c0.8,0,1.5,0.7,1.5,1.5l0,0c0,0.8-0.7,1.5-1.5,1.5l0,0
	C158.1,134.2,157.5,133.5,157.4,132.7L157.4,132.7z M146.4,132.7c0-0.8,0.7-1.5,1.5-1.5l0,0c0.8,0,1.5,0.7,1.5,1.5l0,0
	c0,0.8-0.7,1.5-1.5,1.5l0,0C147.1,134.2,146.5,133.5,146.4,132.7L146.4,132.7z M135.4,132.7c0-0.8,0.7-1.5,1.5-1.5l0,0
	c0.8,0,1.5,0.7,1.5,1.5l0,0c0,0.8-0.7,1.5-1.5,1.5l0,0C136.1,134.2,135.5,133.5,135.4,132.7L135.4,132.7z M124.4,132.7
	c0-0.8,0.7-1.5,1.5-1.5l0,0c0.8,0,1.5,0.7,1.5,1.5l0,0c0,0.8-0.7,1.5-1.5,1.5l0,0C125.1,134.2,124.5,133.5,124.4,132.7L124.4,132.7z
	 M113.4,132.7c0-0.8,0.7-1.5,1.5-1.5l0,0c0.8,0,1.5,0.7,1.5,1.5l0,0c0,0.8-0.7,1.5-1.5,1.5l0,0C114.1,134.2,113.5,133.5,113.4,132.7
	L113.4,132.7z M102.4,132.7c0-0.8,0.7-1.5,1.5-1.5l0,0c0.8,0,1.5,0.7,1.5,1.5l0,0c0,0.8-0.7,1.5-1.5,1.5l0,0
	C103.1,134.2,102.5,133.5,102.4,132.7L102.4,132.7z M91.4,132.7c0-0.8,0.7-1.5,1.5-1.5l0,0c0.8,0,1.5,0.7,1.5,1.5l0,0
	c0,0.8-0.7,1.5-1.5,1.5l0,0c-0.8-0.1-1.4-0.7-1.4-1.5H91.4z M80.4,132.7c0-0.8,0.7-1.5,1.5-1.5l0,0c0.8,0,1.5,0.7,1.5,1.5l0,0
	c0,0.8-0.7,1.5-1.5,1.5l0,0c-0.8-0.1-1.4-0.7-1.4-1.5H80.4z M69.4,132.7c0-0.8,0.7-1.5,1.5-1.5l0,0c0.8,0,1.5,0.7,1.5,1.5l0,0
	c0,0.8-0.7,1.5-1.5,1.5l0,0c-0.8-0.1-1.4-0.7-1.4-1.5H69.4z M58.4,132.7c0-0.8,0.7-1.5,1.5-1.5l0,0c0.8,0,1.5,0.7,1.5,1.5
	c0,0,0,0,0,0l0,0c0,0.8-0.6,1.4-1.4,1.5l0,0c-0.8,0-1.5-0.7-1.5-1.5H58.4z M47.4,132.7c0-0.8,0.7-1.5,1.5-1.5l0,0
	c0.8,0,1.5,0.7,1.5,1.5l0,0c0,0.8-0.6,1.4-1.4,1.5l0,0c-0.8,0-1.5-0.7-1.5-1.5H47.4z M36.4,132.7c0-0.8,0.7-1.5,1.5-1.5l0,0
	c0.8,0,1.5,0.7,1.5,1.5l0,0c0,0.8-0.7,1.5-1.5,1.5l0,0c-0.8-0.1-1.3-0.7-1.3-1.5H36.4z M25.4,132.7c0-0.8,0.7-1.5,1.5-1.5l0,0
	c0.8,0,1.5,0.7,1.5,1.5l0,0c0,0.8-0.7,1.5-1.5,1.5l0,0c-0.8-0.1-1.3-0.7-1.3-1.5H25.4z M14.4,132.7c0-0.8,0.7-1.5,1.5-1.5l0,0
	c0.8,0,1.5,0.7,1.5,1.5l0,0c0,0.8-0.7,1.5-1.5,1.5l0,0c-0.8-0.1-1.3-0.7-1.3-1.5H14.4z"/>
<path class="st0" d="M235.9,134.2c-0.1,0-0.2,0-0.3,0c-0.1,0-0.2,0-0.3-0.1c-0.2-0.1-0.4-0.2-0.5-0.3c-0.3-0.3-0.4-0.7-0.4-1.1
	c0-0.1,0-0.2,0-0.3c0-0.1,0-0.2,0.1-0.3c0-0.1,0.1-0.2,0.1-0.3c0.1-0.1,0.1-0.2,0.2-0.2c0.1-0.1,0.1-0.1,0.2-0.2
	c0.2-0.1,0.3-0.2,0.5-0.2c0.5-0.1,1,0.1,1.4,0.4c0.1,0.1,0.1,0.1,0.2,0.2c0.1,0.1,0.1,0.2,0.1,0.3c0,0.1,0.1,0.2,0.1,0.3
	c0,0.1,0,0.2,0,0.3c0,0.1,0,0.2,0,0.3c0,0.1,0,0.2-0.1,0.3c0,0.1-0.1,0.2-0.1,0.3c-0.1,0.1-0.1,0.2-0.2,0.2
	C236.6,134.1,236.3,134.2,235.9,134.2z"/>
<path class="st0" d="M5.1,9.3c-0.1,0-0.2,0-0.3,0c-0.1,0-0.2,0-0.3-0.1L4.2,9C4.2,9,4.1,8.9,4,8.9C3.6,8.5,3.5,8,3.6,7.5
	c0-0.1,0-0.2,0.1-0.3c0-0.1,0.1-0.2,0.1-0.2C3.9,6.9,3.9,6.8,4,6.7c0.1-0.1,0.1-0.1,0.2-0.2c0.2-0.1,0.3-0.2,0.5-0.2
	c0.5-0.1,1,0.1,1.3,0.4C6.2,6.8,6.3,6.9,6.3,7c0.1,0.1,0.1,0.2,0.1,0.3c0,0.1,0.1,0.2,0.1,0.3c0,0.1,0,0.2,0,0.3
	c0,0.4-0.2,0.8-0.4,1.1C6,8.9,6,9,5.9,9C5.8,9.1,5.7,9.1,5.7,9.1c-0.1,0-0.2,0.1-0.3,0.1C5.3,9.3,5.2,9.3,5.1,9.3z"/>
<path class="st0" d="M27.9,7.8c0-0.8,0.7-1.5,1.5-1.5l0,0c0.8,0,1.5,0.7,1.5,1.5l0,0c0,0.8-0.7,1.5-1.5,1.5l0,0
	C28.6,9.3,27.9,8.6,27.9,7.8z M15.8,7.8c0-0.8,0.7-1.5,1.5-1.5l0,0c0.8,0,1.5,0.7,1.5,1.5l0,0c0,0.8-0.7,1.5-1.5,1.5l0,0
	C16.4,9.3,15.8,8.6,15.8,7.8z"/>
<path class="st0" d="M41.6,9.3h-0.3L41,9.2L40.8,9c-0.1-0.1-0.2-0.1-0.2-0.2c-0.1-0.1-0.1-0.1-0.2-0.2c-0.1-0.1-0.1-0.2-0.1-0.3
	c-0.1-0.3-0.1-0.6-0.1-0.9c0-0.1,0.1-0.2,0.1-0.3c0.1-0.2,0.2-0.3,0.3-0.5c0.1-0.1,0.1-0.1,0.2-0.2C40.9,6.5,41,6.4,41,6.4
	c0.1,0,0.2-0.1,0.3-0.1c0.5-0.1,1,0.1,1.3,0.4C43,7,43.1,7.4,43.1,7.7c0,0.1,0,0.2,0,0.3c0,0.1,0,0.2-0.1,0.3c0,0.1-0.1,0.2-0.1,0.3
	c-0.1,0.1-0.1,0.2-0.2,0.2c-0.1,0.1-0.1,0.1-0.2,0.2l-0.3,0.1l-0.3,0.1C41.8,9.3,41.7,9.3,41.6,9.3z"/>
<path class="st0" d="M200.8,9.3h-0.3c-0.1,0-0.2-0.1-0.3-0.1c-0.2-0.1-0.3-0.2-0.5-0.3c-0.1-0.1-0.1-0.1-0.2-0.2
	c-0.1-0.1-0.1-0.2-0.1-0.3c0-0.1-0.1-0.2-0.1-0.3c0-0.1,0-0.2,0-0.3s0-0.2,0-0.3c0-0.1,0-0.2,0.1-0.3c0-0.1,0.1-0.2,0.1-0.3
	c0.1-0.1,0.1-0.2,0.2-0.2c0.4-0.3,0.9-0.5,1.4-0.4c0.1,0,0.2,0.1,0.3,0.1c0.1,0,0.2,0.1,0.3,0.1c0.1,0.1,0.2,0.1,0.2,0.2
	c0.3,0.3,0.4,0.7,0.4,1.1c0,0.4-0.2,0.8-0.4,1.1c-0.1,0.1-0.1,0.1-0.2,0.2c-0.1,0.1-0.2,0.1-0.3,0.1c-0.1,0-0.2,0.1-0.3,0.1
	L200.8,9.3z"/>
<path class="st0" d="M223.7,7.8c0-0.8,0.7-1.5,1.5-1.5l0,0c0.8,0,1.5,0.7,1.5,1.5l0,0c0,0.8-0.7,1.5-1.5,1.5l0,0
	C224.3,9.3,223.7,8.6,223.7,7.8z M211.5,7.8c0-0.8,0.7-1.5,1.5-1.5l0,0c0.8,0,1.5,0.7,1.5,1.5l0,0c0,0.8-0.7,1.5-1.5,1.5l0,0
	C212.2,9.3,211.5,8.6,211.5,7.8L211.5,7.8z"/>
<path class="st0" d="M237.4,9.3c-0.4,0-0.8-0.2-1.1-0.4c-0.1-0.1-0.1-0.1-0.2-0.2c-0.1-0.1-0.1-0.2-0.1-0.3c0-0.1-0.1-0.2-0.1-0.3
	c0-0.1,0-0.2,0-0.3c0-0.4,0.2-0.8,0.4-1.1c0.4-0.4,0.9-0.5,1.4-0.4c0.1,0,0.2,0.1,0.3,0.1c0.1,0,0.2,0.1,0.3,0.1
	c0.1,0,0.2,0.1,0.2,0.2c0.1,0.1,0.1,0.1,0.2,0.2c0.1,0.1,0.1,0.2,0.1,0.3c0.1,0.2,0.1,0.4,0.1,0.6c0,0.4-0.2,0.7-0.4,1
	c-0.1,0.1-0.1,0.1-0.2,0.2l-0.3,0.1c-0.1,0-0.2,0.1-0.3,0.1L237.4,9.3z"/>
<path class="st1" d="M61.8,9.6H62c0.2,0,0.4,0.1,0.6,0.2c0.1,0.1,0.2,0.3,0.2,0.6c0,0.2-0.1,0.4-0.2,0.6c-0.2,0.1-0.4,0.2-0.7,0.2
	h-2.1c-0.2,0-0.5,0-0.7-0.2c-0.1-0.2-0.2-0.4-0.2-0.6c0-0.2,0.1-0.4,0.2-0.6c0.2-0.1,0.4-0.2,0.7-0.2H60l-0.3-0.8h-3l-0.3,0.8h0.2
	c0.2,0,0.5,0,0.7,0.2c0.1,0.1,0.2,0.4,0.2,0.6c0,0.2-0.1,0.4-0.2,0.6c-0.2,0.1-0.4,0.2-0.7,0.2H55c-0.2,0-0.5,0-0.7-0.2
	c-0.1-0.2-0.2-0.4-0.2-0.6c0-0.2,0.1-0.4,0.2-0.6c0.2-0.1,0.4-0.2,0.6-0.2H55l1.8-5.1h-0.5c-0.2,0-0.5,0-0.7-0.2
	c-0.1-0.2-0.2-0.4-0.2-0.6c0-0.2,0.1-0.4,0.2-0.6C55.8,3,56,2.9,56.3,3h2.6c0.4,0,0.8,0.3,0.8,0.7l0,0L61.8,9.6z M58.3,4.5l-1,2.9h2
	L58.3,4.5z"/>
<path class="st1" d="M70,8.1v1.4h0.7c0.2,0,0.4,0,0.6,0.2c0.1,0.2,0.2,0.4,0.2,0.6c0,0.2,0,0.4-0.2,0.6c-0.2,0.1-0.4,0.2-0.6,0.2
	h-2.4c-0.2,0-0.5,0-0.7-0.2c-0.1-0.2-0.2-0.4-0.2-0.6c0-0.2,0-0.4,0.2-0.6c0.1-0.1,0.3-0.2,0.5-0.2h0.1V4.5h-0.1
	c-0.2,0-0.4-0.1-0.5-0.2c-0.1-0.2-0.2-0.4-0.2-0.6c0-0.2,0.1-0.4,0.2-0.6C67.9,3,68.1,2.9,68.3,3h2.8c0.9-0.1,1.8,0.2,2.5,0.6
	c0.6,0.4,0.9,1.2,0.9,1.9c0.1,0.8-0.3,1.5-0.8,2C72.9,8,72,8.2,71.1,8.2L70,8.1z M70,4.4v2.2h1c0.4,0,0.8-0.1,1.2-0.3
	c0.3-0.2,0.4-0.5,0.4-0.8c0-0.3-0.1-0.6-0.4-0.8c-0.4-0.2-0.8-0.3-1.2-0.3L70,4.4z"/>
<path class="st1" d="M82.5,8.1v1.4h0.7c0.2,0,0.4,0,0.6,0.2c0.1,0.2,0.2,0.4,0.2,0.6c0,0.2,0,0.4-0.2,0.6c-0.2,0.1-0.4,0.2-0.6,0.2
	h-2.4c-0.2,0-0.5,0-0.7-0.2c-0.1-0.2-0.2-0.4-0.2-0.6c0-0.2,0-0.4,0.2-0.6c0.1-0.1,0.3-0.2,0.5-0.2h0.1V4.5h-0.1
	c-0.2,0-0.4-0.1-0.5-0.2C80.1,4.1,80,3.9,80,3.7c0-0.2,0.1-0.4,0.2-0.6c0.2-0.1,0.4-0.2,0.6-0.2h2.8c0.9-0.1,1.8,0.2,2.5,0.6
	C86.8,4,87.1,4.7,87,5.5c0.1,0.8-0.3,1.5-0.8,2c-0.7,0.5-1.6,0.7-2.5,0.7H82.5z M82.5,4.4v2.2h1c0.4,0,0.8-0.1,1.2-0.3
	c0.3-0.2,0.4-0.5,0.4-0.8c0-0.3-0.1-0.6-0.4-0.8c-0.4-0.2-0.8-0.3-1.2-0.3L82.5,4.4z"/>
<path class="st1" d="M95.2,4.5v5.1h3.1V8.3c0-0.2,0-0.5,0.2-0.7c0.1-0.1,0.4-0.2,0.6-0.2c0.2,0,0.4,0.1,0.6,0.2
	c0.1,0.2,0.2,0.4,0.2,0.7v2.1c0,0.2,0,0.4-0.1,0.5c-0.2,0.1-0.4,0.1-0.6,0.1h-6.2c-0.2,0-0.5,0-0.6-0.2c-0.1-0.2-0.2-0.4-0.2-0.6
	c0-0.2,0-0.4,0.2-0.6c0.2-0.1,0.4-0.2,0.6-0.2h0.6V4.5h-0.6c-0.2,0-0.5,0-0.6-0.2c-0.1-0.2-0.2-0.4-0.2-0.6c0-0.2,0.1-0.4,0.2-0.6
	C92.5,3,92.7,2.9,92.9,3h2.9c0.2,0,0.5,0,0.6,0.2c0.1,0.2,0.2,0.4,0.2,0.6c0,0.2-0.1,0.4-0.2,0.6c-0.2,0.1-0.4,0.2-0.6,0.2H95.2z"/>
<path class="st1" d="M109.4,4.5v5.1h1.2c0.2,0,0.5,0,0.7,0.2c0.1,0.1,0.2,0.4,0.2,0.6c0,0.2-0.1,0.4-0.2,0.6
	c-0.2,0.1-0.4,0.2-0.7,0.2h-4.1c-0.2,0-0.5,0-0.7-0.2c-0.1-0.2-0.2-0.4-0.2-0.6c0-0.2,0.1-0.4,0.2-0.6c0.2-0.1,0.4-0.2,0.7-0.2h1.2
	V4.5h-1.2c-0.2,0-0.5,0-0.7-0.2c-0.1-0.2-0.2-0.4-0.2-0.6c0-0.2,0.1-0.4,0.2-0.6c0.2-0.1,0.4-0.2,0.7-0.2h4.1c0.2,0,0.5,0,0.7,0.2
	c0.1,0.2,0.2,0.4,0.2,0.6c0,0.2-0.1,0.4-0.2,0.6c-0.2,0.1-0.4,0.2-0.7,0.2H109.4z"/>
<path class="st1" d="M123.2,3.2c0.1-0.1,0.2-0.3,0.3-0.3c0.1-0.1,0.2-0.1,0.4-0.1c0.2,0,0.3,0.1,0.5,0.2c0.1,0.2,0.2,0.4,0.1,0.6
	v1.8c0,0.2,0,0.4-0.2,0.6c-0.2,0.1-0.4,0.2-0.6,0.2c-0.2,0-0.3,0-0.4-0.1c-0.1-0.1-0.2-0.3-0.3-0.5c-0.1-0.4-0.3-0.7-0.6-0.9
	c-0.3-0.2-0.7-0.3-1.1-0.3c-0.6,0-1.2,0.2-1.6,0.7c-0.4,0.6-0.6,1.4-0.5,2.1c0,0.7,0.2,1.4,0.6,2c0.4,0.5,1,0.8,1.6,0.7
	c0.6,0,1.1-0.2,1.6-0.4c0.3-0.2,0.7-0.4,1.1-0.5c0.2,0,0.3,0.1,0.4,0.2c0.1,0.2,0.2,0.4,0.2,0.6c0,0.4-0.4,0.8-1.1,1.1
	c-0.7,0.4-1.6,0.5-2.4,0.5c-1.1,0-2.1-0.4-2.9-1.2c-0.8-0.8-1.1-1.9-1.1-3.1c0-1.1,0.4-2.2,1.1-3.1c0.7-0.8,1.8-1.2,2.8-1.2
	c0.3,0,0.7,0,1,0.1C122.6,2.9,122.9,3,123.2,3.2z"/>
<path class="st1" d="M137,9.6h0.1c0.2,0,0.4,0.1,0.6,0.2c0.1,0.1,0.2,0.3,0.2,0.6c0,0.2-0.1,0.4-0.2,0.6c-0.2,0.1-0.4,0.2-0.7,0.2
	h-2c-0.2,0-0.5,0-0.7-0.2c-0.1-0.2-0.2-0.4-0.2-0.6c0-0.2,0.1-0.4,0.2-0.6c0.2-0.1,0.4-0.2,0.7-0.2h0.2L135,8.8h-3l-0.3,0.8h0.2
	c0.2,0,0.5,0,0.7,0.2c0.1,0.1,0.2,0.4,0.2,0.6c0,0.2-0.1,0.4-0.2,0.6c-0.2,0.1-0.4,0.2-0.7,0.2h-1.8c-0.2,0-0.5,0-0.7-0.2
	c-0.1-0.2-0.2-0.4-0.2-0.6c0-0.2,0.1-0.4,0.2-0.6c0.2-0.1,0.4-0.2,0.6-0.2h0.1l1.8-5.1h-0.6c-0.2,0-0.5,0-0.7-0.2
	c-0.1-0.2-0.2-0.4-0.2-0.6c0-0.2,0.1-0.4,0.2-0.6c0.2-0.1,0.4-0.2,0.7-0.2h2.6c0.4,0,0.8,0.3,0.9,0.7l0,0L137,9.6z M133.4,4.5
	l-1,2.9h2L133.4,4.5z"/>
<path class="st1" d="M148.4,4.4H147v5.1h1.1c0.2,0,0.5,0,0.7,0.2c0.1,0.2,0.2,0.4,0.2,0.6c0,0.2-0.1,0.4-0.2,0.6
	c-0.2,0.1-0.4,0.2-0.7,0.2h-4.1c-0.2,0-0.5,0-0.6-0.2c-0.1-0.2-0.2-0.4-0.2-0.6c0-0.2,0-0.4,0.2-0.6c0.2-0.1,0.4-0.2,0.6-0.2h1.1
	V4.4h-1.4v1.4V6c0,0.2-0.1,0.4-0.2,0.5c-0.1,0.1-0.3,0.2-0.5,0.2c-0.2,0-0.4-0.1-0.6-0.2c-0.1-0.2-0.2-0.4-0.2-0.6V5.8l0.1-2
	c0-0.4,0.1-0.7,0.2-0.7C142.8,3,143,3,143.2,3h5.8c0.2,0,0.4,0,0.6,0.1c0.1,0.1,0.2,0.3,0.2,0.7l0.1,2v0.1c0,0.2,0,0.4-0.2,0.6
	c-0.1,0.1-0.3,0.2-0.6,0.2c-0.2,0-0.4-0.1-0.5-0.2c-0.1-0.2-0.2-0.4-0.2-0.7L148.4,4.4z"/>
<path class="st1" d="M159.5,4.5v5.1h1.1c0.2,0,0.5,0,0.7,0.2c0.1,0.1,0.2,0.4,0.2,0.6c0,0.2-0.1,0.4-0.2,0.6
	c-0.2,0.1-0.4,0.2-0.7,0.2h-4.1c-0.2,0-0.5,0-0.7-0.2c-0.1-0.2-0.2-0.4-0.2-0.6c0-0.2,0.1-0.4,0.2-0.6c0.2-0.1,0.4-0.2,0.7-0.2h1.1
	V4.5h-1.1c-0.2,0-0.5,0-0.7-0.2c-0.1-0.2-0.2-0.4-0.2-0.6c0-0.2,0.1-0.4,0.2-0.6c0.2-0.1,0.4-0.2,0.7-0.2h4.1c0.2,0,0.5,0,0.7,0.2
	c0.1,0.2,0.2,0.4,0.2,0.6c0,0.2-0.1,0.4-0.2,0.6c-0.2,0.1-0.4,0.2-0.7,0.2H159.5z"/>
<path class="st1" d="M171.2,2.7c1.1,0,2.1,0.4,2.8,1.2c0.7,0.9,1.1,2,1.1,3.1c0,1.1-0.3,2.2-1.1,3.1c-1.4,1.5-3.8,1.6-5.4,0.2
	c-0.1-0.1-0.1-0.1-0.2-0.2c-0.7-0.9-1.1-2-1.1-3.1c0-1.1,0.3-2.2,1.1-3.1C169.1,3.1,170.1,2.7,171.2,2.7z M171.2,4.3
	c-0.6,0-1.1,0.3-1.4,0.7c-0.4,0.6-0.5,1.3-0.5,2c0,0.7,0.1,1.4,0.5,2c0.5,0.8,1.6,0.9,2.4,0.4c0.2-0.1,0.3-0.2,0.4-0.4
	c0.4-0.6,0.6-1.3,0.5-2c0-0.7-0.1-1.4-0.5-2C172.3,4.6,171.7,4.3,171.2,4.3z"/>
<path class="st1" d="M185.3,8.2V4.5h-0.4c-0.2,0-0.5,0-0.6-0.2c-0.1-0.2-0.2-0.4-0.2-0.6c0-0.2,0.1-0.4,0.2-0.6
	c0.2-0.1,0.4-0.2,0.6-0.2h1.9c0.2,0,0.5,0,0.6,0.2c0.1,0.2,0.2,0.4,0.2,0.6c0,0.2-0.1,0.4-0.2,0.6c-0.1,0.1-0.3,0.2-0.5,0.2h-0.1
	v6.2c0,0.1,0,0.3-0.1,0.4c-0.1,0.1-0.2,0.1-0.3,0.1h-0.7c-0.2,0-0.3,0-0.5-0.1c-0.1-0.1-0.2-0.1-0.2-0.2l-2.8-5v3.7h0.4
	c0.2,0,0.5,0,0.6,0.2c0.1,0.2,0.2,0.4,0.2,0.6c0,0.2-0.1,0.4-0.2,0.6c-0.2,0.1-0.4,0.2-0.6,0.2h-2c-0.2,0-0.5,0-0.6-0.2
	c-0.1-0.2-0.2-0.4-0.2-0.6c0-0.2,0-0.4,0.2-0.6c0.1-0.1,0.3-0.2,0.6-0.2h0.1V4.5h-0.1c-0.2,0-0.4-0.1-0.5-0.2
	c-0.1-0.2-0.2-0.4-0.2-0.6c0-0.2,0.1-0.4,0.2-0.6c0.2-0.1,0.4-0.2,0.6-0.2h1.1c0.2,0,0.4,0,0.6,0.1c0.1,0.1,0.2,0.3,0.3,0.4
	L185.3,8.2z"/>
<g>
	<g>
		<path class="st0" d="M239.5,96.3c-3.2,0-4.9-1.7-6-2.8c-0.9-0.9-1.2-1.1-1.8-1.1c-0.7,0-0.9,0.2-1.8,1.1c-1.1,1.1-2.8,2.8-6,2.8
			c-3.2,0-4.9-1.7-6-2.8c-0.9-0.9-1.2-1.1-1.8-1.1c-0.7,0-0.9,0.2-1.8,1.1c-1.1,1.1-2.8,2.8-6,2.8c-3.2,0-4.9-1.7-6-2.8
			c-0.9-0.9-1.2-1.1-1.8-1.1c-0.7,0-0.9,0.2-1.8,1.1c-1.1,1.1-2.8,2.8-6,2.8v-5.9c0.7,0,0.9-0.2,1.8-1.1c1.1-1.1,2.8-2.8,6-2.8
			c3.2,0,4.9,1.7,6,2.8c0.9,0.9,1.2,1.1,1.8,1.1c0.7,0,0.9-0.2,1.8-1.1c1.1-1.1,2.8-2.8,6-2.8c3.2,0,4.9,1.7,6,2.8
			c0.9,0.9,1.2,1.1,1.8,1.1s0.9-0.2,1.8-1.1c1.1-1.1,2.8-2.8,6-2.8s4.9,1.7,6,2.8c0.9,0.9,1.2,1.1,1.8,1.1V96.3z"/>
		<path class="st0" d="M239.5,110.9c-3.2,0-4.9-1.7-6-2.8c-0.9-0.9-1.2-1.1-1.8-1.1c-0.7,0-0.9,0.2-1.8,1.1c-1.1,1.1-2.8,2.8-6,2.8
			c-3.2,0-4.9-1.7-6-2.8c-0.9-0.9-1.2-1.1-1.8-1.1c-0.7,0-0.9,0.2-1.8,1.1c-1.1,1.1-2.8,2.8-6,2.8c-3.2,0-4.9-1.7-6-2.8
			c-0.9-0.9-1.2-1.1-1.8-1.1c-0.7,0-0.9,0.2-1.8,1.1c-1.1,1.1-2.8,2.8-6,2.8V105c0.7,0,0.9-0.2,1.8-1.1c1.1-1.1,2.8-2.8,6-2.8
			c3.2,0,4.9,1.7,6,2.8c0.9,0.9,1.2,1.1,1.8,1.1c0.7,0,0.9-0.2,1.8-1.1c1.1-1.1,2.8-2.8,6-2.8c3.2,0,4.9,1.7,6,2.8
			c0.9,0.9,1.2,1.1,1.8,1.1s0.9-0.2,1.8-1.1c1.1-1.1,2.8-2.8,6-2.8s4.9,1.7,6,2.8c0.9,0.9,1.2,1.1,1.8,1.1V110.9z"/>
		<g>
			<g>
				<g>
					<g>
						<path class="st0" d="M216.6,49.9c4.7,9.1,4.8,19.3,0,24.4C211.9,69.1,211.9,59,216.6,49.9z"/>
						<path class="st0" d="M216.6,76.1l-0.9-1c-5.1-5.6-5.2-16.2-0.2-25.8l1.1-2.2l1.1,2.2c5,9.7,5,20.4-0.2,25.9L216.6,76.1z
							 M216.6,52.9c-3,7.2-3,14.8,0,19.3C219.7,67.7,219.7,60.1,216.6,52.9z"/>
					</g>
					<g>
						<path class="st0" d="M220.6,78.4c0-4.5,4.6-9.1,10.1-10.1C231,72.9,225.3,78.7,220.6,78.4z"/>
						<path class="st0" d="M221,79.7c-0.2,0-0.3,0-0.5,0l-1.2-0.1l0-1.2c0-5,5.1-10.2,11.1-11.3l1.4-0.3l0.1,1.4
							c0.2,2.5-1.1,5.5-3.6,7.9C226.2,78.4,223.4,79.7,221,79.7z M229.3,70c-3.5,1.2-6.5,4.1-7.2,7c1.5-0.3,3.1-1.3,4.5-2.7
							C228,73,228.9,71.4,229.3,70z"/>
					</g>
					<g>
						<path class="st0" d="M212.6,78.5c-3.9,0.6-9.8-5-10.2-10C207.2,68.6,212.6,73.8,212.6,78.5z"/>
						<path class="st0" d="M212,79.8c-1.7,0-3.7-0.8-5.6-2.4c-2.4-1.9-5-5.2-5.3-8.9l-0.1-1.4l1.4,0c5.6,0.1,11.5,5.9,11.5,11.3
							l0,1.1l-1.1,0.2C212.5,79.8,212.2,79.8,212,79.8z M203.9,70c0.6,1.9,2.1,4,4,5.5c1.1,0.9,2.2,1.5,3.2,1.7
							C210.4,74,207.2,70.9,203.9,70z"/>
					</g>
				</g>
			</g>
		</g>
	</g>
	<g>
		<path class="st0" d="M8,32.5v4.8h3.7v4.1H8v10.1H3.4v-23h9.4v4.1H8z"/>
		<path class="st0" d="M17.2,51.5v-23h9.3v4.1h-4.7v4.8h3.6v4.1h-3.6v6h4.9v4.1H17.2z"/>
		<path class="st0" d="M37.7,51.5l-1.6-9.8h-0.4v9.8h-4.5v-23h5.6c2.9,0,5.3,1.7,5.3,6.5c0,2.5-0.7,4.3-1.9,5.4l2.1,11.1H37.7z
			 M36.1,32h-0.5v6.2h0.4c1.1,0,1.4-0.9,1.4-3.1C37.5,32.8,37.2,32,36.1,32z"/>
		<path class="st0" d="M53.4,32.5v19h-4.6v-19h-2.9v-4.1h10.4v4.1H53.4z"/>
		<path class="st0" d="M60.5,51.5v-23h4.6v23H60.5z"/>
		<path class="st0" d="M70,51.5v-23h4.6v19h4.1v4.1H70z"/>
		<path class="st0" d="M83.1,51.5v-23h4.6v23H83.1z"/>
		<path class="st0" d="M92.2,51.5v-3.8l3.2-10.3c0.5-1.6,1.3-4.1,1.7-5.1c-0.7,0-1.6,0-2.6,0h-2.1v-4h9.4v3.8l-3.2,10.2
			c-0.5,1.7-1.3,4.1-1.7,5.1c0.7,0,1.5,0,2.5,0h2.4v4H92.2z"/>
		<path class="st0" d="M113,51.5l-0.5-4.5h-2.2l-0.4,4.5h-4.5l3.6-23h4.9l3.5,23H113z M112.1,41.6c-0.2-2.1-0.5-5.3-0.7-8
			c-0.1,2.6-0.4,5.9-0.6,8l-0.1,1.5h1.5L112.1,41.6z"/>
		<path class="st0" d="M128.3,32.5v19h-4.6v-19h-2.9v-4.1h10.4v4.1H128.3z"/>
		<path class="st0" d="M135.3,51.5v-23h4.6v23H135.3z"/>
		<path class="st0" d="M150.3,51.9c-4.1,0-5.8-3.3-5.8-11.9c0-8.6,1.8-11.9,5.9-11.9c4.1,0,5.8,3.3,5.8,11.9
			C156.2,48.5,154.4,51.9,150.3,51.9z M150.3,32c-0.9,0-1.1,1-1.1,7.9c0,7,0.2,8,1.1,8c0.9,0,1.1-1,1.1-7.9
			C151.5,33,151.2,32,150.3,32z"/>
		<path class="st0" d="M168.4,51.5l-1.6-5.3c-0.8-2.6-1.6-5.7-2-7.2c0.1,1.6,0.1,4.4,0.1,6.9v5.7h-4.2v-23h4l1.1,3.4
			c0.9,2.6,1.8,5.9,2.2,7.5c-0.1-1.5-0.2-4.8-0.2-7.2v-3.7h4.2v23H168.4z"/>
		<path class="st0" d="M7.6,110.5l-0.3-2.9H5.9l-0.3,2.9H2.8l2.3-14.8h3.1l2.3,14.8H7.6z M7,104.2c-0.1-1.3-0.3-3.4-0.4-5.1
			c-0.1,1.7-0.3,3.8-0.4,5.2l-0.1,1h1L7,104.2z"/>
		<path class="st0" d="M16.6,110.8c-2.6,0-3.7-2-3.7-7.6c0-5.5,1.1-7.7,3.8-7.7c2.6,0,3.3,2,3.5,4.9l-2.9,0.4
			c-0.1-2.1-0.1-2.8-0.6-2.8c-0.6,0-0.7,0.7-0.7,5.1c0,4.6,0.1,5.2,0.7,5.2c0.4,0,0.5-0.4,0.6-2.8l2.8,0.4
			C19.8,109.3,19,110.8,16.6,110.8z"/>
		<path class="st0" d="M27.4,98.3v12.2h-3V98.3h-1.9v-2.6h6.7v2.6H27.4z"/>
		<path class="st0" d="M32,110.5V95.7h3v14.8H32z"/>
		<path class="st0" d="M42.9,110.5h-2.9l-2.3-14.8h2.9l0.5,4.7c0.2,2,0.3,4.6,0.4,6.2c0.1-1.6,0.2-4.2,0.4-6.2l0.4-4.7h2.9
			L42.9,110.5z"/>
		<path class="st0" d="M47.8,110.5V95.7h6v2.6h-3.1v3.1h2.3v2.6h-2.3v3.9h3.2v2.6H47.8z"/>
		<path class="st0" d="M72.7,110.5V104h-1.4v6.6h-3V95.7h3v5.7h1.4v-5.7h3v14.8H72.7z"/>
		<path class="st0" d="M83.6,104.6v6h-3v-5.9l-2.5-9h3.1l0.3,1.7c0.3,1.7,0.6,3.3,0.6,4.7c0.1-1.4,0.3-3,0.6-4.7l0.3-1.7h3
			L83.6,104.6z"/>
		<path class="st0" d="M91.7,110.5h-3.2V95.7H92c3,0,3.8,2.7,3.8,7.3C95.8,108.1,94.5,110.5,91.7,110.5z M91.7,98.1h-0.3v10.1h0.2
			c0.7,0,1.1-0.6,1.1-5.1C92.7,98.6,92.5,98.1,91.7,98.1z"/>
		<path class="st0" d="M102.9,110.5l-1-6.3h-0.3v6.3h-2.9V95.7h3.6c1.9,0,3.4,1.1,3.4,4.2c0,1.6-0.4,2.8-1.2,3.5l1.4,7.2H102.9z
			 M101.9,98h-0.3v4h0.3c0.7,0,0.9-0.6,0.9-2C102.8,98.5,102.6,98,101.9,98z"/>
		<path class="st0" d="M112.2,110.8c-2.6,0-3.7-2.1-3.7-7.6c0-5.5,1.1-7.7,3.8-7.7c2.6,0,3.8,2.1,3.8,7.6
			C116,108.6,114.9,110.8,112.2,110.8z M112.2,98c-0.6,0-0.7,0.6-0.7,5.1c0,4.5,0.1,5.2,0.7,5.2c0.6,0,0.7-0.6,0.7-5.1
			C113,98.6,112.8,98,112.2,98z"/>
		<path class="st0" d="M122.3,104.6h-0.5v5.9h-2.9V95.7h3.6c1.8,0,3.4,1.1,3.4,4.3C126,103.3,124.4,104.6,122.3,104.6z M122.1,98
			h-0.3v4.3h0.3c0.7,0,0.9-0.6,0.9-2.2C123,98.5,122.8,98,122.1,98z"/>
		<path class="st0" d="M132.2,110.8c-2.6,0-3.7-2.1-3.7-7.6c0-5.5,1.1-7.7,3.8-7.7c2.6,0,3.8,2.1,3.8,7.6
			C136,108.6,134.8,110.8,132.2,110.8z M132.2,98c-0.6,0-0.7,0.6-0.7,5.1c0,4.5,0.1,5.2,0.7,5.2c0.6,0,0.7-0.6,0.7-5.1
			C132.9,98.6,132.8,98,132.2,98z"/>
		<path class="st0" d="M143.9,110.5l-1.1-3.4c-0.5-1.7-1.1-3.6-1.3-4.7c0,1,0.1,2.8,0.1,4.4v3.6h-2.7V95.7h2.6l0.7,2.2
			c0.6,1.7,1.2,3.8,1.4,4.8c-0.1-1-0.1-3.1-0.1-4.6v-2.4h2.7v14.8H143.9z"/>
		<path class="st0" d="M149.3,110.5V95.7h3v14.8H149.3z"/>
		<path class="st0" d="M159,110.8c-2.6,0-3.7-2-3.7-7.6c0-5.5,1.1-7.7,3.8-7.7c2.6,0,3.3,2,3.5,4.9l-2.9,0.4
			c-0.1-2.1-0.1-2.8-0.6-2.8c-0.6,0-0.7,0.7-0.7,5.1c0,4.6,0.1,5.2,0.7,5.2c0.4,0,0.5-0.4,0.6-2.8l2.8,0.4
			C162.2,109.3,161.3,110.8,159,110.8z"/>
		<path class="st0" d="M168.6,110.8c-2.5,0-3.3-1.7-3.5-4.2l2.8-0.5c0.1,2,0.3,2.4,0.7,2.4c0.5,0,0.6-0.3,0.6-1.3
			c0-1.4-0.4-2-1.6-3.1c-1.9-1.6-2.5-2.9-2.5-4.6c0-2.4,1.1-4,3.3-4c2.2,0,3.2,1.4,3.4,3.8l-2.7,0.6c-0.1-1.7-0.3-2-0.7-2
			c-0.4,0-0.6,0.3-0.6,1.2c0,1,0.3,1.5,1.5,2.5c2,1.7,2.6,3,2.6,5.2C172.1,109.2,170.8,110.8,168.6,110.8z"/>
	</g>
	<rect x="137.8" y="81.5" class="st0" width="33.4" height="3.5"/>
	<path class="st0" d="M9.5,86.1c-4.6,0-6.1-3.1-6.5-7.8l5.2-1c0.3,3.6,0.6,4.4,1.3,4.4c0.9,0,1.1-0.6,1.1-2.4c0-2.6-0.7-3.7-2.9-5.7
		c-3.6-2.9-4.6-5.3-4.6-8.4c0-4.4,2.1-7.3,6.2-7.3c4.2,0,5.8,2.5,6.4,7.1l-5.1,1c-0.2-3.2-0.6-3.7-1.3-3.7c-0.8,0-1.1,0.6-1.1,2.2
		c0,1.9,0.5,2.8,2.7,4.7c3.8,3.1,4.9,5.5,4.9,9.7C15.9,83.2,13.6,86.1,9.5,86.1z"/>
	<path class="st0" d="M30,74.6v11h-5.5V74.8l-4.6-16.6h5.7l0.5,3.1c0.5,3.2,1,6.2,1.1,8.7c0.1-2.6,0.6-5.5,1.1-8.7l0.5-3.1h5.6
		L30,74.6z"/>
	<path class="st0" d="M45,86.1c-4.6,0-6.1-3.1-6.5-7.8l5.2-1c0.3,3.6,0.6,4.4,1.3,4.4c0.9,0,1.1-0.6,1.1-2.4c0-2.6-0.7-3.7-2.9-5.7
		c-3.6-2.9-4.6-5.3-4.6-8.4c0-4.4,2.1-7.3,6.2-7.3c4.2,0,5.8,2.5,6.4,7.1l-5.1,1c-0.2-3.2-0.6-3.7-1.3-3.7c-0.8,0-1.1,0.6-1.1,2.2
		c0,1.9,0.5,2.8,2.7,4.7c3.8,3.1,4.9,5.5,4.9,9.7C51.4,83.2,49.2,86.1,45,86.1z"/>
	<path class="st0" d="M64.6,63v22.6h-5.5V63h-3.5v-4.9h12.4V63H64.6z"/>
	<path class="st0" d="M73,85.6V58.2h11.1V63h-5.7v5.7h4.3v4.9h-4.3v7.2h5.9v4.9H73z"/>
	<path class="st0" d="M101.2,85.6V80c0-3.2,0.1-6,0.2-8.6c-0.4,2.2-1.3,5.8-2,8.8l-1.6,6.2l-1.6-6.2c-0.7-2.9-1.6-6.6-2-8.8
		c0.1,2.4,0.2,5.4,0.2,8.6v5.7h-4.8V58.2h4.9l1.5,6.2c0.7,3.1,1.5,6.3,1.8,8.6c0.3-2.3,1.1-5.7,1.8-8.7l1.4-6.1h4.9v27.5H101.2z"/>
	<path class="st0" d="M117.5,86.1c-4.6,0-6.1-3.1-6.5-7.8l5.2-1c0.3,3.6,0.6,4.4,1.3,4.4c0.9,0,1.1-0.6,1.1-2.4
		c0-2.6-0.7-3.7-2.9-5.7c-3.6-2.9-4.6-5.3-4.6-8.4c0-4.4,2.1-7.3,6.2-7.3c4.2,0,5.8,2.5,6.4,7.1l-5.1,1c-0.2-3.2-0.6-3.7-1.3-3.7
		c-0.8,0-1.1,0.6-1.1,2.2c0,1.9,0.5,2.8,2.7,4.7c3.8,3.1,4.9,5.5,4.9,9.7C124,83.2,121.7,86.1,117.5,86.1z"/>
	<path class="st0" d="M144.2,75.9l-0.4-3.5h-1.7l-0.3,3.5h-3.5l2.8-17.9h3.8l2.7,17.9H144.2z M143.5,68.2c-0.1-1.6-0.4-4.1-0.5-6.2
		c-0.1,2-0.3,4.6-0.5,6.2l-0.1,1.1h1.2L143.5,68.2z"/>
	<path class="st0" d="M156.8,75.9l-1.3-4.1c-0.6-2-1.3-4.4-1.5-5.6c0.1,1.2,0.1,3.4,0.1,5.3v4.4h-3.3V58h3.1l0.9,2.6
		c0.7,2,1.4,4.6,1.7,5.8c-0.1-1.2-0.2-3.8-0.2-5.6V58h3.3v17.9H156.8z"/>
	<path class="st0" d="M167.1,75.9h-3.8V58h4.1c3.6,0,4.6,3.3,4.6,8.8C172,73,170.5,75.9,167.1,75.9z M167.1,60.9h-0.3v12.2h0.3
		c0.9,0,1.3-0.7,1.3-6.2C168.4,61.5,168,60.9,167.1,60.9z"/>
	<g>
		<text transform="matrix(1 0 0 1 199.8838 48.5645)" class="st0 st2 st3 st4">+</text>
		<text transform="matrix(1 0 0 1 220.0752 48.5645)" class="st0 st2 st3 st4">+</text>
		<text transform="matrix(1 0 0 1 209.9805 37.9229)" class="st0 st2 st3 st4">+</text>
	</g>
</g>
</svg>
