<svg id="Artwork" xmlns="http://www.w3.org/2000/svg" viewBox="0 0 241.66 219.2"><defs><style>.cls-1{fill:#231f20;}.cls-2{fill:#fff;}</style></defs><title>application-all</title><path class="cls-1" d="M9.58,170.2v-9.29H7.65v9.29H3.44v-21H7.65v8H9.58v-8h4.21v21Z"/><path class="cls-1" d="M24.31,170.2l-.42-4.09h-2l-.39,4.09H17.42l3.25-21h4.45l3.22,21Zm-.87-9.05c-.15-1.89-.45-4.87-.6-7.28-.12,2.41-.39,5.38-.57,7.31l-.12,1.35h1.41Z"/><path class="cls-1" d="M39.07,170.2l-1.5-4.84c-.72-2.38-1.5-5.17-1.81-6.62.06,1.44.12,4,.12,6.29v5.17H32v-21h3.64l1,3.1c.78,2.37,1.68,5.41,2,6.86-.09-1.38-.18-4.42-.18-6.56v-3.4h3.85v21Z"/><path class="cls-1" d="M51.3,170.2H46.82v-21h4.84c4.24,0,5.41,3.85,5.41,10.37C57.07,166.74,55.27,170.2,51.3,170.2Zm0-17.68h-.36v14.34h.3c1.05,0,1.5-.84,1.5-7.28S52.35,152.52,51.3,152.52Z"/><path class="cls-1" d="M61.13,161.12v-3.85h6v3.85Z"/><path class="cls-1" d="M83.38,170.2H79.47L79,166.47c-.36-3.13-.69-6.23-.81-8.36-.12,2.13-.42,5.2-.78,8.33L77,170.2H73.09l-2.26-21h3.82l.33,4.18c.18,2.28.36,5.47.45,8.24.18-2.77.51-6,.72-8.24l.39-4.18h3.37l.42,4.18c.24,2.25.54,5.47.72,8.24.09-2.77.3-6,.45-8.24l.3-4.18h3.85Z"/><path class="cls-1" d="M95.55,170.2l-.42-4.09h-2l-.39,4.09H88.66l3.25-21h4.45l3.22,21Zm-.87-9.05c-.15-1.89-.45-4.87-.6-7.28-.12,2.41-.39,5.38-.57,7.31l-.12,1.35H94.8Z"/><path class="cls-1" d="M109.47,152.88V170.2h-4.21V152.88h-2.65v-3.73h9.53v3.73Z"/><path class="cls-1" d="M115.9,170.2v-21h8.54v3.73h-4.33v4.36h3.31V161h-3.31v5.5h4.51v3.73Z"/><path class="cls-1" d="M134.6,170.2l-1.47-9h-.36v9h-4.12v-21h5.14c2.65,0,4.84,1.59,4.84,6,0,2.32-.63,3.94-1.74,4.93l1.92,10.16Zm-1.41-17.8h-.42v5.68h.36c1,0,1.29-.81,1.29-2.83C134.42,153.09,134.15,152.4,133.18,152.4Z"/><path class="cls-1" d="M142.8,170.2v-21h8.54v3.73H147v4.36h3.31V161H147v5.5h4.51v3.73Z"/><path class="cls-1" d="M160,170.2h-4.48v-21h4.84c4.24,0,5.41,3.85,5.41,10.37C165.8,166.74,164,170.2,160,170.2Zm0-17.68h-.36v14.34h.3c1.05,0,1.5-.84,1.5-7.28S161.08,152.52,160,152.52Z"/><path class="cls-1" d="M7.58,197.78c-3.08,0-4.37-2.48-4.37-8.95s1.34-9,4.42-9,4.4,2.51,4.4,8.94S10.68,197.78,7.58,197.78Zm0-15c-.67,0-.82.72-.82,6s.17,6,.82,6,.84-.72.84-6S8.27,182.8,7.6,182.8Z"/><path class="cls-1" d="M20.37,197.51l-1.22-7.43h-.3v7.43h-3.4V180.11H19.7c2.19,0,4,1.32,4,4.92a5.22,5.22,0,0,1-1.44,4.08l1.59,8.4ZM19.2,182.8h-.35v4.7h.3c.82,0,1.07-.67,1.07-2.34S20,182.8,19.2,182.8Z"/><path class="cls-1" d="M31.27,197.78c-3.11,0-4.37-2.61-4.37-9s1.32-9,4.45-9c2.93,0,3.8,2.19,4,5.52L32,186c-.1-2.56-.15-3.16-.7-3.16s-.82.8-.82,6,.12,6,.89,6,.8-.55.8-2.21V191.2h-.89v-2.78H35.5v3.33C35.5,195.24,34.35,197.78,31.27,197.78Z"/><path class="cls-1" d="M44.09,197.51l-.35-3.38H42.1l-.32,3.38H38.4l2.68-17.39h3.68l2.66,17.39ZM43.37,190c-.13-1.56-.37-4-.5-6-.1,2-.32,4.45-.47,6l-.1,1.12h1.17Z"/><path class="cls-1" d="M56.29,197.51l-1.24-4c-.6-2-1.24-4.27-1.49-5.47,0,1.19.1,3.33.1,5.19v4.27H50.47V180.11h3l.84,2.56c.65,2,1.39,4.47,1.66,5.67-.07-1.14-.15-3.65-.15-5.42v-2.81H59v17.39Z"/><path class="cls-1" d="M62.72,197.51V180.11H66.2v17.39Z"/><path class="cls-1" d="M74,197.78c-3,0-4.37-2.39-4.37-8.92s1.34-9,4.42-9,3.88,2.34,4.05,5.72l-3.38.5c-.1-2.51-.12-3.25-.7-3.25s-.82.82-.82,6c0,5.34.17,6.06.87,6.06.45,0,.62-.42.75-3.23l3.33.5C77.77,196.09,76.78,197.78,74,197.78Z"/><path class="cls-1" d="M92.5,197.78c-3.11,0-4.37-2.61-4.37-9s1.32-9,4.45-9c2.93,0,3.8,2.19,4,5.52l-3.38.6c-.1-2.56-.15-3.16-.7-3.16s-.82.8-.82,6,.12,6,.89,6,.8-.55.8-2.21V191.2H92.5v-2.78h4.22v3.33C96.72,195.24,95.58,197.78,92.5,197.78Z"/><path class="cls-1" d="M105.32,197.51l-.35-3.38h-1.64l-.32,3.38H99.63l2.68-17.39H106l2.66,17.39ZM104.6,190c-.13-1.56-.37-4-.5-6-.1,2-.32,4.45-.47,6l-.1,1.12h1.17Z"/><path class="cls-1" d="M116.62,197.51l-1.22-7.43h-.3v7.43h-3.4V180.11h4.25c2.19,0,4,1.32,4,4.92a5.22,5.22,0,0,1-1.44,4.08l1.59,8.4Zm-1.17-14.71h-.35v4.7h.3c.82,0,1.07-.67,1.07-2.34S116.25,182.8,115.45,182.8Z"/><path class="cls-1" d="M127.1,197.51h-3.7V180.11h4c3.5,0,4.47,3.18,4.47,8.57C131.87,194.65,130.38,197.51,127.1,197.51Zm0-14.61h-.3v11.85h.25c.87,0,1.24-.7,1.24-6S128,182.9,127.1,182.9Z"/><path class="cls-1" d="M135.3,197.51V180.11h7.06v3.08h-3.58v3.6h2.73v3.08h-2.73v4.55h3.73v3.08Z"/><path class="cls-1" d="M151.64,197.51l-1.24-4c-.6-2-1.24-4.27-1.49-5.47,0,1.19.1,3.33.1,5.19v4.27h-3.18V180.11h3l.84,2.56c.65,2,1.39,4.47,1.66,5.67-.07-1.14-.15-3.65-.15-5.42v-2.81h3.18v17.39Z"/><path class="cls-1" d="M161.73,197.78c-2.91,0-3.85-2-4.1-4.94l3.28-.62c.17,2.31.37,2.76.84,2.76s.72-.37.72-1.54c0-1.66-.45-2.34-1.84-3.6-2.26-1.84-2.88-3.35-2.88-5.34,0-2.76,1.32-4.65,3.9-4.65s3.7,1.61,4,4.5l-3.2.65c-.15-2-.37-2.34-.82-2.34s-.67.35-.67,1.42.35,1.76,1.71,3c2.39,1.94,3.11,3.5,3.11,6.11C165.8,196,164.36,197.78,161.73,197.78Z"/><polygon class="cls-1" points="220.52 195.28 193.33 196.26 195.81 189.62 220.53 190.78 220.52 195.28"/><path class="cls-1" d="M183.8,171.88l2.54,1.08,5.49-12.86a15,15,0,1,1,27.6,11.66l-3.36,7.95,2.55,1.08,3.36-7.95A17.74,17.74,0,1,0,189.29,159Z"/><path class="cls-1" d="M208.27,158.34l-28,14.82a2,2,0,0,0-.79,2.85l6.33,10.55,29.85-17.91-5.94-9.9A1.12,1.12,0,0,0,208.27,158.34Z"/><polygon class="cls-1" points="220.52 195.28 226.04 199.74 225.98 185.67 220.53 190.78 220.52 195.28"/><path class="cls-1" d="M221.65,178.57l-6-9.92-29.85,17.91,6.34,10.57a2,2,0,0,0,2.89.64l26.24-17.69A1.12,1.12,0,0,0,221.65,178.57Z"/><path class="cls-1" d="M226.35,200.51h0a.93.93,0,0,1-.93-.93l0-13.86a.93.93,0,0,1,.93-.93h0a.93.93,0,0,1,.93.93l0,13.86A.93.93,0,0,1,226.35,200.51Z"/><path class="cls-1" d="M227.18,210.69H2.49v-1.61H227.18a3.64,3.64,0,0,0,3.63-3.63v-5.29a2.71,2.71,0,0,0-2.71-2.71h-1.61v-1.61h1.61a4.33,4.33,0,0,1,4.32,4.32v5.29A5.25,5.25,0,0,1,227.18,210.69Z"/><path class="cls-1" d="M227.76,214.47H2.49v-1.61H227.76A6.85,6.85,0,0,0,234.6,206v-6.13a6.23,6.23,0,0,0-6.22-6.22h-3.87v-1.61h3.87a7.84,7.84,0,0,1,7.83,7.83V206A8.46,8.46,0,0,1,227.76,214.47Z"/><path class="cls-1" d="M228.18,218.25H2.49v-1.61H228.18a10.19,10.19,0,0,0,10.18-10.18v-6.81a9.77,9.77,0,0,0-9.76-9.76h-2.81v-1.61h2.81A11.39,11.39,0,0,1,240,199.65v6.81A11.8,11.8,0,0,1,228.18,218.25Z"/><path class="cls-1" d="M12.34,51.11l-.56-5.41H9.16l-.52,5.41H3.23l4.3-27.85h5.89l4.26,27.85Zm-1.15-12c-.2-2.51-.6-6.45-.8-9.63-.16,3.18-.52,7.12-.76,9.67L9.47,41h1.87Z"/><path class="cls-1" d="M29.25,51.55c-4.5,0-6.76-2.91-6.76-7.76V23.26h5.57V44.19c0,1.95.4,2.63,1.31,2.63s1.23-.68,1.23-2.63V23.26h5.57V43.51C36.17,48.72,34.1,51.55,29.25,51.55Z"/><path class="cls-1" d="M50.17,28.19V51.11H44.6V28.19H41.1V23.26H53.71v4.93Z"/><path class="cls-1" d="M65.29,51.55c-4.93,0-7-4-7-14.32s2.15-14.4,7.08-14.4,7,4,7,14.32S70.26,51.55,65.29,51.55Zm0-24c-1.07,0-1.31,1.15-1.31,9.59s.28,9.67,1.31,9.67,1.35-1.15,1.35-9.59S66.4,27.56,65.33,27.56Z"/><path class="cls-1" d="M89.64,51.11V45.38c0-3.22.08-6.13.2-8.67-.4,2.27-1.31,5.93-2.07,9l-1.59,6.29-1.59-6.29c-.76-3-1.63-6.68-2-9,.08,2.43.2,5.49.2,8.67v5.73H77.9V23.26h5l1.47,6.25c.72,3.1,1.47,6.41,1.79,8.75.32-2.35,1.11-5.73,1.83-8.79l1.43-6.21h5V51.11Z"/><path class="cls-1" d="M108.46,51.11l-.56-5.41h-2.63l-.52,5.41H99.34l4.3-27.85h5.89l4.26,27.85Zm-1.15-12c-.2-2.51-.6-6.45-.8-9.63-.16,3.18-.52,7.12-.76,9.67L105.59,41h1.87Z"/><path class="cls-1" d="M126.88,28.19V51.11h-5.57V28.19h-3.5V23.26h12.61v4.93Z"/><path class="cls-1" d="M135.39,51.11V23.26h11.3v4.93H141V34h4.38V38.9H141v7.28h6v4.93Z"/><path class="cls-1" d="M158.19,51.11h-5.93V23.26h6.41c5.61,0,7.16,5.09,7.16,13.73C165.83,46.54,163.44,51.11,158.19,51.11Zm0-23.39h-.48v19h.4c1.39,0,2-1.11,2-9.63S159.58,27.72,158.19,27.72Z"/><path class="cls-1" d="M8.16,58.56v4.57h3.53V67H8.16v9.68H3.74V54.65h9v3.91Z"/><path class="cls-1" d="M17,76.72V54.65h9v3.91H21.37v4.57h3.47V67H21.37v5.77H26.1v3.91Z"/><path class="cls-1" d="M36.57,76.72,35,67.29h-.38v9.43H30.33V54.65h5.39c2.78,0,5.08,1.67,5.08,6.24,0,2.43-.66,4.13-1.83,5.17l2,10.66ZM35.09,58.05h-.44v6H35c1,0,1.36-.85,1.36-3C36.38,58.78,36.1,58.05,35.09,58.05Z"/><path class="cls-1" d="M51.68,58.56V76.72H47.26V58.56H44.49V54.65h10v3.91Z"/><path class="cls-1" d="M58.46,76.72V54.65h4.42V76.72Z"/><path class="cls-1" d="M67.57,76.72V54.65H72V72.81h3.94v3.91Z"/><path class="cls-1" d="M80.09,76.72V54.65h4.42V76.72Z"/><path class="cls-1" d="M88.8,76.72v-3.6l3.06-9.84c.47-1.58,1.29-3.91,1.64-4.86-.66,0-1.51,0-2.46,0H89V54.65h9v3.6L95,68.05c-.5,1.61-1.29,3.94-1.64,4.89.69,0,1.48,0,2.43,0H98v3.82Z"/><path class="cls-1" d="M108.76,76.72l-.44-4.29h-2.08l-.41,4.29h-4.29l3.41-22.08h4.67L113,76.72Zm-.91-9.49c-.16-2-.47-5.11-.63-7.63-.13,2.52-.41,5.65-.6,7.66l-.13,1.42H108Z"/><path class="cls-1" d="M123.36,58.56V76.72h-4.42V58.56h-2.78V54.65h10v3.91Z"/><path class="cls-1" d="M130.14,76.72V54.65h4.42V76.72Z"/><path class="cls-1" d="M144.49,77.07c-3.91,0-5.55-3.15-5.55-11.35s1.7-11.42,5.61-11.42,5.58,3.19,5.58,11.35S148.43,77.07,144.49,77.07Zm0-19c-.85,0-1,.91-1,7.6s.22,7.66,1,7.66,1.07-.91,1.07-7.6S145.37,58.05,144.52,58.05Z"/><path class="cls-1" d="M161.87,76.72l-1.58-5.08c-.76-2.49-1.58-5.42-1.89-6.94.06,1.51.13,4.23.13,6.59v5.42h-4V54.65h3.82l1.07,3.25c.82,2.49,1.77,5.68,2.11,7.19-.1-1.45-.19-4.64-.19-6.88V54.65h4V76.72Z"/><path class="cls-1" d="M12.18,117.56c-6.17,0-8.17-4.22-8.7-10.5l7-1.32c.37,4.91.79,5.85,1.79,5.85,1.16,0,1.53-.79,1.53-3.27,0-3.53-.95-5-3.9-7.65-4.8-3.9-6.12-7.12-6.12-11.34,0-5.85,2.79-9.86,8.28-9.86s7.86,3.43,8.54,9.55l-6.8,1.37c-.32-4.33-.79-5-1.74-5s-1.42.74-1.42,3c0,2.58.74,3.74,3.64,6.27,5.06,4.11,6.59,7.44,6.59,13C20.83,113.71,17.77,117.56,12.18,117.56Z"/><path class="cls-1" d="M39.76,102.16V117H32.33V102.37L26.16,80.06h7.7l.74,4.22A100.85,100.85,0,0,1,36.12,96,112.58,112.58,0,0,1,37.6,84.28l.69-4.22h7.54Z"/><path class="cls-1" d="M60,117.56c-6.17,0-8.17-4.22-8.7-10.5l7-1.32c.37,4.91.79,5.85,1.79,5.85,1.16,0,1.53-.79,1.53-3.27,0-3.53-.95-5-3.9-7.65-4.8-3.9-6.12-7.12-6.12-11.34,0-5.85,2.79-9.86,8.28-9.86s7.86,3.43,8.54,9.55l-6.8,1.37c-.32-4.33-.79-5-1.74-5s-1.42.74-1.42,3c0,2.58.74,3.74,3.64,6.27,5.06,4.11,6.59,7.44,6.59,13C68.61,113.71,65.55,117.56,60,117.56Z"/><path class="cls-1" d="M86.27,86.6V117H78.89V86.6H74.25V80.06H91V86.6Z"/><path class="cls-1" d="M97.56,117V80.06h15V86.6h-7.59v7.65h5.8v6.54h-5.8v9.65h7.91V117Z"/><path class="cls-1" d="M135.48,117v-7.59c0-4.27.1-8.12.26-11.5-.53,3-1.74,7.86-2.74,11.87l-2.11,8.33-2.11-8.33c-1-4-2.16-8.86-2.69-11.87.1,3.22.26,7.28.26,11.5V117h-6.43V80.06h6.65l2,8.28c.95,4.11,2,8.49,2.37,11.6.42-3.11,1.48-7.59,2.43-11.65l1.9-8.23h6.65V117Z"/><path class="cls-1" d="M157.47,117.56c-6.17,0-8.17-4.22-8.7-10.5l7-1.32c.37,4.91.79,5.85,1.79,5.85,1.16,0,1.53-.79,1.53-3.27,0-3.53-.95-5-3.9-7.65-4.8-3.9-6.12-7.12-6.12-11.34,0-5.85,2.79-9.86,8.28-9.86s7.86,3.43,8.54,9.55L159,90.4c-.32-4.33-.79-5-1.74-5s-1.42.74-1.42,3c0,2.58.74,3.74,3.64,6.27,5.06,4.11,6.59,7.44,6.59,13C166.11,113.71,163.05,117.56,157.47,117.56Z"/><polygon class="cls-1" points="186.51 53.15 186.51 57.61 189.53 57.61 191.15 60.76 194.54 60.76 196.16 57.61 206.25 57.61 207.87 60.76 211.26 60.76 212.88 57.61 222.97 57.61 224.59 60.76 227.99 60.76 229.61 57.61 232.62 57.61 232.62 53.15 186.51 53.15"/><path class="cls-1" d="M188.76,71.43a4.09,4.09,0,0,0,8.17,0c0-2.26-4.09-7.34-4.09-7.34S188.76,69.17,188.76,71.43Z"/><path class="cls-1" d="M230.38,71.43c0-2.26-4.09-7.34-4.09-7.34s-4.09,5.08-4.09,7.34a4.09,4.09,0,0,0,8.17,0Z"/><path class="cls-1" d="M205.48,71.43a4.09,4.09,0,1,0,8.17,0c0-2.26-4.09-7.34-4.09-7.34S205.48,69.17,205.48,71.43Z"/><path class="cls-1" d="M198.1,85.18a4.09,4.09,0,1,0,8.17,0c0-2.26-4.09-7.34-4.09-7.34S198.1,82.92,198.1,85.18Z"/><path class="cls-1" d="M214.56,85.18a4.09,4.09,0,1,0,8.17,0c0-2.26-4.09-7.34-4.09-7.34S214.56,82.92,214.56,85.18Z"/><path class="cls-1" d="M186.51,104.15c3.84,0,3.84,3.82,7.68,3.82s3.84-3.82,7.68-3.82,3.84,3.82,7.68,3.82,3.84-3.82,7.68-3.82,3.84,3.82,7.69,3.82,3.84-3.82,7.69-3.82v-3.88H186.51Z"/><polygon class="cls-1" points="212.88 97.54 216.71 97.54 221.63 92.62 217.8 92.62 212.88 97.54"/><polygon class="cls-1" points="189.82 97.54 193.65 97.54 198.56 92.62 194.73 92.62 189.82 97.54"/><polygon class="cls-1" points="197.5 97.54 201.33 97.54 206.25 92.62 202.42 92.62 197.5 97.54"/><polygon class="cls-1" points="205.19 97.54 209.02 97.54 213.94 92.62 210.11 92.62 205.19 97.54"/><polygon class="cls-1" points="232.62 97.54 232.62 93.18 228.26 97.54 232.62 97.54"/><polygon class="cls-1" points="224.4 97.54 229.32 92.62 225.49 92.62 220.57 97.54 224.4 97.54"/><polygon class="cls-1" points="186.51 92.62 186.51 96.98 190.87 92.62 186.51 92.62"/><rect class="cls-1" x="194.15" y="41.54" width="14.39" height="4.45" transform="translate(157.58 245.11) rotate(-90)"/><rect class="cls-1" x="210.59" y="41.54" width="14.39" height="4.45" transform="translate(174.02 261.56) rotate(-90)"/><path class="cls-1" d="M5.07,134.23l-.29,0a1.3,1.3,0,0,1-.28-.09,1.33,1.33,0,0,1-.26-.14,1.38,1.38,0,0,1-.23-.19,1.89,1.89,0,0,1-.19-.22,1.53,1.53,0,0,1-.13-.26,1.4,1.4,0,0,1-.12-.57A1.52,1.52,0,0,1,4,131.67a1.29,1.29,0,0,1,.23-.18,1.6,1.6,0,0,1,.54-.23,1.5,1.5,0,0,1,1.35.41,2.12,2.12,0,0,1,.19.23,2.19,2.19,0,0,1,.14.26c0,.09.06.19.08.28a1.45,1.45,0,0,1,0,.59c0,.09,0,.19-.08.28s-.09.17-.14.26a2,2,0,0,1-.19.22A1.5,1.5,0,0,1,5.07,134.23Z"/><path class="cls-1" d="M223.39,132.74a1.51,1.51,0,0,1,1.5-1.51h0a1.51,1.51,0,0,1,1.5,1.51h0a1.5,1.5,0,0,1-1.5,1.49h0A1.5,1.5,0,0,1,223.39,132.74Zm-11,0a1.51,1.51,0,0,1,1.5-1.51h0a1.51,1.51,0,0,1,1.5,1.51h0a1.5,1.5,0,0,1-1.5,1.49h0A1.5,1.5,0,0,1,212.4,132.74Zm-11,0a1.51,1.51,0,0,1,1.5-1.51h0a1.51,1.51,0,0,1,1.5,1.51h0a1.5,1.5,0,0,1-1.5,1.49h0A1.5,1.5,0,0,1,201.41,132.74Zm-11,0a1.51,1.51,0,0,1,1.5-1.51h0a1.51,1.51,0,0,1,1.5,1.51h0a1.5,1.5,0,0,1-1.5,1.49h0A1.5,1.5,0,0,1,190.42,132.74Zm-11,0a1.51,1.51,0,0,1,1.5-1.51h0a1.51,1.51,0,0,1,1.5,1.51h0a1.5,1.5,0,0,1-1.5,1.49h0A1.5,1.5,0,0,1,179.43,132.74Zm-11,0a1.51,1.51,0,0,1,1.5-1.51h0a1.51,1.51,0,0,1,1.5,1.51h0a1.5,1.5,0,0,1-1.5,1.49h0A1.5,1.5,0,0,1,168.44,132.74Zm-11,0a1.52,1.52,0,0,1,1.51-1.51h0a1.51,1.51,0,0,1,1.5,1.51h0a1.5,1.5,0,0,1-1.5,1.49h0A1.51,1.51,0,0,1,157.44,132.74Zm-11,0a1.51,1.51,0,0,1,1.5-1.51h0a1.51,1.51,0,0,1,1.5,1.51h0a1.5,1.5,0,0,1-1.5,1.49h0A1.5,1.5,0,0,1,146.45,132.74Zm-11,0a1.51,1.51,0,0,1,1.5-1.51h0a1.51,1.51,0,0,1,1.5,1.51h0a1.5,1.5,0,0,1-1.5,1.49h0A1.5,1.5,0,0,1,135.46,132.74Zm-11,0a1.51,1.51,0,0,1,1.5-1.51h0a1.51,1.51,0,0,1,1.5,1.51h0a1.5,1.5,0,0,1-1.5,1.49h0A1.5,1.5,0,0,1,124.47,132.74Zm-11,0a1.51,1.51,0,0,1,1.5-1.51h0a1.51,1.51,0,0,1,1.5,1.51h0a1.5,1.5,0,0,1-1.5,1.49h0A1.5,1.5,0,0,1,113.48,132.74Zm-11,0a1.51,1.51,0,0,1,1.5-1.51h0a1.51,1.51,0,0,1,1.5,1.51h0a1.5,1.5,0,0,1-1.5,1.49h0A1.5,1.5,0,0,1,102.49,132.74Zm-11,0a1.51,1.51,0,0,1,1.5-1.51h0a1.51,1.51,0,0,1,1.5,1.51h0a1.5,1.5,0,0,1-1.5,1.49h0A1.5,1.5,0,0,1,91.5,132.74Zm-11,0a1.51,1.51,0,0,1,1.5-1.51h0a1.51,1.51,0,0,1,1.5,1.51h0a1.5,1.5,0,0,1-1.5,1.49h0A1.5,1.5,0,0,1,80.51,132.74Zm-11,0a1.51,1.51,0,0,1,1.5-1.51h0a1.51,1.51,0,0,1,1.5,1.51h0a1.5,1.5,0,0,1-1.5,1.49h0A1.5,1.5,0,0,1,69.52,132.74Zm-11,0a1.51,1.51,0,0,1,1.5-1.51h0a1.5,1.5,0,0,1,1.49,1.51h0A1.49,1.49,0,0,1,60,134.23h0A1.5,1.5,0,0,1,58.53,132.74Zm-11,0a1.51,1.51,0,0,1,1.5-1.51h0a1.52,1.52,0,0,1,1.51,1.51h0A1.51,1.51,0,0,1,49,134.23h0A1.5,1.5,0,0,1,47.53,132.74Zm-11,0a1.51,1.51,0,0,1,1.5-1.51h0a1.51,1.51,0,0,1,1.5,1.51h0a1.5,1.5,0,0,1-1.5,1.49h0A1.5,1.5,0,0,1,36.54,132.74Zm-11,0a1.51,1.51,0,0,1,1.5-1.51h0a1.51,1.51,0,0,1,1.5,1.51h0a1.5,1.5,0,0,1-1.5,1.49h0A1.5,1.5,0,0,1,25.55,132.74Zm-11,0a1.51,1.51,0,0,1,1.5-1.51h0a1.51,1.51,0,0,1,1.5,1.51h0a1.5,1.5,0,0,1-1.5,1.49h0A1.5,1.5,0,0,1,14.56,132.74Z"/><path class="cls-1" d="M235.88,134.23a1.36,1.36,0,0,1-.29,0,.9.9,0,0,1-.28-.08,1.49,1.49,0,0,1-.49-.33,1.48,1.48,0,0,1-.44-1.06,1.46,1.46,0,0,1,0-.29,2.71,2.71,0,0,1,.08-.28,2.19,2.19,0,0,1,.14-.26,2,2,0,0,1,.19-.23,1.25,1.25,0,0,1,.23-.18,1.6,1.6,0,0,1,.54-.23,1.55,1.55,0,0,1,1.35.41,2,2,0,0,1,.19.23,2.19,2.19,0,0,1,.14.26,2.71,2.71,0,0,1,.08.28,1.46,1.46,0,0,1,0,.29,1.49,1.49,0,0,1,0,.3,2.74,2.74,0,0,1-.08.28c0,.09-.09.17-.14.26a1.31,1.31,0,0,1-.19.22A1.49,1.49,0,0,1,235.88,134.23Z"/><path class="cls-1" d="M5.07,9.29a1.42,1.42,0,0,1-.29,0,.9.9,0,0,1-.28-.08L4.24,9A1.35,1.35,0,0,1,4,8.85,1.49,1.49,0,0,1,3.6,7.5a1.34,1.34,0,0,1,.09-.28A1.23,1.23,0,0,1,3.82,7,2,2,0,0,1,4,6.73a1.29,1.29,0,0,1,.23-.18,1.6,1.6,0,0,1,.54-.23,1.5,1.5,0,0,1,1.35.41A2.12,2.12,0,0,1,6.32,7a2.16,2.16,0,0,1,.14.26,2.34,2.34,0,0,1,.08.28,1.47,1.47,0,0,1,0,.29,1.5,1.5,0,0,1-.44,1.06A1,1,0,0,1,5.9,9a1.87,1.87,0,0,1-.25.14,1.09,1.09,0,0,1-.28.08A1.53,1.53,0,0,1,5.07,9.29Z"/><path class="cls-1" d="M27.94,7.79a1.5,1.5,0,0,1,1.5-1.5h0a1.5,1.5,0,0,1,1.5,1.5h0a1.5,1.5,0,0,1-1.5,1.5h0A1.5,1.5,0,0,1,27.94,7.79Zm-12.18,0a1.5,1.5,0,0,1,1.5-1.5h0a1.5,1.5,0,0,1,1.5,1.5h0a1.5,1.5,0,0,1-1.5,1.5h0A1.5,1.5,0,0,1,15.76,7.79Z"/><path class="cls-1" d="M41.62,9.29l-.29,0-.28-.08L40.79,9a2.05,2.05,0,0,1-.23-.19,1.25,1.25,0,0,1-.18-.22,1.32,1.32,0,0,1-.14-.26,1.46,1.46,0,0,1-.09-.87,1.56,1.56,0,0,1,.09-.28,1.73,1.73,0,0,1,.32-.49,1.29,1.29,0,0,1,.23-.18,1.31,1.31,0,0,1,.26-.14,1.52,1.52,0,0,1,.28-.09,1.55,1.55,0,0,1,1.35.41,1.51,1.51,0,0,1,.44,1.06,1.57,1.57,0,0,1,0,.3,2.74,2.74,0,0,1-.08.28,2.16,2.16,0,0,1-.14.26,1.27,1.27,0,0,1-.19.22,1.31,1.31,0,0,1-.22.19l-.26.14-.28.08A1.52,1.52,0,0,1,41.62,9.29Z"/><path class="cls-1" d="M200.8,9.29l-.29,0a1.54,1.54,0,0,1-.28-.09,1.51,1.51,0,0,1-.49-.33,1.21,1.21,0,0,1-.18-.22,1.32,1.32,0,0,1-.14-.26,1.48,1.48,0,0,1-.09-.28c0-.1,0-.2,0-.3s0-.19,0-.29a1.28,1.28,0,0,1,.09-.28,1.32,1.32,0,0,1,.14-.26,1.27,1.27,0,0,1,.18-.23,1.55,1.55,0,0,1,1.36-.41,1.52,1.52,0,0,1,.28.09,1.31,1.31,0,0,1,.26.14,1.29,1.29,0,0,1,.23.18,1.55,1.55,0,0,1,.43,1.06,1.53,1.53,0,0,1-.43,1.06,1.35,1.35,0,0,1-.23.19,1.31,1.31,0,0,1-.26.14,1.52,1.52,0,0,1-.28.09Z"/><path class="cls-1" d="M223.67,7.79a1.5,1.5,0,0,1,1.5-1.5h0a1.5,1.5,0,0,1,1.5,1.5h0a1.5,1.5,0,0,1-1.5,1.5h0A1.5,1.5,0,0,1,223.67,7.79Zm-12.18,0a1.5,1.5,0,0,1,1.5-1.5h0a1.5,1.5,0,0,1,1.5,1.5h0a1.5,1.5,0,0,1-1.5,1.5h0A1.5,1.5,0,0,1,211.49,7.79Z"/><path class="cls-1" d="M237.36,9.29a1.52,1.52,0,0,1-1.07-.44,1.92,1.92,0,0,1-.18-.22,1.69,1.69,0,0,1-.14-.26,1.48,1.48,0,0,1-.09-.28c0-.1,0-.2,0-.29a1.55,1.55,0,0,1,.43-1.07,1.51,1.51,0,0,1,1.36-.41,1.49,1.49,0,0,1,.28.09,1.31,1.31,0,0,1,.26.14,1,1,0,0,1,.22.18,1,1,0,0,1,.19.23,1.27,1.27,0,0,1,.14.26,1.4,1.4,0,0,1,.12.58,1.49,1.49,0,0,1-.45,1,1,1,0,0,1-.22.19l-.26.14a1.45,1.45,0,0,1-.28.08Z"/><path class="cls-2" d="M61.84,9.56H62a.77.77,0,0,1,.56.19.74.74,0,0,1,.19.55.74.74,0,0,1-.2.58,1,1,0,0,1-.67.18H59.78a1,1,0,0,1-.67-.17.75.75,0,0,1-.2-.58.71.71,0,0,1,.2-.57,1,1,0,0,1,.67-.17H60l-.28-.8h-3l-.29.8h.24a1,1,0,0,1,.67.17.71.71,0,0,1,.2.56.74.74,0,0,1-.2.58,1,1,0,0,1-.67.18H55a1,1,0,0,1-.67-.18.75.75,0,0,1-.2-.58.74.74,0,0,1,.19-.55.77.77,0,0,1,.56-.19H55l1.83-5.1h-.55a1,1,0,0,1-.67-.18.73.73,0,0,1-.2-.57.74.74,0,0,1,.2-.58,1,1,0,0,1,.67-.18h2.56a.87.87,0,0,1,.85.66v0Zm-3.58-5.1-1,2.88h2Z"/><path class="cls-2" d="M70,8.15v1.4h.7a.93.93,0,0,1,.63.17.74.74,0,0,1,.19.57.76.76,0,0,1-.19.58.91.91,0,0,1-.63.18H68.34a1,1,0,0,1-.65-.18.76.76,0,0,1-.19-.58.75.75,0,0,1,.18-.55.72.72,0,0,1,.54-.19h.12V4.46h-.12a.71.71,0,0,1-.54-.19.77.77,0,0,1-.19-.56.75.75,0,0,1,.2-.58.94.94,0,0,1,.64-.18h2.82a4.18,4.18,0,0,1,2.53.64,2.22,2.22,0,0,1,.86,1.89,2.39,2.39,0,0,1-.85,2,4,4,0,0,1-2.54.68Zm0-3.7V6.62h1a2.19,2.19,0,0,0,1.21-.27.92.92,0,0,0,.41-.82.89.89,0,0,0-.42-.79A2.19,2.19,0,0,0,71,4.46Z"/><path class="cls-2" d="M82.53,8.15v1.4h.7a.93.93,0,0,1,.63.17.74.74,0,0,1,.19.57.76.76,0,0,1-.19.58.91.91,0,0,1-.63.18H80.87a1,1,0,0,1-.65-.18.76.76,0,0,1-.19-.58.75.75,0,0,1,.18-.55.72.72,0,0,1,.54-.19h.12V4.46h-.12a.71.71,0,0,1-.54-.19A.77.77,0,0,1,80,3.7a.75.75,0,0,1,.2-.58.94.94,0,0,1,.64-.18h2.82a4.18,4.18,0,0,1,2.53.64,2.22,2.22,0,0,1,.86,1.89,2.39,2.39,0,0,1-.85,2,4,4,0,0,1-2.54.68Zm0-3.7V6.62h1a2.19,2.19,0,0,0,1.21-.27.92.92,0,0,0,.41-.82.89.89,0,0,0-.42-.79,2.19,2.19,0,0,0-1.2-.28Z"/><path class="cls-2" d="M95.25,4.46v5.1h3.11V8.34a1,1,0,0,1,.17-.67.7.7,0,0,1,.56-.2.72.72,0,0,1,.57.2,1,1,0,0,1,.18.67v2.1a.64.64,0,0,1-.14.49.94.94,0,0,1-.57.12h-6.2a.92.92,0,0,1-.64-.18.76.76,0,0,1-.19-.58.73.73,0,0,1,.19-.57.94.94,0,0,1,.64-.17h.6V4.46h-.6a.92.92,0,0,1-.64-.18.75.75,0,0,1-.19-.57.74.74,0,0,1,.2-.58.93.93,0,0,1,.64-.18h2.91a.93.93,0,0,1,.64.18.74.74,0,0,1,.2.58.74.74,0,0,1-.2.57,1,1,0,0,1-.64.18Z"/><path class="cls-2" d="M109.4,4.46v5.1h1.15a1,1,0,0,1,.67.17.71.71,0,0,1,.2.56.73.73,0,0,1-.21.58,1,1,0,0,1-.66.18h-4.06a1,1,0,0,1-.67-.18.74.74,0,0,1-.2-.58.71.71,0,0,1,.2-.57,1,1,0,0,1,.67-.17h1.15V4.46h-1.15a1,1,0,0,1-.67-.18.73.73,0,0,1-.2-.57.73.73,0,0,1,.2-.57,1,1,0,0,1,.67-.17h4.06a1,1,0,0,1,.68.17.74.74,0,0,1,.19.57.74.74,0,0,1-.2.57,1,1,0,0,1-.67.18Z"/><path class="cls-2" d="M123.19,3.17a1,1,0,0,1,.28-.35.61.61,0,0,1,.36-.1.57.57,0,0,1,.47.18,1,1,0,0,1,.14.61V5.28a1,1,0,0,1-.15.64.75.75,0,0,1-.56.16.65.65,0,0,1-.44-.14,1.12,1.12,0,0,1-.26-.51,1.64,1.64,0,0,0-.57-.94,1.8,1.8,0,0,0-1.08-.29,1.93,1.93,0,0,0-1.61.71A3.27,3.27,0,0,0,119.23,7,3.26,3.26,0,0,0,119.8,9a1.94,1.94,0,0,0,1.62.72A3.31,3.31,0,0,0,123,9.29a3.52,3.52,0,0,1,1.09-.48.55.55,0,0,1,.45.23.87.87,0,0,1,.18.56q0,.6-1.06,1.13a5.23,5.23,0,0,1-2.39.53,3.79,3.79,0,0,1-2.9-1.18A4.34,4.34,0,0,1,117.27,7a4.34,4.34,0,0,1,1.12-3.06,3.7,3.7,0,0,1,2.84-1.22,4.21,4.21,0,0,1,1,.11A5.83,5.83,0,0,1,123.19,3.17Z"/><path class="cls-2" d="M137,9.56h.12a.77.77,0,0,1,.56.19.74.74,0,0,1,.19.55.74.74,0,0,1-.2.58,1,1,0,0,1-.67.18H135a1,1,0,0,1-.67-.17.75.75,0,0,1-.2-.58.71.71,0,0,1,.2-.57,1,1,0,0,1,.67-.17h.24l-.28-.8h-3l-.29.8h.24a1,1,0,0,1,.67.17.71.71,0,0,1,.2.56.74.74,0,0,1-.2.58,1,1,0,0,1-.67.18h-1.76a1,1,0,0,1-.67-.18.75.75,0,0,1-.2-.58.74.74,0,0,1,.19-.55.77.77,0,0,1,.56-.19h.12L132,4.46h-.55a1,1,0,0,1-.67-.18.73.73,0,0,1-.2-.57.74.74,0,0,1,.2-.58,1,1,0,0,1,.67-.18H134a.87.87,0,0,1,.85.66v0Zm-3.58-5.1-1,2.88h2Z"/><path class="cls-2" d="M148.42,4.44H147v5.1h1.15a1,1,0,0,1,.66.18.74.74,0,0,1,.2.57.75.75,0,0,1-.2.58,1,1,0,0,1-.66.18h-4.06a1,1,0,0,1-.65-.18.75.75,0,0,1-.2-.58.74.74,0,0,1,.19-.58,1,1,0,0,1,.65-.17h1.15V4.44H143.8l0,1.39V6a.7.7,0,0,1-.18.51.67.67,0,0,1-.5.18.74.74,0,0,1-.56-.19.89.89,0,0,1-.18-.62V5.83l.08-2q0-.61.17-.73a1,1,0,0,1,.6-.12H149a1,1,0,0,1,.6.12c.1.08.16.33.17.73l.07,2v.05a.92.92,0,0,1-.17.62.71.71,0,0,1-.55.19.66.66,0,0,1-.53-.19,1.12,1.12,0,0,1-.17-.68Z"/><path class="cls-2" d="M159.52,4.46v5.1h1.15a1,1,0,0,1,.67.17.71.71,0,0,1,.2.56.73.73,0,0,1-.21.58,1,1,0,0,1-.66.18h-4.06a1,1,0,0,1-.67-.18.74.74,0,0,1-.2-.58.71.71,0,0,1,.2-.57,1,1,0,0,1,.67-.17h1.15V4.46h-1.15a1,1,0,0,1-.67-.18.73.73,0,0,1-.2-.57.73.73,0,0,1,.2-.57,1,1,0,0,1,.67-.17h4.06a1,1,0,0,1,.68.17.74.74,0,0,1,.19.57.74.74,0,0,1-.2.57,1,1,0,0,1-.67.18Z"/><path class="cls-2" d="M171.17,2.72a3.57,3.57,0,0,1,2.77,1.2A4.4,4.4,0,0,1,175,7a4.42,4.42,0,0,1-1.08,3.08,3.8,3.8,0,0,1-5.54,0A4.39,4.39,0,0,1,167.31,7a4.41,4.41,0,0,1,1.08-3.07A3.57,3.57,0,0,1,171.17,2.72Zm0,1.59a1.61,1.61,0,0,0-1.38.71,3.39,3.39,0,0,0-.5,2,3.4,3.4,0,0,0,.51,2,1.7,1.7,0,0,0,2.77,0,3.4,3.4,0,0,0,.51-2,3.37,3.37,0,0,0-.5-2A1.61,1.61,0,0,0,171.17,4.31Z"/><path class="cls-2" d="M185.29,8.22V4.46h-.38a1,1,0,0,1-.65-.18.74.74,0,0,1-.2-.57.75.75,0,0,1,.2-.58.93.93,0,0,1,.65-.18h1.94a.94.94,0,0,1,.64.18.75.75,0,0,1,.2.58.77.77,0,0,1-.19.56.72.72,0,0,1-.54.19h-.12v6.21a.73.73,0,0,1-.07.4.41.41,0,0,1-.31.08h-.68a1.09,1.09,0,0,1-.46-.07.56.56,0,0,1-.23-.24l-2.84-5V9.56h.4a1,1,0,0,1,.64.17.73.73,0,0,1,.19.57.75.75,0,0,1-.2.58.92.92,0,0,1-.63.18h-2a1,1,0,0,1-.64-.18.75.75,0,0,1-.2-.58.75.75,0,0,1,.18-.55.73.73,0,0,1,.55-.19h.11V4.46h-.11a.73.73,0,0,1-.54-.19.76.76,0,0,1-.19-.56.74.74,0,0,1,.2-.58.93.93,0,0,1,.64-.18h1.12a1,1,0,0,1,.55.11,1.38,1.38,0,0,1,.32.43Z"/></svg>