<svg id="Artwork" xmlns="http://www.w3.org/2000/svg" viewBox="0 0 241.66 269.18"><defs><style>.cls-1{fill:#231f20;}.cls-2{fill:#fff;}</style></defs><title>do_this-100-coco</title><path class="cls-1" d="M3.35,102.27a1.48,1.48,0,0,1-1.06-.44,1.52,1.52,0,0,1-.44-1.06,1.48,1.48,0,0,1,0-.3,1.43,1.43,0,0,1,.08-.28,2.06,2.06,0,0,1,.14-.25,1.47,1.47,0,0,1,.19-.23,1.55,1.55,0,0,1,2.12,0,1,1,0,0,1,.18.23,1.26,1.26,0,0,1,.14.25,1.38,1.38,0,0,1,.12.58,1.5,1.5,0,0,1-1.5,1.5Z"/><path class="cls-1" d="M221.67,100.77a1.5,1.5,0,0,1,1.5-1.5h0a1.5,1.5,0,0,1,1.49,1.5h0a1.5,1.5,0,0,1-1.49,1.5h0A1.5,1.5,0,0,1,221.67,100.77Zm-11,0a1.5,1.5,0,0,1,1.5-1.5h0a1.5,1.5,0,0,1,1.5,1.5h0a1.5,1.5,0,0,1-1.5,1.5h0A1.5,1.5,0,0,1,210.67,100.77Zm-11,0a1.5,1.5,0,0,1,1.49-1.5h0a1.5,1.5,0,0,1,1.5,1.5h0a1.5,1.5,0,0,1-1.5,1.5h0A1.5,1.5,0,0,1,199.69,100.77Zm-11,0a1.5,1.5,0,0,1,1.5-1.5h0a1.5,1.5,0,0,1,1.5,1.5h0a1.5,1.5,0,0,1-1.5,1.5h0A1.5,1.5,0,0,1,188.69,100.77Zm-11,0a1.5,1.5,0,0,1,1.5-1.5h0a1.5,1.5,0,0,1,1.5,1.5h0a1.5,1.5,0,0,1-1.5,1.5h0A1.5,1.5,0,0,1,177.7,100.77Zm-11,0a1.5,1.5,0,0,1,1.5-1.5h0a1.5,1.5,0,0,1,1.5,1.5h0a1.5,1.5,0,0,1-1.5,1.5h0A1.5,1.5,0,0,1,166.71,100.77Zm-11,0a1.5,1.5,0,0,1,1.5-1.5h0a1.5,1.5,0,0,1,1.5,1.5h0a1.5,1.5,0,0,1-1.5,1.5h0A1.5,1.5,0,0,1,155.72,100.77Zm-11,0a1.5,1.5,0,0,1,1.5-1.5h0a1.5,1.5,0,0,1,1.5,1.5h0a1.5,1.5,0,0,1-1.5,1.5h0A1.5,1.5,0,0,1,144.73,100.77Zm-11,0a1.5,1.5,0,0,1,1.5-1.5h0a1.5,1.5,0,0,1,1.5,1.5h0a1.5,1.5,0,0,1-1.5,1.5h0A1.5,1.5,0,0,1,133.74,100.77Zm-11,0a1.5,1.5,0,0,1,1.5-1.5h0a1.5,1.5,0,0,1,1.5,1.5h0a1.5,1.5,0,0,1-1.5,1.5h0A1.5,1.5,0,0,1,122.75,100.77Zm-11,0a1.5,1.5,0,0,1,1.5-1.5h0a1.5,1.5,0,0,1,1.5,1.5h0a1.5,1.5,0,0,1-1.5,1.5h0A1.5,1.5,0,0,1,111.76,100.77Zm-11,0a1.5,1.5,0,0,1,1.5-1.5h0a1.5,1.5,0,0,1,1.49,1.5h0a1.5,1.5,0,0,1-1.49,1.5h0A1.5,1.5,0,0,1,100.77,100.77Zm-11,0a1.51,1.51,0,0,1,1.51-1.5h0a1.5,1.5,0,0,1,1.5,1.5h0a1.5,1.5,0,0,1-1.5,1.5h0A1.51,1.51,0,0,1,89.77,100.77Zm-11,0a1.5,1.5,0,0,1,1.5-1.5h0a1.5,1.5,0,0,1,1.5,1.5h0a1.5,1.5,0,0,1-1.5,1.5h0A1.5,1.5,0,0,1,78.78,100.77Zm-11,0a1.5,1.5,0,0,1,1.5-1.5h0a1.5,1.5,0,0,1,1.5,1.5h0a1.5,1.5,0,0,1-1.5,1.5h0A1.5,1.5,0,0,1,67.79,100.77Zm-11,0a1.5,1.5,0,0,1,1.5-1.5h0a1.5,1.5,0,0,1,1.5,1.5h0a1.5,1.5,0,0,1-1.5,1.5h0A1.5,1.5,0,0,1,56.8,100.77Zm-11,0a1.5,1.5,0,0,1,1.5-1.5h0a1.5,1.5,0,0,1,1.5,1.5h0a1.5,1.5,0,0,1-1.5,1.5h0A1.5,1.5,0,0,1,45.81,100.77Zm-11,0a1.5,1.5,0,0,1,1.5-1.5h0a1.5,1.5,0,0,1,1.5,1.5h0a1.5,1.5,0,0,1-1.5,1.5h0A1.5,1.5,0,0,1,34.82,100.77Zm-11,0a1.5,1.5,0,0,1,1.5-1.5h0a1.5,1.5,0,0,1,1.5,1.5h0a1.5,1.5,0,0,1-1.5,1.5h0A1.5,1.5,0,0,1,23.83,100.77Zm-11,0a1.5,1.5,0,0,1,1.5-1.5h0a1.5,1.5,0,0,1,1.5,1.5h0a1.5,1.5,0,0,1-1.5,1.5h0A1.5,1.5,0,0,1,12.84,100.77Z"/><path class="cls-1" d="M234.16,102.27a1.48,1.48,0,0,1-1.06-.44,1.39,1.39,0,0,1-.19-.23,2,2,0,0,1-.14-.26.92.92,0,0,1-.08-.28,1.39,1.39,0,0,1,0-.29,1.5,1.5,0,0,1,.44-1.06,1.41,1.41,0,0,1,.22-.19l.26-.14.28-.08a1.47,1.47,0,0,1,.59,0l.28.08.26.14a2.15,2.15,0,0,1,.23.19,1.5,1.5,0,0,1,.44,1.06,1.39,1.39,0,0,1,0,.29,1.33,1.33,0,0,1-.09.28,1.28,1.28,0,0,1-.13.26,1.59,1.59,0,0,1-.42.42,1.25,1.25,0,0,1-.26.13,1.31,1.31,0,0,1-.28.09Z"/><path class="cls-1" d="M3.84,191.67a1.36,1.36,0,0,1-.29,0,1.3,1.3,0,0,1-.28-.08,1.59,1.59,0,0,1-.26-.14,1.4,1.4,0,0,1-.23-.18,2.06,2.06,0,0,1-.19-.23c0-.09-.1-.17-.14-.26a2.74,2.74,0,0,1-.08-.28,1.49,1.49,0,0,1,0-.3,1.52,1.52,0,0,1,.44-1.06,1,1,0,0,1,.23-.18,1.08,1.08,0,0,1,.26-.14,1.31,1.31,0,0,1,.28-.09,1.56,1.56,0,0,1,1.35.41,1.52,1.52,0,0,1,.44,1.06,1.42,1.42,0,0,1-.12.58,1.61,1.61,0,0,1-.13.26,2.06,2.06,0,0,1-.19.23A1.55,1.55,0,0,1,3.84,191.67Z"/><path class="cls-1" d="M222.16,190.17a1.5,1.5,0,0,1,1.5-1.5h0a1.5,1.5,0,0,1,1.5,1.5h0a1.5,1.5,0,0,1-1.5,1.5h0A1.5,1.5,0,0,1,222.16,190.17Zm-11,0a1.5,1.5,0,0,1,1.5-1.5h0a1.5,1.5,0,0,1,1.5,1.5h0a1.5,1.5,0,0,1-1.5,1.5h0A1.5,1.5,0,0,1,211.17,190.17Zm-11,0a1.5,1.5,0,0,1,1.49-1.5h0a1.51,1.51,0,0,1,1.51,1.5h0a1.51,1.51,0,0,1-1.51,1.5h0A1.5,1.5,0,0,1,200.18,190.17Zm-11,0a1.5,1.5,0,0,1,1.5-1.5h0a1.5,1.5,0,0,1,1.49,1.5h0a1.5,1.5,0,0,1-1.49,1.5h0A1.5,1.5,0,0,1,189.19,190.17Zm-11,0a1.5,1.5,0,0,1,1.5-1.5h0a1.5,1.5,0,0,1,1.5,1.5h0a1.5,1.5,0,0,1-1.5,1.5h0A1.5,1.5,0,0,1,178.19,190.17Zm-11,0a1.5,1.5,0,0,1,1.5-1.5h0a1.5,1.5,0,0,1,1.5,1.5h0a1.5,1.5,0,0,1-1.5,1.5h0A1.5,1.5,0,0,1,167.2,190.17Zm-11,0a1.5,1.5,0,0,1,1.5-1.5h0a1.5,1.5,0,0,1,1.5,1.5h0a1.5,1.5,0,0,1-1.5,1.5h0A1.5,1.5,0,0,1,156.21,190.17Zm-11,0a1.5,1.5,0,0,1,1.5-1.5h0a1.5,1.5,0,0,1,1.5,1.5h0a1.5,1.5,0,0,1-1.5,1.5h0A1.5,1.5,0,0,1,145.22,190.17Zm-11,0a1.5,1.5,0,0,1,1.5-1.5h0a1.5,1.5,0,0,1,1.5,1.5h0a1.5,1.5,0,0,1-1.5,1.5h0A1.5,1.5,0,0,1,134.23,190.17Zm-11,0a1.5,1.5,0,0,1,1.5-1.5h0a1.5,1.5,0,0,1,1.5,1.5h0a1.5,1.5,0,0,1-1.5,1.5h0A1.5,1.5,0,0,1,123.24,190.17Zm-11,0a1.5,1.5,0,0,1,1.5-1.5h0a1.5,1.5,0,0,1,1.5,1.5h0a1.5,1.5,0,0,1-1.5,1.5h0A1.5,1.5,0,0,1,112.25,190.17Zm-11,0a1.5,1.5,0,0,1,1.5-1.5h0a1.5,1.5,0,0,1,1.5,1.5h0a1.5,1.5,0,0,1-1.5,1.5h0A1.5,1.5,0,0,1,101.26,190.17Zm-11,0a1.5,1.5,0,0,1,1.5-1.5h0a1.5,1.5,0,0,1,1.5,1.5h0a1.5,1.5,0,0,1-1.5,1.5h0A1.5,1.5,0,0,1,90.27,190.17Zm-11,0a1.5,1.5,0,0,1,1.5-1.5h0a1.5,1.5,0,0,1,1.5,1.5h0a1.5,1.5,0,0,1-1.5,1.5h0A1.5,1.5,0,0,1,79.28,190.17Zm-11,0a1.5,1.5,0,0,1,1.49-1.5h0a1.5,1.5,0,0,1,1.5,1.5h0a1.5,1.5,0,0,1-1.5,1.5h0A1.5,1.5,0,0,1,68.29,190.17Zm-11,0a1.5,1.5,0,0,1,1.5-1.5h0a1.5,1.5,0,0,1,1.5,1.5h0a1.5,1.5,0,0,1-1.5,1.5h0A1.5,1.5,0,0,1,57.29,190.17Zm-11,0a1.5,1.5,0,0,1,1.5-1.5h0a1.5,1.5,0,0,1,1.5,1.5h0a1.5,1.5,0,0,1-1.5,1.5h0A1.5,1.5,0,0,1,46.3,190.17Zm-11,0a1.5,1.5,0,0,1,1.5-1.5h0a1.5,1.5,0,0,1,1.5,1.5h0a1.5,1.5,0,0,1-1.5,1.5h0A1.5,1.5,0,0,1,35.31,190.17Zm-11,0a1.5,1.5,0,0,1,1.5-1.5h0a1.5,1.5,0,0,1,1.5,1.5h0a1.5,1.5,0,0,1-1.5,1.5h0A1.5,1.5,0,0,1,24.32,190.17Zm-11,0a1.5,1.5,0,0,1,1.5-1.5h0a1.5,1.5,0,0,1,1.5,1.5h0a1.5,1.5,0,0,1-1.5,1.5h0A1.5,1.5,0,0,1,13.33,190.17Z"/><path class="cls-1" d="M234.65,191.67a1.76,1.76,0,0,1-.58-.11,1.87,1.87,0,0,1-.25-.14,1.45,1.45,0,0,1-.23-.19,2,2,0,0,1-.19-.22c0-.09-.1-.17-.14-.26s-.06-.19-.08-.28a1.57,1.57,0,0,1,0-.3,1.52,1.52,0,0,1,.44-1.06,1,1,0,0,1,.23-.18,1.18,1.18,0,0,1,.25-.14,1.39,1.39,0,0,1,.29-.09,1.42,1.42,0,0,1,.58,0,1.6,1.6,0,0,1,.54.23,1.31,1.31,0,0,1,.23.18,1.51,1.51,0,0,1,.44,1.06,1.4,1.4,0,0,1-.12.58,1.54,1.54,0,0,1-.13.26,1.9,1.9,0,0,1-.19.22,1.38,1.38,0,0,1-.23.19l-.26.14a1.28,1.28,0,0,1-.28.08A1.42,1.42,0,0,1,234.65,191.67Z"/><path class="cls-1" d="M3.84,9.29a1.39,1.39,0,0,1-.29,0l-.28-.08L3,9a1.44,1.44,0,0,1-.23-.19,1.5,1.5,0,0,1-.44-1.06,1.32,1.32,0,0,1,0-.29,2.15,2.15,0,0,1,.08-.28A2.16,2.16,0,0,1,2.59,7a2,2,0,0,1,.19-.23A1.44,1.44,0,0,1,3,6.54a1.06,1.06,0,0,1,.26-.13,1.31,1.31,0,0,1,.28-.09,1.5,1.5,0,0,1,1.35.41A2,2,0,0,1,5.09,7a1.28,1.28,0,0,1,.13.26,1.27,1.27,0,0,1,.09.28,1.32,1.32,0,0,1,0,.29A1.5,1.5,0,0,1,4.9,8.85,1.52,1.52,0,0,1,3.84,9.29Z"/><path class="cls-1" d="M50,7.79a1.5,1.5,0,0,1,1.5-1.5h0A1.5,1.5,0,0,1,53,7.79h0a1.5,1.5,0,0,1-1.5,1.5h0A1.5,1.5,0,0,1,50,7.79Zm-11.91,0a1.5,1.5,0,0,1,1.5-1.5h0a1.5,1.5,0,0,1,1.5,1.5h0a1.5,1.5,0,0,1-1.5,1.5h0A1.5,1.5,0,0,1,38.07,7.79Zm-11.91,0a1.5,1.5,0,0,1,1.5-1.5h0a1.5,1.5,0,0,1,1.5,1.5h0a1.5,1.5,0,0,1-1.5,1.5h0A1.5,1.5,0,0,1,26.16,7.79Zm-11.91,0a1.5,1.5,0,0,1,1.5-1.5h0a1.5,1.5,0,0,1,1.5,1.5h0a1.5,1.5,0,0,1-1.5,1.5h0A1.5,1.5,0,0,1,14.25,7.79Z"/><path class="cls-1" d="M63.39,9.29a1.5,1.5,0,0,1-1.5-1.5,1.5,1.5,0,0,1,.44-1.06,1.52,1.52,0,0,1,1.36-.41,1.5,1.5,0,0,1,.28.09,1.57,1.57,0,0,1,.26.13l.22.19a1.48,1.48,0,0,1,0,2.12L64.23,9,64,9.18l-.28.08Z"/><path class="cls-1" d="M177.87,9.29a1.38,1.38,0,0,1-.29,0l-.29-.08A2.06,2.06,0,0,1,177,9a1.55,1.55,0,0,1-.42-.42,1.17,1.17,0,0,1-.13-.25,1.66,1.66,0,0,1-.09-.29,1.45,1.45,0,0,1,0-.58,1.33,1.33,0,0,1,.09-.28,1.23,1.23,0,0,1,.13-.26,2.11,2.11,0,0,1,.19-.23,1.49,1.49,0,0,1,.23-.19,1.19,1.19,0,0,1,.25-.13,1.38,1.38,0,0,1,.29-.09,1.42,1.42,0,0,1,.58,0,1.31,1.31,0,0,1,.28.09,1.25,1.25,0,0,1,.26.13,2.15,2.15,0,0,1,.23.19,2.12,2.12,0,0,1,.19.23,1.28,1.28,0,0,1,.13.26,1.27,1.27,0,0,1,.09.28,1.4,1.4,0,0,1,0,.58,1.57,1.57,0,0,1-.09.29,1.22,1.22,0,0,1-.13.25,1.49,1.49,0,0,1-.19.23,2.15,2.15,0,0,1-.23.19l-.26.14-.28.08A1.39,1.39,0,0,1,177.87,9.29Z"/><path class="cls-1" d="M224,7.79a1.5,1.5,0,0,1,1.5-1.5h0a1.5,1.5,0,0,1,1.5,1.5h0a1.5,1.5,0,0,1-1.5,1.5h0A1.5,1.5,0,0,1,224,7.79Zm-11.91,0a1.5,1.5,0,0,1,1.5-1.5h0a1.5,1.5,0,0,1,1.5,1.5h0a1.5,1.5,0,0,1-1.5,1.5h0A1.5,1.5,0,0,1,212.1,7.79Zm-11.91,0a1.5,1.5,0,0,1,1.5-1.5h0a1.5,1.5,0,0,1,1.5,1.5h0a1.5,1.5,0,0,1-1.5,1.5h0A1.5,1.5,0,0,1,200.19,7.79Zm-11.91,0a1.5,1.5,0,0,1,1.5-1.5h0a1.5,1.5,0,0,1,1.5,1.5h0a1.5,1.5,0,0,1-1.5,1.5h0A1.5,1.5,0,0,1,188.28,7.79Z"/><path class="cls-1" d="M237.42,9.29l-.29,0-.28-.08L236.59,9a2.17,2.17,0,0,1-.23-.19,1.72,1.72,0,0,1-.32-.49,1.27,1.27,0,0,1-.09-.28,1.32,1.32,0,0,1,0-.29A1.49,1.49,0,0,1,238,6.41a1.57,1.57,0,0,1,.26.13l.22.19a1.52,1.52,0,0,1,.44,1.06,1.32,1.32,0,0,1,0,.29,1.26,1.26,0,0,1-.08.28,2.16,2.16,0,0,1-.14.26,1.35,1.35,0,0,1-.19.23l-.22.19-.26.14-.28.08Z"/><path class="cls-2" d="M80.22,9.56V4.46H80.1a.76.76,0,0,1-.56-.19.76.76,0,0,1-.19-.56.73.73,0,0,1,.21-.58,1,1,0,0,1,.66-.18H81.9A12.68,12.68,0,0,1,84,3.07a3.21,3.21,0,0,1,2.4,1.81A4.81,4.81,0,0,1,86.83,7a4.64,4.64,0,0,1-.5,2.21A3.25,3.25,0,0,1,83.93,11a10.32,10.32,0,0,1-1.67.1h-2a1,1,0,0,1-.67-.17.75.75,0,0,1-.2-.58.74.74,0,0,1,.19-.55.77.77,0,0,1,.56-.19ZM82,4.43V9.56h.39a2.56,2.56,0,0,0,1.91-.63A2.7,2.7,0,0,0,84.89,7a2.64,2.64,0,0,0-.63-1.93,2.53,2.53,0,0,0-1.88-.64H82Z"/><path class="cls-2" d="M95.62,2.72a3.57,3.57,0,0,1,2.77,1.2A4.4,4.4,0,0,1,99.48,7a4.42,4.42,0,0,1-1.08,3.08,3.8,3.8,0,0,1-5.54,0A4.39,4.39,0,0,1,91.76,7a4.41,4.41,0,0,1,1.08-3.07A3.57,3.57,0,0,1,95.62,2.72Zm0,1.59A1.61,1.61,0,0,0,94.24,5a3.39,3.39,0,0,0-.5,2,3.4,3.4,0,0,0,.51,2A1.7,1.7,0,0,0,97,9a3.4,3.4,0,0,0,.51-2A3.37,3.37,0,0,0,97,5,1.61,1.61,0,0,0,95.62,4.31Z"/><path class="cls-2" d="M123,4.44h-1.43v5.1h1.15a1,1,0,0,1,.66.18.74.74,0,0,1,.2.57.75.75,0,0,1-.2.58,1,1,0,0,1-.66.18h-4.06a1,1,0,0,1-.65-.18.75.75,0,0,1-.2-.58.74.74,0,0,1,.19-.58,1,1,0,0,1,.65-.17h1.15V4.44h-1.43l0,1.39V6a.7.7,0,0,1-.18.51.67.67,0,0,1-.5.18.74.74,0,0,1-.56-.19.89.89,0,0,1-.18-.62V5.83l.08-2q0-.61.17-.73a1,1,0,0,1,.6-.12h5.88a1,1,0,0,1,.6.12c.1.08.16.33.17.73l.07,2v.05a.92.92,0,0,1-.17.62.71.71,0,0,1-.55.19.66.66,0,0,1-.53-.19,1.12,1.12,0,0,1-.17-.68Z"/><path class="cls-2" d="M132.1,4.46V6h2.24V4.46h-.11a.77.77,0,0,1-.56-.19.76.76,0,0,1-.19-.56.74.74,0,0,1,.2-.58,1,1,0,0,1,.67-.18h1.76a1,1,0,0,1,.66.18.76.76,0,0,1,.19.58.77.77,0,0,1-.19.56.74.74,0,0,1-.55.19h-.12v5.1h.12a.77.77,0,0,1,.56.19.74.74,0,0,1,.19.55.75.75,0,0,1-.2.58,1,1,0,0,1-.67.18h-1.76a1,1,0,0,1-.67-.17.75.75,0,0,1-.2-.58.73.73,0,0,1,.19-.55.78.78,0,0,1,.56-.19h.11v-2H132.1v2h.11a.78.78,0,0,1,.56.19.73.73,0,0,1,.2.55.74.74,0,0,1-.2.58,1,1,0,0,1-.67.18h-1.76a1,1,0,0,1-.67-.17.75.75,0,0,1-.2-.58.74.74,0,0,1,.19-.55.77.77,0,0,1,.56-.19h.12V4.46h-.12a.74.74,0,0,1-.55-.19.77.77,0,0,1-.19-.56.75.75,0,0,1,.2-.58,1,1,0,0,1,.66-.18h1.76a1,1,0,0,1,.66.18.73.73,0,0,1,.21.58.75.75,0,0,1-.2.56.77.77,0,0,1-.56.19Z"/><path class="cls-2" d="M146.63,4.46v5.1h1.15a1,1,0,0,1,.67.17.71.71,0,0,1,.2.56.73.73,0,0,1-.21.58,1,1,0,0,1-.66.18h-4.06a1,1,0,0,1-.67-.18.74.74,0,0,1-.2-.58.71.71,0,0,1,.2-.57,1,1,0,0,1,.67-.17h1.15V4.46h-1.15a1,1,0,0,1-.67-.18.73.73,0,0,1-.2-.57.73.73,0,0,1,.2-.57,1,1,0,0,1,.67-.17h4.06a1,1,0,0,1,.68.17.74.74,0,0,1,.19.57.74.74,0,0,1-.2.57,1,1,0,0,1-.67.18Z"/><path class="cls-2" d="M160,3.1a.69.69,0,0,1,.23-.3.76.76,0,0,1,.4-.08c.26,0,.43,0,.51.15a1.1,1.1,0,0,1,.13.58l0,1.31v.08a.78.78,0,0,1-.16.56.75.75,0,0,1-.54.16.77.77,0,0,1-.72-.52l-.05-.12a1.51,1.51,0,0,0-.57-.64,1.65,1.65,0,0,0-.85-.21,1.63,1.63,0,0,0-1,.28.88.88,0,0,0-.38.73q0,.63,1.74,1l.46.1a3.81,3.81,0,0,1,1.9.88,2.17,2.17,0,0,1,.59,1.61,2.33,2.33,0,0,1-.85,1.94,3.85,3.85,0,0,1-2.45.68,6.75,6.75,0,0,1-1.11-.08,5.11,5.11,0,0,1-.95-.25.7.7,0,0,1-.25.26.83.83,0,0,1-.4.08.86.86,0,0,1-.6-.16.81.81,0,0,1-.18-.58l0-1.61V8.84a.92.92,0,0,1,.17-.63.79.79,0,0,1,.58-.18q.44,0,.75.64l.11.24a1.78,1.78,0,0,0,.74.79,2.4,2.4,0,0,0,1.17.26,1.61,1.61,0,0,0,1-.26.86.86,0,0,0,.35-.73q0-.73-1.58-1.11l-.75-.18a4.06,4.06,0,0,1-1.84-.87A2,2,0,0,1,155,5.37a2.39,2.39,0,0,1,.88-1.91,3.41,3.41,0,0,1,2.27-.74,4.37,4.37,0,0,1,.91.1A4.72,4.72,0,0,1,160,3.1Z"/><path class="cls-1" d="M7,43.95c-2.48,0-4.07-2-4.07-5.13V23H4.79V38.76c0,2.09.85,3.36,2.21,3.36s2.21-1.27,2.21-3.36V23H11.1V38.82C11.1,42,9.45,43.95,7,43.95Z"/><path class="cls-1" d="M20.05,43.95c-2.36,0-3.51-1.77-3.92-4.86L18,38.64c.44,2.71,1.12,3.48,2,3.48,1.21,0,1.89-1,1.89-2.45a9.32,9.32,0,0,0-2.8-6.16c-2.21-2.48-2.83-4-2.83-6.6,0-2.33,1.3-4.24,3.57-4.24s3.3,1.62,3.89,4.07l-1.92.56c-.56-2.12-1-2.8-2-2.8s-1.59,1.18-1.59,2.24c0,1.65.41,2.95,2.36,5.13,2.24,2.48,3.27,4.8,3.27,7.54S22.41,43.95,20.05,43.95Z"/><path class="cls-1" d="M29.21,43.62V23h6.57v1.83H31.1v6.87h3.27v1.83H31.1V41.8h5v1.83Z"/><path class="cls-1" d="M55,43.62l-.83-5.42h-3.3L50,43.62H48L51.48,23h2.06L57,43.62Zm-1.71-11.4c-.32-2.3-.59-4.13-.77-6.13-.18,2-.44,3.83-.77,6.13L51.1,36.4h2.77Z"/><path class="cls-1" d="M65.15,43.95c-2.36,0-3.51-1.77-3.92-4.86l1.92-.44c.44,2.71,1.12,3.48,2,3.48,1.21,0,1.89-1,1.89-2.45a9.32,9.32,0,0,0-2.8-6.16c-2.21-2.48-2.83-4-2.83-6.6,0-2.33,1.3-4.24,3.57-4.24s3.3,1.62,3.89,4.07L67,27.3c-.56-2.12-1-2.8-2-2.8s-1.59,1.18-1.59,2.24c0,1.65.41,2.95,2.36,5.13,2.24,2.48,3.27,4.8,3.27,7.54S67.51,43.95,65.15,43.95Z"/><path class="cls-1" d="M88.18,43.62l-.83-5.42h-3.3l-.82,5.42h-2L84.71,23h2.06l3.45,20.62Zm-1.71-11.4c-.32-2.3-.59-4.13-.77-6.13-.18,2-.44,3.83-.77,6.13l-.62,4.18h2.77Z"/><path class="cls-1" d="M111.1,43.62V39.38c0-2.39.06-4.54.15-6.42-.29,1.68-1,4.39-1.53,6.63l-1.18,4.66-1.18-4.66c-.56-2.21-1.21-4.95-1.5-6.63.06,1.8.15,4.07.15,6.42v4.24h-3.59V23h3.71l1.09,4.62c.53,2.3,1.09,4.74,1.33,6.48.24-1.74.82-4.24,1.36-6.51L111,23h3.71V43.62Z"/><path class="cls-1" d="M119.05,43.62V23h4.12V43.62Z"/><path class="cls-1" d="M133.13,43.62l-.38-2.12c-.35-1.92-.62-3.54-.77-5-.18,1.41-.44,3-.8,5l-.38,2.12h-4L129.78,33,127,23h4.1l.29,1.53c.35,1.86.56,3.42.71,4.89.15-1.47.35-3.06.71-4.89l.29-1.53h4l-2.8,9.93,3,10.7Z"/><path class="cls-1" d="M140.85,43.62V23H145V43.62Z"/><path class="cls-1" d="M156.26,43.62l-1.47-4.74c-.71-2.33-1.47-5.07-1.77-6.48.06,1.41.12,3.95.12,6.16v5.07h-3.77V23h3.57l1,3c.77,2.33,1.65,5.3,2,6.72-.09-1.36-.18-4.33-.18-6.42V23h3.77V43.62Z"/><path class="cls-1" d="M168.74,43.95c-3.68,0-5.19-3.09-5.19-10.64s1.56-10.64,5.27-10.64c3.48,0,4.51,2.59,4.77,6.54l-4,.71c-.12-3-.18-3.74-.83-3.74s-1,.94-1,7.13.15,7.13,1.06,7.13.94-.65.94-2.62V36.14h-1.06v-3.3h5v3.95C173.75,40.94,172.4,43.95,168.74,43.95Z"/><path class="cls-1" d="M6.11,64.67c-2.55,0-3.71-2-3.71-7.56s1.14-7.64,3.75-7.64,3.29,2,3.43,4.84l-2.86.42C6.63,52.61,6.61,52,6.13,52s-.69.69-.69,5.05c0,4.53.15,5.14.74,5.14.38,0,.53-.36.63-2.74l2.82.42C9.29,63.24,8.44,64.67,6.11,64.67Z"/><path class="cls-1" d="M16,64.67c-2.61,0-3.71-2.11-3.71-7.58s1.14-7.62,3.75-7.62S19.79,51.6,19.79,57,18.65,64.67,16,64.67ZM16,52c-.57,0-.69.61-.69,5.07s.15,5.12.69,5.12.72-.61.72-5.08S16.61,52,16,52Z"/><path class="cls-1" d="M28.9,64.44v-3c0-1.71,0-3.24.11-4.59-.21,1.2-.69,3.14-1.09,4.74l-.84,3.33-.84-3.33c-.4-1.58-.86-3.54-1.07-4.74,0,1.28.11,2.91.11,4.59v3H22.69V49.7h2.65L26.12,53c.38,1.64.78,3.39.95,4.63.17-1.24.59-3,1-4.65l.76-3.28h2.65V64.44Z"/><path class="cls-1" d="M37.93,58.54h-.48v5.9H34.56V49.7h3.6c1.79,0,3.39,1.05,3.39,4.3S40,58.54,37.93,58.54ZM37.74,52h-.29v4.27h.25c.69,0,.91-.61.91-2.15S38.42,52,37.74,52Z"/><path class="cls-1" d="M47.7,64.67c-2.61,0-3.71-2.11-3.71-7.58s1.14-7.62,3.75-7.62S51.47,51.6,51.47,57,50.33,64.67,47.7,64.67Zm0-12.7c-.57,0-.69.61-.69,5.07s.15,5.12.69,5.12.72-.61.72-5.08S48.29,52,47.72,52Z"/><path class="cls-1" d="M59.3,64.44l-1.05-3.39c-.51-1.66-1.05-3.62-1.26-4.63,0,1,.08,2.82.08,4.4v3.62h-2.7V49.7h2.55l.72,2.17c.55,1.66,1.18,3.79,1.41,4.8-.06-1-.13-3.1-.13-4.59V49.7h2.7V64.44Z"/><path class="cls-1" d="M64.73,64.44V49.7h6v2.61h-3v3.05H70V58H67.68v3.85h3.16v2.61Z"/><path class="cls-1" d="M78.58,64.44l-1.05-3.39c-.51-1.66-1.05-3.62-1.26-4.63,0,1,.08,2.82.08,4.4v3.62h-2.7V49.7H76.2l.72,2.17c.55,1.66,1.18,3.79,1.41,4.8-.06-1-.13-3.1-.13-4.59V49.7h2.7V64.44Z"/><path class="cls-1" d="M88.35,52.31V64.44H85.4V52.31H83.55V49.7h6.67v2.61Z"/><path class="cls-1" d="M105,64.44h-1.22L103,58.5c-.17-1.37-.46-3.71-.51-5.33,0,1.62-.34,3.94-.51,5.33l-.82,5.94H99.94L98.18,49.7h1.28l.86,8.09c.13,1,.21,2.23.27,3.16.08-.93.19-2.15.32-3.2l1-8H103l1,8c.13,1.05.23,2.27.32,3.2.06-.93.15-2.13.27-3.16l.86-8.09h1.28Z"/><path class="cls-1" d="M110.28,64.44V49.7h1.35V64.44Z"/><path class="cls-1" d="M118.64,51V64.44h-1.35V51h-2.15V49.7h5.64V51Z"/><path class="cls-1" d="M128.7,64.44V57.22h-3.16v7.22h-1.35V49.7h1.35v6.23h3.16V49.7H130V64.44Z"/><path class="cls-1" d="M142.76,58.06v6.38h-1.35V58.1l-2.48-8.4h1.41l1,3.68c.34,1.26.63,2.42.78,3.29.15-.86.44-2.06.78-3.29l1-3.68h1.37Z"/><path class="cls-1" d="M151.31,64.67c-2.23,0-3.05-2.63-3.05-7.6s.82-7.6,3.05-7.6,3.05,2.63,3.05,7.6S153.54,64.67,151.31,64.67Zm0-13.9c-1.1,0-1.64,1.92-1.64,6.3s.59,6.3,1.68,6.3,1.64-1.92,1.64-6.3S152.38,50.77,151.29,50.77Z"/><path class="cls-1" d="M161.09,64.67c-1.77,0-2.91-1.41-2.91-3.66V49.7h1.35V61c0,1.49.61,2.4,1.58,2.4s1.58-.91,1.58-2.4V49.7H164V61C164,63.26,162.86,64.67,161.09,64.67Z"/><path class="cls-1" d="M172.33,64.44l-1.62-6.95a9.69,9.69,0,0,1-1.18,0v6.91h-1.35V49.7h2.11c1.85,0,3.29,1.22,3.29,3.79A4,4,0,0,1,172,57l1.73,7.45ZM170.25,51h-.72v5.26h.72c1.22,0,2-1,2-2.67S171.47,51,170.25,51Z"/><path class="cls-1" d="M5.89,85.66c-2.38,0-3.26-2.81-3.26-8.12s.88-8.12,3.26-8.12,3.26,2.81,3.26,8.12S8.28,85.66,5.89,85.66Zm0-14.85c-1.17,0-1.76,2-1.76,6.73s.63,6.73,1.8,6.73,1.76-2,1.76-6.73S7,70.82,5.87,70.82Z"/><path class="cls-1" d="M19.75,85.42h-1.3l-.88-6.34c-.18-1.46-.49-4-.54-5.69,0,1.73-.36,4.21-.54,5.69l-.88,6.34H14.35L12.46,69.67h1.37l.92,8.64c.13,1.1.22,2.38.29,3.37.09-1,.2-2.29.34-3.42l1.1-8.59h1.12l1.1,8.59c.13,1.12.25,2.43.34,3.42.07-1,.16-2.27.29-3.37l.92-8.64h1.37Z"/><path class="cls-1" d="M30.38,85.42,28,78.08a47.93,47.93,0,0,1-1.39-4.84c0,1,0,2.56,0,4.09v8.08H25.28V69.67H26.7l2.14,6.57a48,48,0,0,1,1.39,4.84c0-1,0-2.56,0-4.09V69.67h1.35V85.42Z"/><path class="cls-1" d="M44.66,85.66c-2.32,0-3.08-2.81-3.08-8.12s.83-8.12,3.13-8.12c1.8,0,2.56,1.48,3,3.89l-1.42.38c-.45-2.3-.88-2.88-1.6-2.88-1.12,0-1.62,2.16-1.62,6.73,0,4.75.52,6.73,1.71,6.73.83,0,1.21-.79,1.6-2.77l1.37.41C47.34,84.16,46.58,85.66,44.66,85.66Z"/><path class="cls-1" d="M54.67,85.66c-1.89,0-3.1-1.51-3.1-3.91V69.67H53v12c0,1.6.65,2.56,1.69,2.56s1.69-1,1.69-2.56v-12h1.44V81.75C57.82,84.16,56.56,85.66,54.67,85.66Z"/><path class="cls-1" d="M64.66,85.66c-1.8,0-2.68-1.35-3-3.71l1.46-.34c.34,2.07.85,2.66,1.55,2.66.92,0,1.44-.77,1.44-1.87A7.12,7.12,0,0,0,64,77.7c-1.69-1.89-2.16-3.08-2.16-5,0-1.78,1-3.24,2.72-3.24s2.52,1.24,3,3.1L66.05,73c-.43-1.62-.79-2.14-1.55-2.14s-1.21.9-1.21,1.71c0,1.26.31,2.25,1.8,3.91a8.25,8.25,0,0,1,2.5,5.76C67.58,84.27,66.46,85.66,64.66,85.66Z"/><path class="cls-1" d="M74.58,71v14.4H73.14V71h-2.3V69.67h6V71Z"/><path class="cls-1" d="M83.44,85.66c-2.38,0-3.26-2.81-3.26-8.12s.88-8.12,3.26-8.12,3.26,2.81,3.26,8.12S85.82,85.66,83.44,85.66Zm0-14.85c-1.17,0-1.76,2-1.76,6.73s.63,6.73,1.8,6.73,1.76-2,1.76-6.73S84.58,70.82,83.41,70.82Z"/><path class="cls-1" d="M97.16,85.42v-8.5c0-1.28,0-2.32,0-3.4-.16,1.12-.31,2-.61,3.42l-1.93,9-1.94-9c-.29-1.42-.43-2.25-.61-3.42,0,1.08,0,2,0,3.4v8.5h-1.3V69.67h1.6L94,77.23a31,31,0,0,1,.61,4.16,30.77,30.77,0,0,1,.63-4.16l1.62-7.56h1.57V85.42Z"/><path class="cls-1" d="M103,85.42V69.67h1.44V85.42Z"/><path class="cls-1" d="M108.47,85.42V84.13L112.31,71H108.8V69.67h5V71L110,84h3.82v1.37Z"/><path class="cls-1" d="M117.78,85.42V69.67h5v1.39h-3.58v5.24h2.5V77.7h-2.5V84H123v1.39Z"/><path class="cls-1" d="M129,85.42h-2.16V69.67h2.36c2.86,0,3.67,2.88,3.67,7.76C132.87,82.83,131.68,85.42,129,85.42ZM129.18,71h-.9V84h.83c1.42,0,2.3-1.78,2.3-6.55C131.41,73,130.67,71,129.18,71Z"/><path class="cls-1" d="M145.31,85.66c-1.8,0-2.68-1.35-3-3.71l1.46-.34c.34,2.07.85,2.66,1.55,2.66.92,0,1.44-.77,1.44-1.87a7.12,7.12,0,0,0-2.14-4.7c-1.69-1.89-2.16-3.08-2.16-5,0-1.78,1-3.24,2.72-3.24s2.52,1.24,3,3.1L146.7,73c-.43-1.62-.79-2.14-1.55-2.14s-1.21.9-1.21,1.71c0,1.26.31,2.25,1.8,3.91a8.25,8.25,0,0,1,2.5,5.76C148.23,84.27,147.11,85.66,145.31,85.66Z"/><path class="cls-1" d="M155.22,85.66c-2.38,0-3.26-2.81-3.26-8.12s.88-8.12,3.26-8.12,3.26,2.81,3.26,8.12S157.61,85.66,155.22,85.66Zm0-14.85c-1.17,0-1.76,2-1.76,6.73s.63,6.73,1.8,6.73,1.76-2,1.76-6.73S156.37,70.82,155.2,70.82Z"/><path class="cls-1" d="M162.71,85.42V69.67h1.44V85.42Z"/><path class="cls-1" d="M168.72,85.42V69.67h1.44V84h3.33v1.39Z"/><path class="cls-1" d="M8,129.83l-.55-3.61H5.23l-.55,3.61H3.37l2.29-13.72H7l2.29,13.72Zm-1.14-7.59c-.22-1.53-.39-2.74-.51-4.08-.12,1.33-.29,2.55-.51,4.08L5.41,125H7.25Z"/><path class="cls-1" d="M12.66,129.83V116.11h1.25v12.51h2.9v1.22Z"/><path class="cls-1" d="M25.67,129.83H24.54l-.76-5.53c-.16-1.27-.43-3.45-.47-5,0,1.51-.31,3.67-.47,5l-.76,5.53H21l-1.65-13.72h1.2l.8,7.53c.12,1,.2,2.08.25,2.94.08-.86.18-2,.29-3l1-7.49h1l1,7.49c.12,1,.22,2.12.29,3,.06-.86.14-2,.25-2.94l.8-7.53h1.2Z"/><path class="cls-1" d="M34.55,129.83,34,126.23h-2.2l-.55,3.61H29.94l2.29-13.72h1.37l2.29,13.72Zm-1.14-7.59c-.22-1.53-.39-2.74-.51-4.08-.12,1.33-.29,2.55-.51,4.08L32,125h1.84Z"/><path class="cls-1" d="M42,123.89v5.94H40.76v-5.9l-2.31-7.82h1.31l.92,3.43c.31,1.18.59,2.25.73,3.06.14-.8.41-1.92.73-3.06l.92-3.43h1.27Z"/><path class="cls-1" d="M49.52,130c-1.57,0-2.33-1.18-2.61-3.23l1.27-.29c.29,1.8.74,2.31,1.35,2.31.8,0,1.25-.67,1.25-1.63a6.2,6.2,0,0,0-1.86-4.1A5.76,5.76,0,0,1,47,118.72c0-1.55.86-2.82,2.37-2.82s2.2,1.08,2.59,2.7l-1.27.37c-.37-1.41-.69-1.86-1.35-1.86s-1.06.78-1.06,1.49c0,1.1.27,2,1.57,3.41a7.19,7.19,0,0,1,2.18,5C52.07,128.83,51.09,130,49.52,130Z"/><path class="cls-1" d="M64.29,129.83,64,127.17H62.73l-.26,2.67H59.81l2.12-13.72h2.9l2.1,13.72Zm-.57-5.9c-.1-1.23-.29-3.18-.39-4.74-.08,1.57-.26,3.51-.37,4.76l-.08.88h.92Z"/><path class="cls-1" d="M72.25,129.83H69.33V116.11h3.16c2.76,0,3.53,2.51,3.53,6.76C76,127.58,74.84,129.83,72.25,129.83Zm0-11.52H72v9.35h.2c.69,0,1-.55,1-4.74S72.94,118.31,72.25,118.31Z"/><path class="cls-1" d="M81.63,129.83H78.71V116.11h3.16c2.76,0,3.53,2.51,3.53,6.76C85.4,127.58,84.22,129.83,81.63,129.83Zm0-11.52H81.4v9.35h.2c.69,0,1-.55,1-4.74S82.32,118.31,81.63,118.31Z"/><path class="cls-1" d="M97.45,129.83l-.27-2.67H95.88l-.26,2.67H93l2.12-13.72H98l2.1,13.72Zm-.57-5.9c-.1-1.23-.29-3.18-.39-4.74-.08,1.57-.26,3.51-.37,4.76l-.08.88H97Z"/><path class="cls-1" d="M105.4,129.83h-2.92V116.11h3.16c2.76,0,3.53,2.51,3.53,6.76C109.17,127.58,108,129.83,105.4,129.83Zm0-11.52h-.23v9.35h.2c.69,0,1-.55,1-4.74S106.09,118.31,105.4,118.31Z"/><path class="cls-1" d="M114.79,129.83h-2.92V116.11H115c2.76,0,3.53,2.51,3.53,6.76C118.55,127.58,117.38,129.83,114.79,129.83Zm0-11.52h-.23v9.35h.2c.69,0,1-.55,1-4.74S115.48,118.31,114.79,118.31Z"/><path class="cls-1" d="M121.27,129.83V116.11H124v13.72Z"/><path class="cls-1" d="M131,118.54v11.29h-2.74V118.54h-1.72v-2.43h6.21v2.43Z"/><path class="cls-1" d="M135.19,129.83V116.11h2.74v13.72Z"/><path class="cls-1" d="M144.1,130c-2.43,0-3.45-2-3.45-7.06s1.06-7.1,3.49-7.1,3.47,2,3.47,7.06S146.55,130,144.1,130Zm0-11.82c-.53,0-.65.57-.65,4.72s.14,4.76.65,4.76.67-.57.67-4.72S144.65,118.23,144.12,118.23Z"/><path class="cls-1" d="M154.9,129.83l-1-3.16c-.47-1.55-1-3.37-1.18-4.31,0,.94.08,2.63.08,4.1v3.37h-2.51V116.11h2.37l.67,2c.51,1.55,1.1,3.53,1.31,4.47-.06-.9-.12-2.88-.12-4.27v-2.21h2.51v13.72Z"/><path class="cls-1" d="M164,129.83l-.27-2.67h-1.29l-.25,2.67h-2.67l2.12-13.72h2.9l2.1,13.72Zm-.57-5.9c-.1-1.23-.29-3.18-.39-4.74-.08,1.57-.26,3.51-.37,4.76l-.08.88h.92Z"/><path class="cls-1" d="M169,129.83V116.11h2.74V127.4h2.45v2.43Z"/><path class="cls-1" d="M7.22,151.65c-2.74,0-4-2.17-4-8.13s1.22-8.22,4-8.22,3.53,2.13,3.69,5.21L7.88,141c-.09-2.29-.11-3-.63-3s-.75.75-.75,5.44c0,4.87.16,5.53.79,5.53.41,0,.57-.39.68-2.94l3,.45C10.64,150.11,9.74,151.65,7.22,151.65Z"/><path class="cls-1" d="M18.75,151.4l-.32-3.08H16.94l-.29,3.08H13.56L16,135.55h3.35l2.42,15.86Zm-.66-6.82c-.11-1.43-.34-3.67-.45-5.48-.09,1.81-.29,4.06-.43,5.51l-.09,1h1.07Z"/><path class="cls-1" d="M24.57,151.4V135.55h3.17v13h2.83v2.81Z"/><path class="cls-1" d="M37.3,151.65c-2.74,0-4-2.17-4-8.13s1.22-8.22,4-8.22,3.53,2.13,3.69,5.21L38,141c-.09-2.29-.11-3-.63-3s-.75.75-.75,5.44c0,4.87.16,5.53.79,5.53.41,0,.57-.39.68-2.94l3,.45C40.72,150.11,39.81,151.65,37.3,151.65Z"/><path class="cls-1" d="M44.22,151.4V135.55H47.4V151.4Z"/><path class="cls-1" d="M54.57,151.65c-2.56,0-3.85-1.65-3.85-4.42V135.55H53.9v11.92c0,1.11.23,1.5.75,1.5s.7-.39.7-1.5V135.55h3.17v11.53C58.52,150,57.34,151.65,54.57,151.65Z"/><path class="cls-1" d="M68.5,151.4v-3.26c0-1.83,0-3.49.11-4.94-.23,1.29-.75,3.37-1.18,5.1l-.91,3.58-.91-3.58c-.43-1.7-.93-3.8-1.16-5.1,0,1.38.11,3.13.11,4.94v3.26H61.82V135.55h2.85l.84,3.56c.41,1.77.84,3.65,1,5,.18-1.34.63-3.26,1-5l.82-3.53h2.85V151.4Z"/><path class="cls-1" d="M74.52,144.56v-2.9H79v2.9Z"/><path class="cls-1" d="M89,151.4v-3.26c0-1.83,0-3.49.11-4.94-.23,1.29-.75,3.37-1.18,5.1L87,151.88l-.91-3.58c-.43-1.7-.93-3.8-1.16-5.1,0,1.38.11,3.13.11,4.94v3.26H82.34V135.55h2.85L86,139.1c.41,1.77.84,3.65,1,5,.18-1.34.63-3.26,1-5l.82-3.53h2.85V151.4Z"/><path class="cls-1" d="M99.73,151.4l-.32-3.08H97.92l-.29,3.08H94.54L97,135.55h3.35l2.42,15.86Zm-.66-6.82c-.11-1.43-.34-3.67-.45-5.48-.09,1.81-.29,4.06-.43,5.51l-.09,1h1.07Z"/><path class="cls-1" d="M109.31,151.65c-2.83,0-4-2.38-4-8.18s1.2-8.18,4.06-8.18c2.67,0,3.47,2,3.67,5l-3.08.54c-.09-2.33-.14-2.88-.63-2.88s-.75.72-.75,5.48.11,5.48.82,5.48.72-.5.72-2v-1.29h-.82v-2.54h3.85v3C113.16,149.34,112.12,151.65,109.31,151.65Z"/><path class="cls-1" d="M121.67,151.4l-1.13-3.65c-.54-1.79-1.13-3.9-1.36-5,0,1.09.09,3,.09,4.74v3.9h-2.9V135.55h2.74l.77,2.33c.59,1.79,1.27,4.08,1.52,5.17-.07-1-.14-3.33-.14-4.94v-2.56h2.9V151.4Z"/><path class="cls-1" d="M127.51,151.4V135.55h6.43v2.81h-3.26v3.28h2.49v2.81h-2.49v4.15h3.4v2.81Z"/><path class="cls-1" d="M140.47,151.65c-2.65,0-3.51-1.81-3.74-4.51l3-.57c.16,2.11.34,2.51.77,2.51s.66-.34.66-1.4c0-1.52-.41-2.13-1.68-3.28-2.06-1.68-2.63-3.06-2.63-4.87,0-2.51,1.2-4.24,3.56-4.24s3.37,1.47,3.67,4.1l-2.92.59c-.14-1.86-.34-2.13-.75-2.13s-.61.32-.61,1.29.32,1.61,1.56,2.7c2.17,1.77,2.83,3.19,2.83,5.57C144.18,150,142.87,151.65,140.47,151.65Z"/><path class="cls-1" d="M147.13,151.4V135.55h3.17V151.4Z"/><path class="cls-1" d="M157.47,151.65c-2.56,0-3.85-1.65-3.85-4.42V135.55h3.17v11.92c0,1.11.23,1.5.75,1.5s.7-.39.7-1.5V135.55h3.17v11.53C161.42,150,160.24,151.65,157.47,151.65Z"/><path class="cls-1" d="M171.4,151.4v-3.26c0-1.83,0-3.49.11-4.94-.23,1.29-.75,3.37-1.18,5.1l-.91,3.58-.91-3.58c-.43-1.7-.93-3.8-1.16-5.1,0,1.38.11,3.13.11,4.94v3.26h-2.76V135.55h2.85l.84,3.56c.41,1.77.84,3.65,1,5,.18-1.34.63-3.26,1-5l.82-3.53h2.85V151.4Z"/><path class="cls-1" d="M11.16,174.72H9.74l-1-6.91c-.2-1.59-.54-4.31-.59-6.2,0,1.89-.39,4.58-.59,6.2l-1,6.91H5.28L3.22,157.57h1.5l1,9.41c.15,1.2.24,2.6.32,3.68.1-1.08.22-2.5.37-3.72l1.2-9.36H8.83l1.2,9.36c.15,1.23.27,2.65.37,3.72.07-1.08.17-2.47.32-3.68l1-9.41h1.49Z"/><path class="cls-1" d="M22.43,174.72v-8.41H18.75v8.41H17.18V157.57h1.57v7.25h3.68v-7.25H24v17.15Z"/><path class="cls-1" d="M28.84,174.72V157.57h5.46v1.52h-3.9v5.71h2.72v1.52H30.41v6.89h4.14v1.52Z"/><path class="cls-1" d="M44.28,174.72l-2.62-8a52.21,52.21,0,0,1-1.52-5.27c0,1.05,0,2.79,0,4.46v8.8H38.71V157.57h1.54l2.33,7.15A52.32,52.32,0,0,1,44.11,170c0-1.05,0-2.79,0-4.46v-8h1.47v17.15Z"/><path class="cls-1" d="M60.32,167.3v7.43H58.75v-7.38l-2.89-9.78H57.5l1.15,4.29c.39,1.47.74,2.82.91,3.82.17-1,.51-2.4.91-3.82l1.15-4.29h1.59Z"/><path class="cls-1" d="M70.27,175c-2.6,0-3.55-3.06-3.55-8.85s1-8.85,3.55-8.85,3.55,3.06,3.55,8.85S72.87,175,70.27,175Zm0-16.17c-1.27,0-1.91,2.23-1.91,7.33s.69,7.33,2,7.33,1.91-2.23,1.91-7.33S71.52,158.82,70.25,158.82Z"/><path class="cls-1" d="M81.66,175c-2.06,0-3.38-1.64-3.38-4.26V157.57h1.57v13.11c0,1.74.71,2.79,1.84,2.79s1.84-1.05,1.84-2.79V157.57h1.57v13.16C85.09,173.35,83.72,175,81.66,175Z"/><path class="cls-1" d="M98,159.09v5.83h2.89v1.52H98v8.28H96.38V157.57H102v1.52Z"/><path class="cls-1" d="M106.13,174.72V157.57h5.46v1.52h-3.9v5.71h2.72v1.52H107.7v6.89h4.14v1.52Z"/><path class="cls-1" d="M120.83,174.72l-1.89-8.09a11.28,11.28,0,0,1-1.37,0v8H116V157.57h2.45c2.16,0,3.82,1.42,3.82,4.41a4.67,4.67,0,0,1-1.79,4.07l2,8.68Zm-2.43-15.63h-.83v6.13h.83c1.42,0,2.28-1.13,2.28-3.11S119.83,159.09,118.41,159.09Z"/><path class="cls-1" d="M129.87,159v15.68h-1.57V159h-2.5v-1.47h6.57V159Z"/><path class="cls-1" d="M136.46,174.72V157.57H138v17.15Z"/><path class="cls-1" d="M143,174.72V157.57h1.57V173.2h3.63v1.52Z"/><path class="cls-1" d="M152.34,174.72V157.57h1.57v17.15Z"/><path class="cls-1" d="M158.27,174.72v-1.4l4.19-14.26h-3.82v-1.49H164V159l-4.17,14.26H164v1.5Z"/><path class="cls-1" d="M168.41,174.72V157.57h5.46v1.52H170v5.71h2.72v1.52H170v6.89h4.14v1.52Z"/><path class="cls-1" d="M7.24,222.43c-2.58,0-3.88-1.67-3.88-4.46V206.18h3.2v12c0,1.12.23,1.51.75,1.51s.71-.39.71-1.51v-12h3.2v11.63C11.21,220.8,10,222.43,7.24,222.43Z"/><path class="cls-1" d="M17.93,222.43c-2.67,0-3.54-1.83-3.77-4.55l3-.57c.16,2.12.34,2.54.78,2.54s.66-.34.66-1.42c0-1.53-.41-2.15-1.69-3.31-2.08-1.69-2.65-3.08-2.65-4.91,0-2.54,1.21-4.27,3.59-4.27s3.4,1.48,3.7,4.14l-2.95.59c-.14-1.87-.34-2.15-.75-2.15s-.62.32-.62,1.3.32,1.62,1.58,2.72c2.19,1.78,2.86,3.22,2.86,5.62C21.68,220.76,20.35,222.43,17.93,222.43Z"/><path class="cls-1" d="M24.62,222.17v-16h6.49V209H27.82v3.31h2.51v2.83H27.82v4.18h3.43v2.83Z"/><path class="cls-1" d="M45.2,222.17l-.32-3.11H43.38l-.3,3.11H40l2.47-16h3.38l2.45,16Zm-.66-6.88c-.11-1.44-.34-3.7-.46-5.53-.09,1.83-.3,4.09-.43,5.55l-.09,1h1.07Z"/><path class="cls-1" d="M61.1,222.43c-2.77,0-4-2.19-4-8.2s1.23-8.3,4.07-8.3,3.57,2.15,3.73,5.26l-3.11.46c-.09-2.31-.11-3-.64-3s-.75.75-.75,5.48c0,4.91.16,5.58.8,5.58.41,0,.57-.39.69-3l3.06.46C64.55,220.87,63.64,222.43,61.1,222.43Z"/><path class="cls-1" d="M71.86,222.43c-2.83,0-4-2.29-4-8.23s1.23-8.27,4.07-8.27,4,2.31,4,8.23S74.72,222.43,71.86,222.43Zm0-13.78c-.62,0-.75.66-.75,5.51s.16,5.55.75,5.55.78-.66.78-5.51S72.5,208.65,71.89,208.65Z"/><path class="cls-1" d="M82.9,222.43c-2.77,0-4-2.19-4-8.2s1.23-8.3,4.07-8.3,3.57,2.15,3.73,5.26l-3.11.46c-.09-2.31-.11-3-.64-3s-.75.75-.75,5.48c0,4.91.16,5.58.8,5.58.41,0,.57-.39.69-3l3.06.46C86.35,220.87,85.43,222.43,82.9,222.43Z"/><path class="cls-1" d="M93.66,222.43c-2.83,0-4-2.29-4-8.23s1.23-8.27,4.07-8.27,4,2.31,4,8.23S96.51,222.43,93.66,222.43Zm0-13.78c-.62,0-.75.66-.75,5.51s.16,5.55.75,5.55.78-.66.78-5.51S94.3,208.65,93.68,208.65Z"/><path class="cls-1" d="M100.83,215.27v-2.93h4.55v2.93Z"/><path class="cls-1" d="M112.09,222.43c-2.67,0-3.54-1.83-3.77-4.55l3-.57c.16,2.12.34,2.54.78,2.54s.66-.34.66-1.42c0-1.53-.41-2.15-1.69-3.31-2.08-1.69-2.65-3.08-2.65-4.91,0-2.54,1.21-4.27,3.59-4.27s3.4,1.48,3.7,4.14l-2.95.59c-.14-1.87-.34-2.15-.75-2.15s-.62.32-.62,1.3.32,1.62,1.58,2.72c2.19,1.78,2.86,3.22,2.86,5.62C115.84,220.76,114.51,222.43,112.09,222.43Z"/><path class="cls-1" d="M122.44,215.78h-.53v6.4h-3.13v-16h3.91c1.94,0,3.68,1.14,3.68,4.66S124.7,215.78,122.44,215.78Zm-.21-7.13h-.32v4.64h.27c.75,0,1-.66,1-2.33S123,208.65,122.24,208.65Z"/><path class="cls-1" d="M129.25,222.17v-16h6.49V209h-3.29v3.31H135v2.83h-2.51v4.18h3.43v2.83Z"/><path class="cls-1" d="M142.73,222.43c-2.77,0-4-2.19-4-8.2s1.23-8.3,4.07-8.3,3.56,2.15,3.73,5.26l-3.11.46c-.09-2.31-.11-3-.64-3s-.75.75-.75,5.48c0,4.91.16,5.58.8,5.58.41,0,.57-.39.69-3l3.06.46C146.18,220.87,145.26,222.43,142.73,222.43Z"/><path class="cls-1" d="M149.72,222.17v-16h3.2v16Z"/><path class="cls-1" d="M159.52,209v3.31h2.56v2.83h-2.56v7h-3.2v-16h6.51V209Z"/><path class="cls-1" d="M165.91,222.17v-16h3.2v16Z"/><path class="cls-1" d="M176.31,222.43c-2.77,0-4-2.19-4-8.2s1.23-8.3,4.07-8.3,3.57,2.15,3.73,5.26l-3.11.46c-.09-2.31-.11-3-.64-3s-.75.75-.75,5.48c0,4.91.16,5.58.8,5.58.41,0,.57-.39.69-3l3.06.46C179.76,220.87,178.85,222.43,176.31,222.43Z"/><path class="cls-1" d="M9.78,232.06v6.62H14.9v5.67H9.79v14H3.4v-32h13v5.66Z"/><path class="cls-1" d="M22.53,258.37v-32h13v5.66H28.92v6.62h5v5.67h-5v8.36h6.85v5.66Z"/><path class="cls-1" d="M50.94,258.36l-2.24-13.66h-.55v13.66H41.89v-32H49.7c4,0,7.35,2.42,7.36,9,0,3.52-1,6-2.65,7.49l2.93,15.44Zm-2.15-27h-.64V240h.55c1.51,0,2-1.23,2-4.29C50.66,232.37,50.24,231.32,48.78,231.32Z"/><path class="cls-1" d="M72.8,232v26.31H66.41V232h-4v-5.66H76.87V232Z"/><path class="cls-1" d="M82.62,258.36v-32H89v32Z"/><path class="cls-1" d="M95.82,258.35v-32h6.39v26.31h5.71v5.66Z"/><path class="cls-1" d="M113.95,258.35v-32h6.39v32Z"/><path class="cls-1" d="M126.55,258.35v-5.21L131,238.89c.68-2.28,1.87-5.67,2.37-7-1,0-2.19,0-3.56,0h-2.92v-5.53h13.06v5.21l-4.43,14.21c-.73,2.33-1.87,5.71-2.37,7.08,1,0,2.15,0,3.52,0h3.29v5.53Z"/><path class="cls-1" d="M146.14,258.34v-32h13V232h-6.58v6.62h5v5.67h-5v8.36h6.85v5.66Z"/><path class="cls-1" d="M174.55,258.33l-2.24-13.66h-.55v13.66H165.5v-32h7.81c4,0,7.35,2.42,7.36,9,0,3.52-1,6-2.65,7.49l2.93,15.44Zm-2.15-27h-.64v8.63h.55c1.51,0,2-1.23,2-4.29C174.27,232.34,173.86,231.29,172.39,231.29Z"/><path class="cls-1" d="M230.89,139.93H189.42l5.35,6,4.74,26.41a2,2,0,0,0,2,1.66h18.6a2,2,0,0,0,2-1.66l5-28.12h3.75a2.42,2.42,0,0,1,2.42,2.42v12.9a2.14,2.14,0,1,0,4.28,0v-12.9A6.7,6.7,0,0,0,230.89,139.93Zm-12.16,30.39H202.88l-3-16.93h21.92Z"/><path class="cls-1" d="M200.6,130.18h-2.83v-1.82h2.83V125.5h1.87v2.85h2.83v1.82h-2.83V133H200.6Z"/><path class="cls-1" d="M217.67,130.18h-2.83v-1.82h2.83V125.5h1.87v2.85h2.83v1.82h-2.83V133h-1.87Z"/><path class="cls-1" d="M209.13,121.18h-2.83v-1.82h2.83V116.5H211v2.85h2.83v1.82H211V124h-1.87Z"/><path d="M236.54,233.89a1,1,0,0,0,1-1V219a8.44,8.44,0,0,0-8.44-8.44h-3.63v-1.3h1.35V206a2.18,2.18,0,0,0-2.18-2.18H218a2.18,2.18,0,0,0-2.18,2.18v3.23h1.35v1.3h-3.63a8.44,8.44,0,0,0-8.44,8.44v13.85a1,1,0,0,0,1,1h0v3.47c-3.12-.79-5.91-.89-7.83-.2a3.85,3.85,0,0,0-2.32,1.94,14.45,14.45,0,0,0,6.92,19.2,14.07,14.07,0,0,0,1.74.68,14.39,14.39,0,0,0,23.59,1.39h5.8a3.46,3.46,0,0,0,3.46-3.46v-7.06a1,1,0,0,0-1-1h0V233.89Zm-27.91-14a5.42,5.42,0,0,1,5.42-5.42h4.11a1.8,1.8,0,0,1,1.28,3.08l-7.73,7.73a1.8,1.8,0,0,1-3.08-1.28ZM200,244.53c-1.57-1.69-2.21-3.23-1.73-4.23.68-1.46,3.79-1.87,8-.75a27.58,27.58,0,0,1,3.47,1.18c.46.19.92.39,1.39.61a24.66,24.66,0,0,1,6,3.76c-.85.22-1.62.47-2.36.73l-.52.18a21.46,21.46,0,0,0-4.22-2.73l-.26-.11a15.83,15.83,0,0,0-3.47-1.14,5.88,5.88,0,0,0-2.81,0,.68.68,0,0,0-.39.27c-.09.2.08.85.94,1.77a11.91,11.91,0,0,0,2.26,1.81,17.54,17.54,0,0,0,2,1.11l1.47.67.57.24-.57.35-.12.08a20.07,20.07,0,0,0-1.95,1.41l-.83-.37-.92-.45A20.87,20.87,0,0,1,200,244.53Zm28.74,4c-.57,2.17-4.09,5.22-9.72,7.25-6.76,2.43-12.1,1.82-12.86-.28-.43-1.19.58-3,2.77-4.7l.06,0a21.36,21.36,0,0,1,3.53-2.22,29.16,29.16,0,0,1,3.37-1.46c6.75-2.43,12.1-1.82,12.86.28A2,2,0,0,1,228.7,248.57Zm-19-.24h0l.08,0Zm23.26.24h-1.79a14.43,14.43,0,0,0-.55-2c-1-2.75-5.48-3.68-11.48-2.39a29.24,29.24,0,0,0-7.25-4.73c-.73-.34-1.46-.65-2.18-.93v-4.26H233Z"/><path d="M216.13,248.92c-4.14,1.49-6.54,3.85-6.12,5s3.79,1.47,7.92,0,6.54-3.85,6.11-5S220.26,247.43,216.13,248.92Z"/><rect class="cls-1" x="199.72" y="47.82" width="3.35" height="9.3"/><path class="cls-1" d="M236.58,75.77h-.92c-.88-26.36-10.31-43.29-23.37-43.29H197.92c-5.84.09-7.67,12.8-6.45,16.57,1.3,4,6.44,4.13,9.75,4.13H204c3.31,0,7.54-.7,9.39-2.08,1.08-.81,2.81-2,4.58.18s.67,15.38.17,21.29a3.9,3.9,0,0,1-3.61,3.21H191.39a1.12,1.12,0,0,0-1.12,1.12v3.82a1.12,1.12,0,0,0,1.12,1.12h45.18a1.12,1.12,0,0,0,1.12-1.12V76.89A1.12,1.12,0,0,0,236.58,75.77Zm-10.1-17.35a2.13,2.13,0,1,1-2.13,2.13A2.13,2.13,0,0,1,226.47,58.42Zm0,14.51a3.59,3.59,0,0,1-.91-7.06V68.6a.56.56,0,0,0,.56.56h.69a.56.56,0,0,0,.56-.56V65.87a3.59,3.59,0,0,1-.91,7.06Z"/><path class="cls-1" d="M186,57.59c.18,4.58,2.12,9.87,4.91,14.47,1.77,3.15,3.94,5.2,5.45,5.2h10.11c1.52,0,3.67-2.06,5.33-5,2.86-4.64,4.91-10,5-14.67,0-1.12-.4-1.22-1.12-1.22H187.18C186.55,56.38,185.93,56.33,186,57.59Zm9.37,15.89a7.81,7.81,0,0,1-1-1.72c-1.83-4-3-8.75-2.82-12.56h7.54c0,3.81.15,8.54.41,12.56,0,.64.08,1.22.14,1.72Z"/></svg>