<svg id="Artwork" xmlns="http://www.w3.org/2000/svg" viewBox="0 0 241.66 241.74"><defs><style>.cls-1{fill:#231f20;}.cls-2{fill:#fff;}</style></defs><title>do_this-high-porosity</title><path class="cls-1" d="M3.35,80a1.5,1.5,0,0,1-1.5-1.5A1.5,1.5,0,0,1,3.64,77a1.28,1.28,0,0,1,.28.09,1.29,1.29,0,0,1,.26.14,1.3,1.3,0,0,1,.23.18,2.16,2.16,0,0,1,.19.23,1.28,1.28,0,0,1,.13.26,1.33,1.33,0,0,1,.09.28,1.43,1.43,0,0,1-.09.87,1.61,1.61,0,0,1-.13.26,2,2,0,0,1-.19.22,1.37,1.37,0,0,1-.23.19l-.26.14a1.29,1.29,0,0,1-.28.08A1.37,1.37,0,0,1,3.35,80Z"/><path class="cls-1" d="M221.67,78.46a1.5,1.5,0,0,1,1.5-1.5h0a1.5,1.5,0,0,1,1.5,1.5h0a1.5,1.5,0,0,1-1.5,1.5h0A1.5,1.5,0,0,1,221.67,78.46Zm-11,0a1.5,1.5,0,0,1,1.5-1.5h0a1.5,1.5,0,0,1,1.5,1.5h0a1.5,1.5,0,0,1-1.5,1.5h0A1.5,1.5,0,0,1,210.68,78.46Zm-11,0a1.5,1.5,0,0,1,1.49-1.5h0a1.51,1.51,0,0,1,1.51,1.5h0a1.51,1.51,0,0,1-1.51,1.5h0A1.5,1.5,0,0,1,199.69,78.46Zm-11,0a1.5,1.5,0,0,1,1.49-1.5h0a1.51,1.51,0,0,1,1.51,1.5h0a1.51,1.51,0,0,1-1.51,1.5h0A1.5,1.5,0,0,1,188.7,78.46Zm-11,0a1.5,1.5,0,0,1,1.5-1.5h0a1.5,1.5,0,0,1,1.5,1.5h0a1.5,1.5,0,0,1-1.5,1.5h0A1.5,1.5,0,0,1,177.7,78.46Zm-11,0a1.5,1.5,0,0,1,1.5-1.5h0a1.5,1.5,0,0,1,1.5,1.5h0a1.5,1.5,0,0,1-1.5,1.5h0A1.5,1.5,0,0,1,166.71,78.46Zm-11,0a1.5,1.5,0,0,1,1.5-1.5h0a1.51,1.51,0,0,1,1.5,1.5h0a1.5,1.5,0,0,1-1.5,1.5h0A1.5,1.5,0,0,1,155.72,78.46Zm-11,0a1.5,1.5,0,0,1,1.5-1.5h0a1.5,1.5,0,0,1,1.5,1.5h0a1.5,1.5,0,0,1-1.5,1.5h0A1.5,1.5,0,0,1,144.73,78.46Zm-11,0a1.5,1.5,0,0,1,1.5-1.5h0a1.5,1.5,0,0,1,1.5,1.5h0a1.5,1.5,0,0,1-1.5,1.5h0A1.5,1.5,0,0,1,133.74,78.46Zm-11,0a1.5,1.5,0,0,1,1.5-1.5h0a1.5,1.5,0,0,1,1.5,1.5h0a1.5,1.5,0,0,1-1.5,1.5h0A1.5,1.5,0,0,1,122.75,78.46Zm-11,0a1.5,1.5,0,0,1,1.5-1.5h0a1.51,1.51,0,0,1,1.5,1.5h0a1.5,1.5,0,0,1-1.5,1.5h0A1.5,1.5,0,0,1,111.76,78.46Zm-11,0a1.5,1.5,0,0,1,1.5-1.5h0a1.51,1.51,0,0,1,1.5,1.5h0a1.5,1.5,0,0,1-1.5,1.5h0A1.5,1.5,0,0,1,100.77,78.46Zm-11,0a1.5,1.5,0,0,1,1.5-1.5h0a1.51,1.51,0,0,1,1.5,1.5h0a1.5,1.5,0,0,1-1.5,1.5h0A1.5,1.5,0,0,1,89.78,78.46Zm-11,0A1.51,1.51,0,0,1,80.29,77h0a1.5,1.5,0,0,1,1.49,1.5h0A1.5,1.5,0,0,1,80.29,80h0A1.5,1.5,0,0,1,78.78,78.46Zm-11,0A1.51,1.51,0,0,1,69.3,77h0a1.5,1.5,0,0,1,1.49,1.5h0A1.5,1.5,0,0,1,69.3,80h0A1.5,1.5,0,0,1,67.79,78.46Zm-11,0A1.51,1.51,0,0,1,58.3,77h0a1.5,1.5,0,0,1,1.5,1.5h0A1.5,1.5,0,0,1,58.3,80h0A1.5,1.5,0,0,1,56.8,78.46Zm-11,0a1.5,1.5,0,0,1,1.5-1.5h0a1.5,1.5,0,0,1,1.5,1.5h0a1.5,1.5,0,0,1-1.5,1.5h0A1.5,1.5,0,0,1,45.81,78.46Zm-11,0a1.5,1.5,0,0,1,1.5-1.5h0a1.5,1.5,0,0,1,1.5,1.5h0a1.5,1.5,0,0,1-1.5,1.5h0A1.5,1.5,0,0,1,34.82,78.46Zm-11,0a1.5,1.5,0,0,1,1.5-1.5h0a1.5,1.5,0,0,1,1.5,1.5h0a1.5,1.5,0,0,1-1.5,1.5h0A1.5,1.5,0,0,1,23.83,78.46Zm-11,0a1.51,1.51,0,0,1,1.5-1.5h0a1.5,1.5,0,0,1,1.5,1.5h0a1.5,1.5,0,0,1-1.5,1.5h0A1.5,1.5,0,0,1,12.84,78.46Z"/><path class="cls-1" d="M234.16,80a1.36,1.36,0,0,1-.29,0,1.07,1.07,0,0,1-.29-.08,1.24,1.24,0,0,1-.25-.14,1,1,0,0,1-.23-.19,2,2,0,0,1-.19-.22c0-.09-.1-.17-.14-.26a2.71,2.71,0,0,1-.08-.28,1.48,1.48,0,0,1,0-.3,1.47,1.47,0,0,1,0-.29,2.74,2.74,0,0,1,.08-.28,1.49,1.49,0,0,1,.33-.49,1.55,1.55,0,0,1,2.12,0,1.33,1.33,0,0,1,.18.23.93.93,0,0,1,.14.26,1.43,1.43,0,0,1,0,1.15,1.09,1.09,0,0,1-.14.26,1.25,1.25,0,0,1-.18.22,1.38,1.38,0,0,1-.23.19,1.31,1.31,0,0,1-.26.14.91.91,0,0,1-.28.08A1.35,1.35,0,0,1,234.16,80Z"/><path class="cls-1" d="M3.84,164.46a1.37,1.37,0,0,1-.29,0,.9.9,0,0,1-.28-.08L3,164.21a1.38,1.38,0,0,1-.23-.19,2,2,0,0,1-.19-.22,2.16,2.16,0,0,1-.14-.26c0-.09-.06-.19-.08-.28a1.45,1.45,0,0,1,0-.59c0-.09,0-.19.08-.28a2.16,2.16,0,0,1,.14-.26,2.16,2.16,0,0,1,.19-.23,2,2,0,0,1,.23-.18,1.28,1.28,0,0,1,.26-.14,1.28,1.28,0,0,1,.28-.09,1.42,1.42,0,0,1,.58,0,1.27,1.27,0,0,1,.28.09,1.07,1.07,0,0,1,.26.14,1.38,1.38,0,0,1,.23.18A1.51,1.51,0,0,1,5.34,163a1.56,1.56,0,0,1,0,.3c0,.09,0,.19-.08.28a2,2,0,0,1-.14.26,1.9,1.9,0,0,1-.19.22,1,1,0,0,1-.23.19,1.59,1.59,0,0,1-.26.14.9.9,0,0,1-.28.08A1.35,1.35,0,0,1,3.84,164.46Z"/><path class="cls-1" d="M222.16,163a1.5,1.5,0,0,1,1.5-1.5h0a1.5,1.5,0,0,1,1.5,1.5h0a1.5,1.5,0,0,1-1.5,1.5h0A1.5,1.5,0,0,1,222.16,163Zm-11,0a1.5,1.5,0,0,1,1.5-1.5h0a1.51,1.51,0,0,1,1.5,1.5h0a1.5,1.5,0,0,1-1.5,1.5h0A1.5,1.5,0,0,1,211.17,163Zm-11,0a1.5,1.5,0,0,1,1.5-1.5h0a1.5,1.5,0,0,1,1.5,1.5h0a1.5,1.5,0,0,1-1.5,1.5h0A1.5,1.5,0,0,1,200.18,163Zm-11,0a1.51,1.51,0,0,1,1.51-1.5h0a1.5,1.5,0,0,1,1.49,1.5h0a1.5,1.5,0,0,1-1.49,1.5h0A1.51,1.51,0,0,1,189.18,163Zm-11,0a1.5,1.5,0,0,1,1.49-1.5h0a1.51,1.51,0,0,1,1.51,1.5h0a1.51,1.51,0,0,1-1.51,1.5h0A1.5,1.5,0,0,1,178.2,163Zm-11,0a1.51,1.51,0,0,1,1.51-1.5h0a1.5,1.5,0,0,1,1.49,1.5h0a1.5,1.5,0,0,1-1.49,1.5h0A1.5,1.5,0,0,1,167.2,163Zm-11,0a1.51,1.51,0,0,1,1.5-1.5h0a1.5,1.5,0,0,1,1.5,1.5h0a1.5,1.5,0,0,1-1.5,1.5h0A1.5,1.5,0,0,1,156.21,163Zm-11,0a1.5,1.5,0,0,1,1.5-1.5h0a1.51,1.51,0,0,1,1.5,1.5h0a1.5,1.5,0,0,1-1.5,1.5h0A1.5,1.5,0,0,1,145.22,163Zm-11,0a1.5,1.5,0,0,1,1.5-1.5h0a1.5,1.5,0,0,1,1.5,1.5h0a1.5,1.5,0,0,1-1.5,1.5h0A1.5,1.5,0,0,1,134.23,163Zm-11,0a1.5,1.5,0,0,1,1.5-1.5h0a1.5,1.5,0,0,1,1.5,1.5h0a1.5,1.5,0,0,1-1.5,1.5h0A1.5,1.5,0,0,1,123.24,163Zm-11,0a1.5,1.5,0,0,1,1.5-1.5h0a1.5,1.5,0,0,1,1.5,1.5h0a1.5,1.5,0,0,1-1.5,1.5h0A1.5,1.5,0,0,1,112.25,163Zm-11,0a1.5,1.5,0,0,1,1.5-1.5h0a1.51,1.51,0,0,1,1.5,1.5h0a1.5,1.5,0,0,1-1.5,1.5h0A1.5,1.5,0,0,1,101.26,163Zm-11,0a1.5,1.5,0,0,1,1.5-1.5h0a1.5,1.5,0,0,1,1.5,1.5h0a1.5,1.5,0,0,1-1.5,1.5h0A1.5,1.5,0,0,1,90.27,163Zm-11,0a1.5,1.5,0,0,1,1.5-1.5h0a1.51,1.51,0,0,1,1.5,1.5h0a1.5,1.5,0,0,1-1.5,1.5h0A1.5,1.5,0,0,1,79.28,163Zm-11,0a1.51,1.51,0,0,1,1.5-1.5h0a1.51,1.51,0,0,1,1.51,1.5h0a1.51,1.51,0,0,1-1.51,1.5h0A1.5,1.5,0,0,1,68.28,163Zm-11,0a1.51,1.51,0,0,1,1.51-1.5h0a1.5,1.5,0,0,1,1.49,1.5h0a1.5,1.5,0,0,1-1.49,1.5h0A1.5,1.5,0,0,1,57.29,163Zm-11,0a1.5,1.5,0,0,1,1.49-1.5h0a1.51,1.51,0,0,1,1.51,1.5h0a1.51,1.51,0,0,1-1.51,1.5h0A1.49,1.49,0,0,1,46.31,163Zm-11,0a1.5,1.5,0,0,1,1.5-1.5h0a1.5,1.5,0,0,1,1.5,1.5h0a1.5,1.5,0,0,1-1.5,1.5h0A1.5,1.5,0,0,1,35.31,163Zm-11,0a1.5,1.5,0,0,1,1.5-1.5h0a1.5,1.5,0,0,1,1.5,1.5h0a1.5,1.5,0,0,1-1.5,1.5h0A1.5,1.5,0,0,1,24.32,163Zm-11,0a1.5,1.5,0,0,1,1.5-1.5h0a1.5,1.5,0,0,1,1.5,1.5h0a1.5,1.5,0,0,1-1.5,1.5h0A1.5,1.5,0,0,1,13.33,163Z"/><path class="cls-1" d="M234.65,164.46a1.35,1.35,0,0,1-.29,0,1.3,1.3,0,0,1-.28-.08,1.63,1.63,0,0,1-.26-.14,1.07,1.07,0,0,1-.23-.19,2,2,0,0,1-.19-.22,1.23,1.23,0,0,1-.13-.26,1.43,1.43,0,0,1,0-1.15,1.23,1.23,0,0,1,.13-.26,2.16,2.16,0,0,1,.19-.23,1,1,0,0,1,.23-.18,1.08,1.08,0,0,1,.26-.14,1.29,1.29,0,0,1,.28-.09,1.42,1.42,0,0,1,.58,0,1.6,1.6,0,0,1,.54.23,1.27,1.27,0,0,1,.23.18,1.49,1.49,0,0,1,.33.49,2.74,2.74,0,0,1,.08.28,1.47,1.47,0,0,1,0,.29,1.48,1.48,0,0,1,0,.3,2.71,2.71,0,0,1-.08.28,2.16,2.16,0,0,1-.14.26,2,2,0,0,1-.19.22,1.33,1.33,0,0,1-.23.19l-.26.14a1.31,1.31,0,0,1-.28.08A1.36,1.36,0,0,1,234.65,164.46Z"/><path class="cls-1" d="M3.84,9.29a1.4,1.4,0,0,1-.29,0l-.28-.08L3,9a2.17,2.17,0,0,1-.23-.19,2.16,2.16,0,0,1-.19-.23,2.16,2.16,0,0,1-.14-.26,2.31,2.31,0,0,1-.08-.28,1.4,1.4,0,0,1,0-.58,2.31,2.31,0,0,1,.08-.28A2.16,2.16,0,0,1,2.59,7a2.12,2.12,0,0,1,.19-.23A2.17,2.17,0,0,1,3,6.54a1.24,1.24,0,0,1,.26-.13,1.31,1.31,0,0,1,.28-.09,1.42,1.42,0,0,1,.58,0,1.3,1.3,0,0,1,.28.09,1,1,0,0,1,.26.13,1.45,1.45,0,0,1,.23.19A2,2,0,0,1,5.09,7a2,2,0,0,1,.14.26,2.31,2.31,0,0,1,.08.28,1.45,1.45,0,0,1,0,.58,2.31,2.31,0,0,1-.08.28,2,2,0,0,1-.14.26,2,2,0,0,1-.19.23A1.45,1.45,0,0,1,4.67,9a1.59,1.59,0,0,1-.26.14l-.28.08A1.38,1.38,0,0,1,3.84,9.29Z"/><path class="cls-1" d="M50,7.79a1.5,1.5,0,0,1,1.5-1.5h0A1.5,1.5,0,0,1,53,7.79h0a1.5,1.5,0,0,1-1.5,1.5h0A1.5,1.5,0,0,1,50,7.79Zm-11.91,0a1.5,1.5,0,0,1,1.5-1.5h0a1.5,1.5,0,0,1,1.5,1.5h0a1.5,1.5,0,0,1-1.5,1.5h0A1.5,1.5,0,0,1,38.07,7.79Zm-11.91,0a1.5,1.5,0,0,1,1.5-1.5h0a1.5,1.5,0,0,1,1.5,1.5h0a1.5,1.5,0,0,1-1.5,1.5h0A1.5,1.5,0,0,1,26.16,7.79Zm-11.91,0a1.5,1.5,0,0,1,1.5-1.5h0a1.5,1.5,0,0,1,1.5,1.5h0a1.5,1.5,0,0,1-1.5,1.5h0A1.5,1.5,0,0,1,14.25,7.79Z"/><path class="cls-1" d="M63.39,9.29a1.52,1.52,0,0,1-1.06-.44,1.5,1.5,0,0,1,0-2.12,1.55,1.55,0,0,1,2.12,0,1.38,1.38,0,0,1,.19.23,1.32,1.32,0,0,1,.14.26,1.27,1.27,0,0,1,.09.28,1.4,1.4,0,0,1,0,.58,1.57,1.57,0,0,1-.09.29,1.26,1.26,0,0,1-.14.25,1.09,1.09,0,0,1-.19.23,1.36,1.36,0,0,1-.22.19L64,9.18l-.28.08Z"/><path class="cls-1" d="M177.87,9.29a1.5,1.5,0,0,1-1.5-1.5,1.39,1.39,0,0,1,0-.29,2.15,2.15,0,0,1,.08-.28,2.16,2.16,0,0,1,.14-.26,2.12,2.12,0,0,1,.19-.23,1.55,1.55,0,0,1,2.12,0,2.11,2.11,0,0,1,.19.23,2.17,2.17,0,0,1,.14.26,2.31,2.31,0,0,1,.08.28,1.39,1.39,0,0,1,0,.29,1.5,1.5,0,0,1-1.5,1.5Z"/><path class="cls-1" d="M224,7.79a1.5,1.5,0,0,1,1.5-1.5h0a1.5,1.5,0,0,1,1.5,1.5h0a1.5,1.5,0,0,1-1.5,1.5h0A1.5,1.5,0,0,1,224,7.79Zm-11.91,0a1.5,1.5,0,0,1,1.5-1.5h0a1.5,1.5,0,0,1,1.5,1.5h0a1.5,1.5,0,0,1-1.5,1.5h0A1.5,1.5,0,0,1,212.1,7.79Zm-11.91,0a1.5,1.5,0,0,1,1.5-1.5h0a1.5,1.5,0,0,1,1.5,1.5h0a1.5,1.5,0,0,1-1.5,1.5h0A1.5,1.5,0,0,1,200.19,7.79Zm-11.91,0a1.5,1.5,0,0,1,1.5-1.5h0a1.5,1.5,0,0,1,1.5,1.5h0a1.5,1.5,0,0,1-1.5,1.5h0A1.5,1.5,0,0,1,188.28,7.79Z"/><path class="cls-1" d="M237.42,9.29l-.29,0-.28-.08L236.59,9a1.44,1.44,0,0,1-.22-.19,1.48,1.48,0,0,1-.45-1.06,1.46,1.46,0,0,1,0-.29,1.33,1.33,0,0,1,.09-.28,1.28,1.28,0,0,1,.14-.26,1.33,1.33,0,0,1,.19-.23,1.44,1.44,0,0,1,.22-.19,1.27,1.27,0,0,1,.26-.13,1.31,1.31,0,0,1,.28-.09,1.47,1.47,0,0,1,.59,0,1.51,1.51,0,0,1,.28.09,1.27,1.27,0,0,1,.26.13,2.26,2.26,0,0,1,.23.19,1.75,1.75,0,0,1,.32.49.92.92,0,0,1,.08.28,1.48,1.48,0,0,1,0,.29,1.52,1.52,0,0,1-.44,1.06,2.26,2.26,0,0,1-.23.19l-.26.14-.28.08Z"/><path class="cls-1" d="M236,103.76c-5.27-5.27-16.18-3-25.4,4.79L213,111c7.22-6,15.41-7.81,19.24-4,4.28,4.28,1.49,14-6.24,21.73S208.58,139.3,204.31,135c-3.77-3.77-2-11.77,3.71-18.91l-2.47-2.47c-7.6,9.14-9.72,19.86-4.52,25.06,5.75,5.75,18.23,2.59,27.88-7.06S241.71,109.51,236,103.76Z"/><path class="cls-1" d="M209.71,117.81c-3.22,4.53-4,9.45-1.5,11.92,3,3,9.59,1.27,14.72-3.86s6.86-11.72,3.86-14.72c-2.5-2.5-7.48-1.7-12,1.59L217,115c2.4-1.33,4.81-1.5,6.11-.21,1.82,1.82.77,5.81-2.34,8.92s-7.1,4.16-8.92,2.34c-1.27-1.27-1.13-3.61.13-6Z"/><path class="cls-1" d="M204.13,109.41l12.3,12.3c.23.38,1,.16,1.7-.54s.91-1.47.54-1.7h0l-12.31-12.31.37-3.64L199.22,96l-1.1,5.21-5.15,1,7.51,7.51Z"/><path class="cls-1" d="M4.72,106.32c-1.52,0-2.49-1.21-2.49-3.14v-9.7H3.39v9.67c0,1.28.52,2.06,1.36,2.06s1.36-.78,1.36-2.06V93.47H7.25v9.7C7.25,105.11,6.24,106.32,4.72,106.32Z"/><path class="cls-1" d="M13.16,94.55v11.56H12V94.55H10.16V93.47H15v1.08Z"/><path class="cls-1" d="M18,106.12V93.47h1.16v12.65Z"/><path class="cls-1" d="M22.84,106.12V93.47H24V105h2.67v1.12Z"/><path class="cls-1" d="M29.73,106.12V93.47h1.16v12.65Z"/><path class="cls-1" d="M34.1,106.12v-1l3.09-10.52H34.37v-1.1h4v1L35.29,105h3.07v1.1Z"/><path class="cls-1" d="M41.58,106.12V93.47h4v1.12H42.74V98.8h2v1.12h-2V105h3.05v1.12Z"/><path class="cls-1" d="M56.07,101.06h-.42v5.06H53.18V93.47h3.09c1.54,0,2.91.9,2.91,3.69S57.86,101.06,56.07,101.06Zm-.16-5.64h-.25v3.67h.22c.6,0,.78-.52.78-1.84S56.49,95.42,55.91,95.42Z"/><path class="cls-1" d="M65,106.12l-.89-5.4h-.22v5.4H61.46V93.47h3.09c1.59,0,2.91,1,2.91,3.58a3.79,3.79,0,0,1-1,3l1.16,6.11Zm-.85-10.7h-.25v3.42h.22c.6,0,.78-.49.78-1.7S64.76,95.42,64.18,95.42Z"/><path class="cls-1" d="M70,106.12V93.47H75.1v2.24H72.5v2.62h2v2.24h-2v3.31h2.71v2.24Z"/><path class="cls-1" d="M80.63,106.32c-2.19,0-3.18-1.74-3.18-6.49s1-6.56,3.22-6.56,2.82,1.7,2.95,4.16l-2.46.36c-.07-1.83-.09-2.37-.51-2.37s-.6.6-.6,4.34.13,4.41.63,4.41c.33,0,.45-.31.54-2.35l2.42.36C83.36,105.09,82.63,106.32,80.63,106.32Z"/><path class="cls-1" d="M86.16,106.12V93.47h2.53v12.65Z"/><path class="cls-1" d="M94.05,106.32c-2.11,0-2.8-1.45-3-3.6l2.38-.45c.13,1.68.27,2,.61,2s.52-.27.52-1.12a3,3,0,0,0-1.34-2.62c-1.64-1.34-2.1-2.44-2.1-3.88,0-2,1-3.38,2.84-3.38s2.69,1.17,2.93,3.27L94.59,97c-.11-1.48-.27-1.7-.6-1.7s-.49.25-.49,1,.25,1.28,1.25,2.15A5,5,0,0,1,97,102.94C97,105,96,106.32,94.05,106.32Z"/><path class="cls-1" d="M99.35,106.12V93.47h5.13v2.24h-2.6v2.62h2v2.24h-2v3.31h2.71v2.24Z"/><path class="cls-1" d="M116.17,106.12l-.9-2.91c-.43-1.43-.9-3.11-1.08-4,0,.87.07,2.42.07,3.78v3.11h-2.31V93.47h2.19l.61,1.86c.47,1.43,1,3.25,1.21,4.12-.05-.83-.11-2.66-.11-3.94v-2h2.31v12.65Z"/><path class="cls-1" d="M123.86,106.32c-2,0-3.07-1.32-3.07-3.52V93.47h2.53V103c0,.89.18,1.19.6,1.19s.56-.31.56-1.19v-9.5H127v9.2C127,105,126.07,106.32,123.86,106.32Z"/><path class="cls-1" d="M133.37,95.71v10.41h-2.53V95.71h-1.59V93.47H135v2.24Z"/><path class="cls-1" d="M140.81,106.12l-.89-5.4h-.22v5.4h-2.48V93.47h3.09c1.59,0,2.91,1,2.91,3.58a3.79,3.79,0,0,1-1,3l1.16,6.11ZM140,95.42h-.25v3.42h.22c.6,0,.78-.49.78-1.7S140.54,95.42,140,95.42Z"/><path class="cls-1" d="M145.76,106.12V93.47h2.53v12.65Z"/><path class="cls-1" d="M151,106.12V93.47h5.13v2.24h-2.6v2.62h2v2.24h-2v3.31h2.71v2.24Z"/><path class="cls-1" d="M162.87,106.12l-.9-2.91c-.43-1.43-.9-3.11-1.08-4,0,.87.07,2.42.07,3.78v3.11h-2.31V93.47h2.19l.61,1.86c.47,1.43,1,3.25,1.21,4.12-.05-.83-.11-2.66-.11-3.94v-2h2.31v12.65Z"/><path class="cls-1" d="M171.26,95.71v10.41h-2.53V95.71h-1.59V93.47h5.73v2.24Z"/><path class="cls-1" d="M6.15,127C3.29,127,2,124.69,2,118.47s1.28-8.59,4.21-8.59,3.69,2.22,3.86,5.44l-3.22.47c-.09-2.39-.12-3.1-.66-3.1s-.78.78-.78,5.68c0,5.09.17,5.77.83,5.77.43,0,.59-.4.71-3.07l3.17.47C9.72,125.35,8.78,127,6.15,127Z"/><path class="cls-1" d="M17.29,127c-2.93,0-4.16-2.37-4.16-8.52s1.28-8.56,4.21-8.56,4.19,2.39,4.19,8.52S20.25,127,17.29,127Zm0-14.26c-.64,0-.78.69-.78,5.7s.17,5.75.78,5.75.8-.69.8-5.7S18,112.7,17.32,112.7Z"/><path class="cls-1" d="M30.33,126.7l-1.18-3.81c-.57-1.87-1.18-4.07-1.42-5.2,0,1.14.09,3.17.09,4.94v4.07h-3V110.14h2.86l.8,2.44c.62,1.87,1.33,4.26,1.59,5.39-.07-1.09-.14-3.48-.14-5.16v-2.67h3V126.7Z"/><path class="cls-1" d="M41.3,113.08V126.7H38V113.08H35.91v-2.93h7.5v2.93Z"/><path class="cls-1" d="M51,126.7l-1.16-7.07h-.28v7.07H46.36V110.14h4c2.08,0,3.81,1.25,3.81,4.68a5,5,0,0,1-1.37,3.88l1.51,8Zm-1.11-14h-.33v4.47h.28c.78,0,1-.64,1-2.22S50.69,112.7,49.94,112.7Z"/><path class="cls-1" d="M61.43,127c-2.93,0-4.16-2.37-4.16-8.52s1.28-8.56,4.21-8.56,4.19,2.39,4.19,8.52S64.39,127,61.43,127Zm0-14.26c-.64,0-.78.69-.78,5.7s.17,5.75.78,5.75.8-.69.8-5.7S62.09,112.7,61.46,112.7Z"/><path class="cls-1" d="M68.93,126.7V110.14h3.31v13.63h3v2.93Z"/><path class="cls-1" d="M86.65,111.61v5.63h2.79v1.47H86.65v8H85.13V110.14h5.42v1.47Z"/><path class="cls-1" d="M99.21,126.7l-1.82-7.81a11,11,0,0,1-1.32,0v7.76H94.55V110.14h2.37c2.08,0,3.69,1.37,3.69,4.26a4.51,4.51,0,0,1-1.73,3.93l1.94,8.37Zm-2.34-15.09h-.8v5.91h.8c1.37,0,2.2-1.09,2.2-3S98.24,111.61,96.87,111.61Z"/><path class="cls-1" d="M107.93,127c-2.51,0-3.43-3-3.43-8.54s.92-8.54,3.43-8.54,3.43,3,3.43,8.54S110.44,127,107.93,127Zm0-15.61c-1.23,0-1.85,2.15-1.85,7.07s.66,7.07,1.89,7.07,1.85-2.15,1.85-7.07S109.14,111.35,107.91,111.35Z"/><path class="cls-1" d="M122.36,126.7v-8.94c0-1.35,0-2.44,0-3.57-.17,1.18-.33,2.11-.64,3.6l-2,9.42-2-9.42c-.31-1.49-.45-2.37-.64-3.6,0,1.14,0,2.08,0,3.57v8.94h-1.37V110.14h1.68l1.7,7.95a32.65,32.65,0,0,1,.64,4.38,32.38,32.38,0,0,1,.66-4.38l1.7-7.95h1.66V126.7Z"/><path class="cls-1" d="M138,119.53v7.17h-1.51v-7.12l-2.79-9.44h1.58l1.11,4.14c.38,1.42.71,2.72.88,3.69.17-1,.5-2.32.88-3.69l1.11-4.14h1.54Z"/><path class="cls-1" d="M147.63,127c-2.51,0-3.43-3-3.43-8.54s.92-8.54,3.43-8.54,3.43,3,3.43,8.54S150.13,127,147.63,127Zm0-15.61c-1.23,0-1.85,2.15-1.85,7.07s.66,7.07,1.89,7.07,1.85-2.15,1.85-7.07S148.83,111.35,147.6,111.35Z"/><path class="cls-1" d="M158.62,127c-2,0-3.26-1.58-3.26-4.12v-12.7h1.51V122.8c0,1.68.69,2.7,1.77,2.7s1.77-1,1.77-2.7V110.14h1.51v12.7C161.94,125.38,160.61,127,158.62,127Z"/><path class="cls-1" d="M171.26,126.7l-1.82-7.81a11,11,0,0,1-1.32,0v7.76H166.6V110.14H169c2.08,0,3.69,1.37,3.69,4.26a4.51,4.51,0,0,1-1.73,3.93l1.94,8.37Zm-2.34-15.09h-.8v5.91h.8c1.37,0,2.2-1.09,2.2-3S170.29,111.61,168.91,111.61Z"/><path class="cls-1" d="M3.81,131.3V137H6.65v1.49H3.81v8.12H2.27V129.81h5.5v1.49Z"/><path class="cls-1" d="M16.81,146.63l-.67-4.42H13.44l-.67,4.42H11.16L14,129.81h1.68l2.81,16.82Zm-1.39-9.3c-.26-1.87-.48-3.36-.62-5-.14,1.63-.36,3.12-.63,5l-.5,3.41h2.26Z"/><path class="cls-1" d="M26.18,146.63H24.64l-2.76-16.82h1.54l1.37,9.47c.26,1.92.48,3.44.63,5.09.14-1.66.36-3.17.62-5.09l1.37-9.47h1.54Z"/><path class="cls-1" d="M36.15,146.9c-2.55,0-3.48-3-3.48-8.67s.94-8.67,3.48-8.67,3.48,3,3.48,8.67S38.7,146.9,36.15,146.9Zm0-15.86c-1.25,0-1.87,2.19-1.87,7.18s.67,7.18,1.92,7.18S38,143.22,38,138.22,37.38,131,36.13,131Z"/><path class="cls-1" d="M48.76,146.63l-1.85-7.93a11.16,11.16,0,0,1-1.35,0v7.88H44V129.81h2.4c2.11,0,3.75,1.39,3.75,4.32a4.58,4.58,0,0,1-1.75,4l2,8.51ZM46.39,131.3h-.82v6h.82c1.39,0,2.23-1.11,2.23-3.05S47.78,131.3,46.39,131.3Z"/><path class="cls-1" d="M54.63,146.63V129.81h1.54v16.82Z"/><path class="cls-1" d="M64.17,131.25v15.38H62.63V131.25H60.18v-1.44h6.44v1.44Z"/><path class="cls-1" d="M70.51,146.63V129.81h5.36v1.49H72v5.6h2.67v1.49H72v6.75h4.06v1.49Z"/><path class="cls-1" d="M88.07,131.3V137h2.84v1.49H88.07v8.12H86.53V129.81H92v1.49Z"/><path class="cls-1" d="M96.1,146.63V129.81h5.36v1.49H97.63v5.6h2.67v1.49H97.63v6.75h4.06v1.49Z"/><path class="cls-1" d="M110.51,146.63l-1.85-7.93a11.16,11.16,0,0,1-1.35,0v7.88h-1.54V129.81h2.4c2.11,0,3.75,1.39,3.75,4.32a4.58,4.58,0,0,1-1.75,4l2,8.51Zm-2.38-15.33h-.82v6h.82c1.39,0,2.23-1.11,2.23-3.05S109.53,131.3,108.13,131.3Z"/><path class="cls-1" d="M119.38,131.25v15.38h-1.54V131.25h-2.45v-1.44h6.44v1.44Z"/><path class="cls-1" d="M125.84,146.63V129.81h1.54v16.82Z"/><path class="cls-1" d="M132.26,146.63V129.81h1.54v15.33h3.56v1.49Z"/><path class="cls-1" d="M141.41,146.63V129.81h1.54v16.82Z"/><path class="cls-1" d="M147.22,146.63v-1.37l4.11-14h-3.75v-1.47h5.31v1.37l-4.08,14h4.08v1.47Z"/><path class="cls-1" d="M157.17,146.63V129.81h5.36v1.49h-3.82v5.6h2.67v1.49h-2.67v6.75h4.06v1.49Z"/><path class="cls-1" d="M171.59,146.63l-1.85-7.93a11.16,11.16,0,0,1-1.35,0v7.88h-1.54V129.81h2.4c2.11,0,3.75,1.39,3.75,4.32a4.58,4.58,0,0,1-1.75,4l2,8.51Zm-2.38-15.33h-.82v6h.82c1.39,0,2.23-1.11,2.23-3.05S170.6,131.3,169.21,131.3Z"/><path class="cls-2" d="M80.22,9.56V4.46H80.1a.76.76,0,0,1-.56-.19.76.76,0,0,1-.19-.56.73.73,0,0,1,.21-.58,1,1,0,0,1,.66-.18H81.9A12.68,12.68,0,0,1,84,3.07a3.21,3.21,0,0,1,2.4,1.81A4.81,4.81,0,0,1,86.83,7a4.64,4.64,0,0,1-.5,2.21A3.25,3.25,0,0,1,83.93,11a10.32,10.32,0,0,1-1.67.1h-2a1,1,0,0,1-.67-.17.75.75,0,0,1-.2-.58.74.74,0,0,1,.19-.55.77.77,0,0,1,.56-.19ZM82,4.43V9.56h.39a2.56,2.56,0,0,0,1.91-.63A2.7,2.7,0,0,0,84.89,7a2.64,2.64,0,0,0-.63-1.93,2.53,2.53,0,0,0-1.88-.64H82Z"/><path class="cls-2" d="M95.62,2.72a3.57,3.57,0,0,1,2.77,1.2A4.4,4.4,0,0,1,99.48,7a4.42,4.42,0,0,1-1.08,3.08,3.8,3.8,0,0,1-5.54,0A4.39,4.39,0,0,1,91.76,7a4.41,4.41,0,0,1,1.08-3.07A3.57,3.57,0,0,1,95.62,2.72Zm0,1.59A1.61,1.61,0,0,0,94.24,5a3.39,3.39,0,0,0-.5,2,3.4,3.4,0,0,0,.51,2A1.7,1.7,0,0,0,97,9a3.4,3.4,0,0,0,.51-2A3.37,3.37,0,0,0,97,5,1.61,1.61,0,0,0,95.62,4.31Z"/><path class="cls-2" d="M123,4.44h-1.43v5.1h1.15a1,1,0,0,1,.66.18.74.74,0,0,1,.2.57.75.75,0,0,1-.2.58,1,1,0,0,1-.66.18h-4.06a1,1,0,0,1-.65-.18.75.75,0,0,1-.2-.58.74.74,0,0,1,.19-.58,1,1,0,0,1,.65-.17h1.15V4.44h-1.43l0,1.39V6a.7.7,0,0,1-.18.51.67.67,0,0,1-.5.18.74.74,0,0,1-.56-.19.89.89,0,0,1-.18-.62V5.83l.08-2q0-.61.17-.73a1,1,0,0,1,.6-.12h5.88a1,1,0,0,1,.6.12c.1.08.16.33.17.73l.07,2v.05a.92.92,0,0,1-.17.62.71.71,0,0,1-.55.19.66.66,0,0,1-.53-.19,1.12,1.12,0,0,1-.17-.68Z"/><path class="cls-2" d="M132.1,4.46V6h2.24V4.46h-.11a.77.77,0,0,1-.56-.19.76.76,0,0,1-.19-.56.74.74,0,0,1,.2-.58,1,1,0,0,1,.67-.18h1.76a1,1,0,0,1,.66.18.76.76,0,0,1,.19.58.77.77,0,0,1-.19.56.74.74,0,0,1-.55.19h-.12v5.1h.12a.77.77,0,0,1,.56.19.74.74,0,0,1,.19.55.75.75,0,0,1-.2.58,1,1,0,0,1-.67.18h-1.76a1,1,0,0,1-.67-.17.75.75,0,0,1-.2-.58.73.73,0,0,1,.19-.55.78.78,0,0,1,.56-.19h.11v-2H132.1v2h.11a.78.78,0,0,1,.56.19.73.73,0,0,1,.2.55.74.74,0,0,1-.2.58,1,1,0,0,1-.67.18h-1.76a1,1,0,0,1-.67-.17.75.75,0,0,1-.2-.58.74.74,0,0,1,.19-.55.77.77,0,0,1,.56-.19h.12V4.46h-.12a.74.74,0,0,1-.55-.19.77.77,0,0,1-.19-.56.75.75,0,0,1,.2-.58,1,1,0,0,1,.66-.18h1.76a1,1,0,0,1,.66.18.73.73,0,0,1,.21.58.75.75,0,0,1-.2.56.77.77,0,0,1-.56.19Z"/><path class="cls-2" d="M146.63,4.46v5.1h1.15a1,1,0,0,1,.67.17.71.71,0,0,1,.2.56.73.73,0,0,1-.21.58,1,1,0,0,1-.66.18h-4.06a1,1,0,0,1-.67-.18.74.74,0,0,1-.2-.58.71.71,0,0,1,.2-.57,1,1,0,0,1,.67-.17h1.15V4.46h-1.15a1,1,0,0,1-.67-.18.73.73,0,0,1-.2-.57.73.73,0,0,1,.2-.57,1,1,0,0,1,.67-.17h4.06a1,1,0,0,1,.68.17.74.74,0,0,1,.19.57.74.74,0,0,1-.2.57,1,1,0,0,1-.67.18Z"/><path class="cls-2" d="M160,3.1a.69.69,0,0,1,.23-.3.76.76,0,0,1,.4-.08c.26,0,.43,0,.51.15a1.1,1.1,0,0,1,.13.58l0,1.31v.08a.78.78,0,0,1-.16.56.75.75,0,0,1-.54.16.77.77,0,0,1-.72-.52l-.05-.12a1.51,1.51,0,0,0-.57-.64,1.65,1.65,0,0,0-.85-.21,1.63,1.63,0,0,0-1,.28.88.88,0,0,0-.38.73q0,.63,1.74,1l.46.1a3.81,3.81,0,0,1,1.9.88,2.17,2.17,0,0,1,.59,1.61,2.33,2.33,0,0,1-.85,1.94,3.85,3.85,0,0,1-2.45.68,6.75,6.75,0,0,1-1.11-.08,5.11,5.11,0,0,1-.95-.25.7.7,0,0,1-.25.26.83.83,0,0,1-.4.08.86.86,0,0,1-.6-.16.81.81,0,0,1-.18-.58l0-1.61V8.84a.92.92,0,0,1,.17-.63.79.79,0,0,1,.58-.18q.44,0,.75.64l.11.24a1.78,1.78,0,0,0,.74.79,2.4,2.4,0,0,0,1.17.26,1.61,1.61,0,0,0,1-.26.86.86,0,0,0,.35-.73q0-.73-1.58-1.11l-.75-.18a4.06,4.06,0,0,1-1.84-.87A2,2,0,0,1,155,5.37a2.39,2.39,0,0,1,.88-1.91,3.41,3.41,0,0,1,2.27-.74,4.37,4.37,0,0,1,.91.1A4.72,4.72,0,0,1,160,3.1Z"/><polygon class="cls-1" points="233.13 41.79 228.15 41.79 228.15 48.56 223.31 48.56 230.64 57.78 237.97 48.56 233.13 48.56 233.13 41.79"/><polygon class="cls-1" points="201.07 41.79 196.09 41.79 196.09 48.56 191.25 48.56 198.58 57.78 205.91 48.56 201.07 48.56 201.07 41.79"/><path class="cls-1" d="M212.12,44v.67h-4.83l7.33,9.22,7.33-9.22H217.1V44a6.74,6.74,0,0,1,6.73-6.73h10v-5h-10a11.7,11.7,0,0,0-9.22,4.5,11.7,11.7,0,0,0-9.22-4.5h-10v5h10A6.74,6.74,0,0,1,212.12,44Z"/><path class="cls-1" d="M6.61,43.84c-2.47,0-4.07-2-4.07-5.13V22.9H4.43V38.66c0,2.09.85,3.36,2.21,3.36s2.21-1.27,2.21-3.36V22.9h1.89V38.72C10.73,41.87,9.08,43.84,6.61,43.84Z"/><path class="cls-1" d="M19.69,43.84c-2.36,0-3.5-1.77-3.92-4.86l1.91-.44c.44,2.71,1.12,3.48,2,3.48,1.21,0,1.89-1,1.89-2.44a9.32,9.32,0,0,0-2.8-6.16c-2.21-2.47-2.83-4-2.83-6.6,0-2.33,1.3-4.24,3.56-4.24s3.3,1.62,3.89,4.07l-1.92.56c-.56-2.12-1-2.8-2-2.8s-1.59,1.18-1.59,2.24c0,1.65.41,2.95,2.36,5.13,2.24,2.48,3.27,4.8,3.27,7.54S22,43.84,19.69,43.84Z"/><path class="cls-1" d="M28.85,43.52V22.9h6.57v1.83H30.73v6.86H34v1.83H30.73v8.28h5v1.83Z"/><path class="cls-1" d="M54.6,43.52l-.83-5.42h-3.3l-.82,5.42h-2L51.12,22.9h2.06l3.45,20.62Zm-1.71-11.4c-.32-2.3-.59-4.12-.77-6.13-.18,2-.44,3.83-.77,6.13l-.62,4.18h2.77Z"/><path class="cls-1" d="M64.79,43.84c-2.36,0-3.5-1.77-3.92-4.86l1.92-.44c.44,2.71,1.12,3.48,2,3.48,1.21,0,1.89-1,1.89-2.44a9.32,9.32,0,0,0-2.8-6.16c-2.21-2.47-2.83-4-2.83-6.6,0-2.33,1.3-4.24,3.56-4.24s3.3,1.62,3.89,4.07l-1.92.56c-.56-2.12-1-2.8-2-2.8S63,25.58,63,26.64c0,1.65.41,2.95,2.36,5.13,2.24,2.48,3.27,4.8,3.27,7.54S67.14,43.84,64.79,43.84Z"/><path class="cls-1" d="M87.82,43.52,87,38.1H83.7l-.82,5.42h-2L84.35,22.9h2.06l3.45,20.62Zm-1.71-11.4c-.32-2.3-.59-4.12-.77-6.13-.18,2-.44,3.83-.77,6.13L84,36.3h2.77Z"/><path class="cls-1" d="M108.29,43.52V34.06h-2.71v9.46h-3.3V22.9h3.3V31h2.71V22.9h3.3V43.52Z"/><path class="cls-1" d="M116.75,43.52V22.9H120V43.52Z"/><path class="cls-1" d="M129.59,43.84c-3.74,0-4.8-3.68-4.8-10.63,0-7.28,1.18-10.63,4.83-10.63,3.12,0,4.21,2.5,4.42,6.16l-3.24.53c-.21-2.65-.38-3.65-1.21-3.65-1.09,0-1.41,1.21-1.41,7.6,0,5.89.26,7.63,1.5,7.63,1,0,1.35-.85,1.35-3.12v-2h-1.47V32.8h4.65v4.36C134.22,40.78,133.1,43.84,129.59,43.84Z"/><path class="cls-1" d="M145,43.52V34.06h-2.71v9.46H139V22.9h3.3V31H145V22.9h3.3V43.52Z"/><path class="cls-1" d="M153.36,43.52V22.9h3.3V40.46h3.92v3.06Z"/><path class="cls-1" d="M170.77,34.8v8.72h-3.33V34.95l-3.65-12h3.59l.85,3.92c.41,1.94.74,3.65.91,5.19.15-1.53.44-3.24.83-5.19l.8-3.92h3.45Z"/><path class="cls-1" d="M5.9,57.23h-.7v7H2.54V47.44H6.07c2,0,3.76,1.17,3.76,4.75S8.08,57.23,5.9,57.23Zm-.07-7.51H5.21v5.2h.55c.91,0,1.37-.77,1.37-2.61S6.76,49.72,5.83,49.72Z"/><path class="cls-1" d="M13.34,64.23V47.44h6.28v2.49H16v4.2h2.76v2.49H16v5.11h3.81v2.49Z"/><path class="cls-1" d="M28.13,64.23l-1.39-7.39h-.67v7.39H23.41V47.44h3.5c2.09,0,3.79,1.13,3.79,4.63,0,1.94-.55,3.26-1.49,4l1.65,8.15ZM26.69,49.72h-.62v4.92h.55c.91,0,1.37-.67,1.37-2.45S27.63,49.72,26.69,49.72Z"/><path class="cls-1" d="M41.49,64.23V59.84c0-2,.07-4,.12-5.71-.24,1.32-.77,3.81-1.2,5.52l-1.2,5.08L38,59.65c-.41-1.63-.94-4.25-1.18-5.52,0,1.58.12,3.74.12,5.71v4.39h-2.4V47.44h2.64l1.1,5.11a42.87,42.87,0,0,1,.89,4.82,43.91,43.91,0,0,1,.91-4.84l1.13-5.08h2.64V64.23Z"/><path class="cls-1" d="M48,64.23V47.44h6.28v2.49h-3.6v4.2h2.76v2.49H50.72v5.11h3.81v2.49Z"/><path class="cls-1" d="M62.86,64.23l-.46-3.69h-2L60,64.23H57.34L60,47.44h2.88l2.66,16.79ZM61.75,55c-.14-1.2-.31-2.57-.38-3.89,0,1.32-.22,2.71-.36,3.91l-.36,3h1.49Z"/><path class="cls-1" d="M72.11,64.23H68.92V47.44h3.24c2.47,0,3.91,1.41,3.91,4.48A3.61,3.61,0,0,1,74.2,55.5c1.22.6,2,1.66,2,3.81C76.21,62.41,74.87,64.23,72.11,64.23Zm0-14.51h-.55v4.7h.57c.84,0,1.32-.65,1.32-2.42S73,49.72,72.06,49.72ZM72,56.63h-.48v5.32h.57c1.06,0,1.44-.74,1.44-2.61S73.1,56.63,72,56.63Z"/><path class="cls-1" d="M79.93,64.23V47.44h2.69V61.73h3.19v2.49Z"/><path class="cls-1" d="M89.33,64.23V47.44h6.28v2.49H92v4.2h2.76v2.49H92v5.11h3.81v2.49Z"/><path class="cls-1" d="M108.59,64.49c-1.92,0-2.85-1.44-3.19-4l1.56-.36c.36,2.21.91,2.83,1.65,2.83,1,0,1.53-.82,1.53-2a7.59,7.59,0,0,0-2.28-5c-1.8-2-2.3-3.29-2.3-5.37,0-1.89,1.06-3.45,2.9-3.45s2.69,1.32,3.17,3.31l-1.56.46c-.46-1.73-.84-2.28-1.66-2.28s-1.3,1-1.3,1.82c0,1.34.34,2.4,1.92,4.17a8.8,8.8,0,0,1,2.66,6.14C111.71,63,110.51,64.49,108.59,64.49Z"/><path class="cls-1" d="M119.16,64.49c-2.54,0-3.48-3-3.48-8.66s.93-8.66,3.48-8.66,3.48,3,3.48,8.66S121.71,64.49,119.16,64.49Zm0-15.83c-1.25,0-1.87,2.18-1.87,7.17s.67,7.17,1.92,7.17,1.87-2.18,1.87-7.17S120.39,48.66,119.14,48.66Z"/><path class="cls-1" d="M127.15,64.23V47.44h1.53V64.23Z"/><path class="cls-1" d="M133.55,64.23V47.44h1.53v15.3h3.55v1.49Z"/><path class="cls-1" d="M155.66,64.23V55.16c0-1.37,0-2.47,0-3.62-.17,1.2-.34,2.13-.65,3.65L153,64.73l-2.06-9.55c-.31-1.51-.46-2.4-.65-3.65,0,1.15,0,2.11,0,3.62v9.07H148.9V47.44h1.7l1.73,8.06a33.1,33.1,0,0,1,.65,4.44,32.82,32.82,0,0,1,.67-4.44l1.73-8.06h1.68V64.23Z"/><path class="cls-1" d="M161.92,64.23V47.44h1.53V64.23Z"/><path class="cls-1" d="M172.62,64.23l-1.06-3.81c-.31-1.17-.55-2.13-.72-3-.17.89-.38,1.85-.72,3l-1.06,3.81h-1.58L170,55.52l-2.37-8.08h1.63l.86,3.17c.31,1.17.55,2.13.72,3,.17-.89.41-1.85.72-3l.86-3.17h1.58l-2.37,8.06,2.57,8.73Z"/><path d="M8.74,195.58,8,191H5.26l-.7,4.58H2.89L5.8,178.15H7.55l2.91,17.43ZM7.3,185.94c-.27-1.94-.5-3.49-.65-5.18-.15,1.69-.37,3.24-.65,5.18l-.52,3.54H7.82Z"/><path d="M17.73,195.86c-2.57,0-3.41-3.11-3.41-9s.92-9,3.46-9c2,0,2.84,1.64,3.31,4.31l-1.57.42c-.5-2.54-1-3.19-1.77-3.19-1.25,0-1.79,2.39-1.79,7.45,0,5.25.57,7.45,1.89,7.45.92,0,1.34-.87,1.77-3.06l1.52.45C20.7,194.19,19.85,195.86,17.73,195.86Z"/><path d="M28.44,195.86c-2.57,0-3.41-3.11-3.41-9s.92-9,3.46-9c2,0,2.84,1.64,3.31,4.31l-1.57.42c-.5-2.54-1-3.19-1.77-3.19-1.25,0-1.79,2.39-1.79,7.45,0,5.25.57,7.45,1.89,7.45.92,0,1.34-.87,1.77-3.06l1.52.45C31.4,194.19,30.56,195.86,28.44,195.86Z"/><path d="M39.34,195.86c-2.64,0-3.61-3.11-3.61-9s1-9,3.61-9S43,181,43,186.87,42,195.86,39.34,195.86Zm0-16.44c-1.3,0-1.94,2.27-1.94,7.45s.7,7.45,2,7.45,1.94-2.27,1.94-7.45S40.61,179.42,39.32,179.42Z"/><path d="M50.92,195.86c-2.09,0-3.44-1.67-3.44-4.33V178.15h1.59v13.32c0,1.77.72,2.84,1.87,2.84s1.87-1.07,1.87-2.84V178.15h1.59v13.37C54.41,194.19,53,195.86,50.92,195.86Z"/><path d="M65,195.58l-2.67-8.12a53.3,53.3,0,0,1-1.54-5.35c0,1.07,0,2.84,0,4.53v8.94H59.31V178.15h1.57l2.37,7.27a53.32,53.32,0,0,1,1.54,5.35c0-1.07-.05-2.84-.05-4.53v-8.09h1.49v17.43Z"/><path d="M74.4,179.64v15.94H72.81V179.64H70.27v-1.49h6.67v1.49Z"/><path d="M89.14,179.69v5.93h2.94v1.54H89.14v8.42H87.55V178.15h5.7v1.54Z"/><path d="M100.7,195.86c-2.64,0-3.61-3.11-3.61-9s1-9,3.61-9,3.61,3.11,3.61,9S103.34,195.86,100.7,195.86Zm0-16.44c-1.3,0-1.94,2.27-1.94,7.45s.7,7.45,2,7.45,1.94-2.27,1.94-7.45S102,179.42,100.67,179.42Z"/><path d="M113.77,195.58l-1.92-8.22a11.57,11.57,0,0,1-1.39,0v8.17h-1.59V178.15h2.49c2.19,0,3.89,1.44,3.89,4.48a4.75,4.75,0,0,1-1.82,4.13l2,8.82Zm-2.47-15.89h-.85v6.23h.85c1.44,0,2.32-1.15,2.32-3.16S112.75,179.69,111.31,179.69Z"/><path d="M129.68,195.86c-3.16,0-4.06-3.11-4.06-9,0-6.15,1-9,4.08-9,2.64,0,3.56,2.12,3.74,5.2l-2.74.45c-.17-2.24-.32-3.09-1-3.09-.92,0-1.2,1-1.2,6.43,0,5,.22,6.45,1.27,6.45.82,0,1.15-.72,1.15-2.64V189h-1.24v-2.44h3.93v3.69C133.59,193.27,132.64,195.86,129.68,195.86Z"/><path d="M142.5,195.58l-1.44-7.67h-.7v7.67H137.6V178.15h3.64c2.17,0,3.93,1.17,3.93,4.81,0,2-.57,3.39-1.54,4.16l1.72,8.47ZM141,180.52h-.65v5.1h.57c.95,0,1.42-.7,1.42-2.54S142,180.52,141,180.52Z"/><path d="M149.2,195.58V178.15h6.52v2.59H152v4.36h2.86v2.59H152V193h4v2.59Z"/><path d="M164.59,195.58l-.47-3.83h-2l-.45,3.83h-2.76l2.76-17.43h3l2.76,17.43ZM163.45,186c-.15-1.24-.32-2.67-.4-4,0,1.37-.22,2.81-.37,4.06l-.37,3.16h1.54Z"/><path d="M175.25,180.74v14.84h-2.79V180.74h-2.34v-2.59h7.5v2.59Z"/><path d="M7.17,213.9l-.35-2.85H5.3L5,213.9H2.91l2.05-13H7.19l2.05,13Zm-.85-7.09c-.11-.93-.24-2-.3-3,0,1-.17,2.09-.28,3l-.28,2.35H6.62Z"/><path d="M11.85,213.9v-13H16.7v1.92H13.92v3.24h2.13V208H13.92V212h2.94v1.92Z"/><path d="M23.27,213.9l-1.07-5.7h-.52v5.7H19.62v-13h2.7c1.61,0,2.92.87,2.92,3.57a3.75,3.75,0,0,1-1.15,3.09l1.28,6.29Zm-1.11-11.2h-.48v3.79h.43c.7,0,1.05-.52,1.05-1.89S22.88,202.71,22.16,202.71Z"/><path d="M31.91,213.9l-.35-2.85H30l-.33,2.85H27.65l2.05-13h2.22l2.05,13Zm-.85-7.09c-.11-.93-.24-2-.3-3,0,1-.17,2.09-.28,3l-.28,2.35h1.15Z"/><path d="M39.83,202.87v11H37.76v-11H36v-1.92h5.57v1.92Z"/><path d="M44.25,213.9v-13h2.07v13Z"/><path d="M52.28,214.11c-2.28,0-3-2.17-3-6.64s.72-6.72,3-6.72,3,2.22,3,6.64S54.61,214.11,52.28,214.11Zm0-11.45c-.68,0-.87.81-.87,4.74s.24,4.81.89,4.81.89-.81.89-4.74S53,202.65,52.3,202.65Z"/><path d="M62.55,213.9l-1.26-4c-.39-1.28-.91-3.09-1.15-4.05,0,.94.06,2.7.06,3.85v4.18H58.28v-13h1.87l1,3.16c.35,1.05.85,2.74,1.09,3.72,0-.89-.06-2.66-.06-3.63v-3.26h1.92v13Z"/><path d="M76.34,213.9,76,213a2,2,0,0,1-1.79,1.15c-1.67,0-2.28-1.18-2.28-3.35a6.65,6.65,0,0,1,1.52-4.13L73,205.5a6,6,0,0,1-.57-2.24,2.34,2.34,0,0,1,2.48-2.52c1.5,0,2.09.81,2.5,2.26l-1.72.8c-.35-1.07-.48-1.28-.87-1.28s-.52.24-.52.7a4.36,4.36,0,0,0,.41,1.63l1.26,3.2c.09-.46.2-1,.33-1.61l1.61.39c-.31,1.55-.63,2.79-.93,3.81l1.28,3.26Zm-2.15-5.35a5.29,5.29,0,0,0-.43,2c0,1.17.19,1.72.59,1.72s.54-.24.83-1.26Z"/><path d="M90.31,214.42l-.52-.7a2.37,2.37,0,0,1-1.35.39c-2.28,0-3-2.17-3-6.64s.72-6.72,3-6.72,3,2.22,3,6.64a12.75,12.75,0,0,1-.76,5.11l.78.78Zm-1.85-11.77c-.68,0-.87.81-.87,4.74s.24,4.92.89,4.92h.24l-.61-.81.83-.8.37.37c.06-.7.06-1.83.06-3.61C89.36,203.5,89.12,202.65,88.46,202.65Z"/><path d="M97.3,214.11c-1.87,0-2.91-1.3-2.91-3.39v-9.77h2.07v9.79c0,1.07.3,1.46.87,1.46s.83-.39.83-1.44v-9.81h2.07v9.64C100.25,212.85,99.32,214.11,97.3,214.11Z"/><path d="M103.46,213.9v-13h2.07v13Z"/><path d="M111.5,214.11c-2.2,0-3-2-3-6.64s.74-6.72,3-6.72c2,0,2.68,1.63,2.79,3.94l-2,.3c-.13-1.72-.24-2.33-.78-2.33s-.87.72-.87,4.74.24,4.81.93,4.81c.46,0,.61-.43.8-2.28l2,.3C114.09,212.7,113.49,214.11,111.5,214.11Z"/><path d="M120.86,213.9l-1.28-5.85-.31.85v5h-2.05v-13h2.05v2.39c0,1,0,1.89,0,2.66.19-.78.56-2,.81-2.76l.8-2.29H123l-1.83,4.81L123,213.9Z"/><path d="M125.37,208.11v-2h3.48v2Z"/><path d="M134.2,213.9h-2.37v-13h2.57c2.52,0,3.2,2.37,3.2,6.38C137.6,211.78,136.55,213.9,134.2,213.9Zm0-11.14h-.35v9.35h.31c.83,0,1.28-.83,1.28-4.76S135.11,202.76,134.24,202.76Z"/><path d="M144.17,213.9l-1.07-5.7h-.52v5.7h-2.05v-13h2.7c1.61,0,2.92.87,2.92,3.57a3.75,3.75,0,0,1-1.15,3.09l1.28,6.29Zm-1.11-11.2h-.48v3.79H143c.7,0,1.05-.52,1.05-1.89S143.78,202.71,143.06,202.71Z"/><path d="M152.83,208.43v5.48h-2.09v-5.39l-2.29-7.57h2.26l.54,2.46c.26,1.22.46,2.3.57,3.26.09-1,.28-2,.52-3.26l.5-2.46H155Z"/><path d="M157.55,213.9v-13h2.07v13Z"/><path d="M167.16,213.9l-1.26-4c-.39-1.28-.91-3.09-1.15-4.05,0,.94.06,2.7.06,3.85v4.18h-1.92v-13h1.87l1,3.16c.35,1.05.85,2.74,1.09,3.72,0-.89-.06-2.66-.06-3.63v-3.26h1.92v13Z"/><path d="M174.69,214.11c-2.35,0-3-2.31-3-6.68,0-4.57.74-6.68,3-6.68,2,0,2.65,1.57,2.78,3.87l-2,.33c-.13-1.67-.24-2.29-.76-2.29-.68,0-.89.76-.89,4.77,0,3.7.17,4.79.94,4.79.61,0,.85-.54.85-2V209h-.93v-1.81h2.92v2.74C177.59,212.18,176.89,214.11,174.69,214.11Z"/><path d="M7.57,239.15c-3.33,0-4.51-3.05-4.51-10.05s1.12-10.16,4.56-10.16c3.05,0,4.06,2.46,4.23,6l-3.08.45c-.2-2.6-.36-3.53-1.18-3.53-1,0-1.32,1.09-1.32,7.17s.36,7.28,1.4,7.28c.7,0,.92-.64,1.2-3.44l3,.45C11.49,237,10.59,239.15,7.57,239.15Z"/><path d="M21.93,238.84v-9H19.36v9H16.22v-19.6h3.14v7.7h2.58v-7.7h3.14v19.6Z"/><path d="M35.45,238.84l-.53-4.31h-2.3l-.5,4.31H29l3.11-19.6h3.36l3.11,19.6Zm-1.29-10.72c-.17-1.4-.36-3-.45-4.54-.06,1.54-.25,3.16-.42,4.56l-.42,3.56h1.74Z"/><path d="M48.05,238.84l-1.62-8.62h-.78v8.62H42.54v-19.6h4.09c2.44,0,4.42,1.32,4.42,5.4,0,2.27-.64,3.81-1.74,4.68l1.93,9.52ZM46.37,221.9h-.73v5.74h.64c1.06,0,1.6-.78,1.6-2.86S47.46,221.9,46.37,221.9Z"/><path d="M61.13,238.84l-.53-4.31H58.3l-.5,4.31H54.69l3.11-19.6h3.36l3.11,19.6Zm-1.29-10.72c-.17-1.4-.36-3-.45-4.54-.06,1.54-.25,3.16-.42,4.56l-.42,3.56h1.74Z"/><path d="M72.3,239.15c-3.33,0-4.51-3.05-4.51-10.05s1.12-10.16,4.56-10.16c3.05,0,4.06,2.46,4.23,6l-3.08.45c-.2-2.6-.36-3.53-1.18-3.53-1,0-1.32,1.09-1.32,7.17s.36,7.28,1.4,7.28c.7,0,.92-.64,1.2-3.44l3,.45C76.22,237,75.32,239.15,72.3,239.15Z"/><path d="M85.85,222.15v16.69H82.71V222.15H80.08v-2.91h8.43v2.91Z"/><path d="M92.48,238.84v-19.6h7.34v2.91h-4.2v4.9h3.22V230H95.62v6h4.45v2.91Z"/><path d="M109.75,238.84l-1.62-8.62h-.78v8.62h-3.11v-19.6h4.09c2.44,0,4.42,1.32,4.42,5.4,0,2.27-.64,3.81-1.74,4.68l1.93,9.52Zm-1.68-16.94h-.73v5.74H108c1.06,0,1.6-.78,1.6-2.86S109.17,221.9,108.07,221.9Z"/><path d="M117.34,238.84v-19.6h3.14v19.6Z"/><path d="M129.1,239.15c-2.8,0-4.06-2-4.34-5.29l3-.53c.22,2.38.64,3,1.34,3s1.12-.5,1.12-1.76c0-1.88-.59-2.74-2.35-4.7-2-2-3-3.86-3-6.1,0-2.74,1.34-4.79,4-4.79s3.84,1.85,4.2,4.73l-2.94.62c-.22-1.93-.56-2.52-1.26-2.52s-1,.48-1,1.71.48,2.18,2,3.84c2.27,2.3,3.33,4.26,3.33,6.94C133.27,237.13,131.76,239.15,129.1,239.15Z"/><path d="M142.43,222.15v16.69h-3.14V222.15h-2.63v-2.91h8.43v2.91Z"/><path d="M149.12,238.84v-19.6h3.14v19.6Z"/><path d="M161.27,239.15c-3.33,0-4.51-3.05-4.51-10.05s1.12-10.16,4.56-10.16c3.05,0,4.06,2.46,4.23,6l-3.08.45c-.2-2.6-.36-3.53-1.18-3.53-1,0-1.32,1.09-1.32,7.17s.36,7.28,1.4,7.28c.7,0,.92-.64,1.2-3.44l3,.45C165.19,237,164.29,239.15,161.27,239.15Z"/><path d="M173.61,239.15c-2.8,0-4.06-2-4.34-5.29l3-.53c.22,2.38.64,3,1.34,3s1.12-.5,1.12-1.76c0-1.88-.59-2.74-2.35-4.7-2-2-3-3.86-3-6.1,0-2.74,1.34-4.79,4-4.79s3.84,1.85,4.2,4.73l-2.94.62c-.22-1.93-.56-2.52-1.26-2.52s-1,.48-1,1.71.48,2.18,2,3.84c2.27,2.3,3.33,4.26,3.33,6.94C177.78,237.13,176.27,239.15,173.61,239.15Z"/><path d="M212.51,217.73a10.11,10.11,0,0,1-2-2.65,11.74,11.74,0,0,1-.82-1.48l-3.93,3.93-3.79-3.87-2.6,13.54L213,224.75,209.22,221Z"/><path d="M232,217.52l-4.23-4.23a11.68,11.68,0,0,1-.88,1.65,10.16,10.16,0,0,1-1.87,2.58l3.49,3.48-3.87,3.8,13.54,2.59-2.44-13.7Z"/><path d="M205.71,199l4.94,4.94a19.27,19.27,0,0,1,1.94-3c.3-.39.59-.8.87-1.21l-4.26-4.21,3.87-3.79-13.53-2.59,2.43,13.7Z"/><path d="M224.74,200.9a18.49,18.49,0,0,1,2.15,3.28l5.18-5.18,3.8,3.88,2.59-13.54-13.7,2.44,3.82,3.74-4.5,4.5C224.3,200.32,224.52,200.62,224.74,200.9Z"/><path d="M223.33,202a37.13,37.13,0,0,1-4.43-7.92,3.06,3.06,0,0,0-.22-.47,3,3,0,0,0-.22.47A38,38,0,0,1,214,202c-2.58,3.35-3,5.64-3,8.43.22,4.43,3.53,8,7.63,8s7.41-3.53,7.62-8C226.44,207.53,225.91,205.25,223.33,202Z"/></svg>