<svg xmlns="http://www.w3.org/2000/svg" width="141.01" height="264.11" viewBox="0 0 141.01 264.11">
  <defs>
    <style>
      .a, .b {
        font-size: 33.81px;
        font-family: Mark-Bold, Mark-Bold;
        font-weight: 700;
      }

      .a {
        letter-spacing: 0.08em;
      }

      .b {
        letter-spacing: 0.08em;
      }

      .c {
        fill: #fff;
      }
    </style>
  </defs>
  <title>filled-with-goodies</title>
  <g>
    <g>
      <g>
        <g>
          <path d="M38.45,237.12a60.85,60.85,0,0,0,14-32.29c-8.47-.77-19,5-26.5,15.39-9.65,13.43-14.13,34.63-5.37,40.92S48,256.44,57.63,243c6.49-9,8.94-19.22,7.19-26.84C51.72,234.9,38.45,237.12,38.45,237.12Z"/>
          <path d="M55.39,205.39s-3.26,18.57-12.11,28c0,0,19.21-13.69,23.36-27.11S63,165.54,79.36,148.84C79.36,148.84,58.55,157,55.39,205.39Z"/>
        </g>
        <circle cx="32" cy="190.28" r="10.02"/>
        <circle cx="81.08" cy="229.08" r="5.23"/>
        <circle cx="5.33" cy="235.05" r="5.33"/>
        <circle cx="79.33" cy="186.74" r="4.38"/>
        <circle cx="95.75" cy="229.71" r="3.7"/>
        <circle cx="44.64" cy="173.5" r="4.69"/>
        <circle cx="9.73" cy="181.15" r="5.59"/>
        <circle cx="99.11" cy="185.69" r="5.43"/>
      </g>
      <g>
        <text class="a" transform="translate(0.33 216.43)">+</text>
        <text class="b" transform="translate(67.99 259.83)">+</text>
        <text class="b" transform="translate(82.04 214.37)">+</text>
      </g>
    </g>
    <g>
      <path class="c" d="M61,185.7h7.63v5.7h-21V175.14h5.07V185.7h3.22v-9.81H61Z"/>
      <path class="c" d="M68.62,163.89h-21v-5.7h21Z"/>
      <path class="c" d="M68.62,146.34h-21v-5.7H63.37V130.53h5.25Z"/>
      <path class="c" d="M68.62,119.88h-21v-5.7H63.37V104.07h5.25Z"/>
      <path class="c" d="M68.62,93.42h-21V77h5.07V87.72h2.78v-10h5.07v10h3V77h5.07Z"/>
      <path class="c" d="M58.12,45.3c6.33,0,10.5,4.33,10.5,10.89v9.27h-21V56.19C47.62,49.63,51.79,45.3,58.12,45.3Zm5.26,14.46V56.34c0-3.43-2.23-5.11-5.26-5.11s-5.26,1.68-5.26,5.11v3.42Z"/>
      <path class="c" d="M104.62,173l-12.29,3.51,12.29,3.51v6.72l-21,6v-5.86l14.08-3.58-14.08-3.78v-6.08l14.1-3.78-14.1-3.58v-5.79l21,6Z"/>
      <path class="c" d="M104.62,149.85h-21v-5.7h21Z"/>
      <path class="c" d="M88.87,121.83h15.75v5.7H88.87v6H83.62V115.86h5.25Z"/>
      <path class="c" d="M91.39,91.74H83.62V86h21v5.7h-8v7.77h8v5.7h-21v-5.7h7.77Z"/>
      <path class="c" d="M122.14,173.22l4,4a5.38,5.38,0,0,0-1.54,4c0,3,2.26,5.07,5.56,5.07,3.83,0,5.73-2.47,5.73-5.16s-1-4.16-3.09-4.75v4.92h-4.17V170.88a11.84,11.84,0,0,1,1.89-.12c7,0,10.51,5.21,10.51,10.14,0,6.6-4.5,11.25-10.87,11.25s-10.89-4.65-10.89-11.25A10.37,10.37,0,0,1,122.14,173.22Z"/>
      <path class="c" d="M130.12,138.21c6.29,0,10.89,4.6,10.89,11.1s-4.6,11.1-10.89,11.1-10.89-4.6-10.89-11.1S123.84,138.21,130.12,138.21Zm0,16.27a5.18,5.18,0,1,0-5.43-5.17A5.07,5.07,0,0,0,130.12,154.48Z"/>
      <path class="c" d="M130.12,105.66c6.29,0,10.89,4.6,10.89,11.1s-4.6,11.1-10.89,11.1-10.89-4.6-10.89-11.1S123.84,105.66,130.12,105.66Zm0,16.27a5.18,5.18,0,1,0-5.43-5.17A5.07,5.07,0,0,0,130.12,121.93Z"/>
      <path class="c" d="M130.12,74.4c6.33,0,10.5,4.33,10.5,10.89v9.27h-21V85.29C119.62,78.73,123.79,74.4,130.12,74.4Zm5.26,14.46V85.44c0-3.43-2.23-5.11-5.26-5.11s-5.26,1.68-5.26,5.11v3.42Z"/>
      <path class="c" d="M140.62,63.3h-21V57.6h21Z"/>
      <path class="c" d="M140.62,45.75h-21V29.34h5.07V40h2.78v-10h5.07V40h3V29.34h5.07Z"/>
      <path class="c" d="M124.36,8.8c0,1.51.42,2.7,1.37,2.7,1.17,0,1.33-2.14,1.72-4.29l.13-.67c.84-4.37,2.91-6.54,6.15-6.54C139.06,0,141,4.49,141,9a16.57,16.57,0,0,1-2.61,9.58l-4.65-2.79a12.41,12.41,0,0,0,2.16-6.87c0-1.51-.42-2.66-1.46-2.66s-1.3,1.32-1.74,3.92l-.13.79c-.84,4.83-2.89,6.85-6.63,6.74-4-.12-6.7-3.46-6.7-8.52a17,17,0,0,1,2.2-8.86l4.67,2.46A12.47,12.47,0,0,0,124.36,8.8Z"/>
    </g>
  </g>
</svg>
