<svg xmlns="http://www.w3.org/2000/svg" width="551.13" height="281.74" viewBox="0 0 551.13 281.74">
  <defs>
    <style>
      .a {
        fill: #f5c400;
      }

      .b {
        fill: #fff;
      }
    </style>
  </defs>
  <title>onebyoneflourish</title>
  <g>
    <g>
      <path class="a" d="M550.81,230.24l-.77-3.68H492.74l58.06-67-4.18-3c-9.35-6.61-17.8-9.31-25.25-9.63l13.71-17.35-4-2.82C515.85,116,503,115.64,493,119c-.85-.53-1.69-1-2.54-1.51-26.16-14.67-44.08.81-52.47,9.56a50.07,50.07,0,0,0-4.71-2c-24.63-9-41,8.79-47.23,15.54l-25.65,28.66c-17-9-40.28-9.26-57.68-.93l-24.86-27.78c-6.17-6.71-22.57-24.52-47.19-15.49a50,50,0,0,0-4.71,2c-8.39-8.75-26.31-24.23-52.47-9.56-.84.47-1.69,1-2.53,1.51-10-3.37-22.86-3-38.09,7.8l-4,2.82L142.55,147c-7.45.32-15.9,3-25.25,9.63l-4.18,3,58.06,67H121.33l-.77,3.68a28.67,28.67,0,0,0,5.95,22c9,11.76,26.54,18.42,52,19.8l.5-9.26c-22.2-1.2-37.77-6.73-45-16a20.63,20.63,0,0,1-4.45-10.94h50.62l.08.11.15-.11h24.71c24.67,0,44.44,10.45,62.22,32.89l7.27-5.76c-12.29-15.5-25.51-25.84-40.45-31.41L298.38,182l.14-.11c16.51-13.77,47.72-13.76,64.21,0l67.57,49.48c-15.16,5.53-28.55,15.91-41,31.6l7.27,5.76c12.93-16.31,26.91-26.28,43.06-30.51l.34.25.3-.41a75.5,75.5,0,0,1,18.53-2.21h24.71l.16.11.08-.11h58a20.66,20.66,0,0,1-4.3,10.75c-7.21,9.38-22.83,15-45.19,16.19l.5,9.26c25.5-1.38,43-8,52-19.8A28.66,28.66,0,0,0,550.81,230.24ZM221.32,135.7l31.24,37-17,12.21-42-49.7-.13-.15a68.58,68.58,0,0,0-12.38-11C201.66,114.46,214.81,128.62,221.32,135.7Zm-34.79,5.61L228,190.36l-18.66,13.37-31.22-38.61-.19-.22c-3.64-4-11.11-12.07-21.9-15.89l-13.66-17.29C165.24,118.29,179.46,133.62,186.53,141.3ZM171,171.07l30.78,38.08L181.15,223.9,127,161.4C149.75,148.2,163.9,163.4,171,171.07Zm52.16,57.29a87.24,87.24,0,0,0-18-1.8H193.35l72.77-52.14-33.8-40.08c.51-.21,1-.42,1.53-.6,18.8-6.9,31.21,6.59,37.13,13l23.62,26.39q-1,.74-1.95,1.53Zm259.67-4.46-20.59-14.75L493,171.07c7.06-7.67,21.21-22.86,44-9.67Zm38.83-92.18L507.95,149c-10.79,3.82-18.26,11.94-21.9,15.89l-31.41,38.83L436,190.36l41.42-49.06C484.46,133.62,498.69,118.29,521.61,131.72ZM482.88,124a68.59,68.59,0,0,0-12.38,11l-42.09,49.85-17-12.21,31.24-37C449.11,128.62,462.27,114.45,482.88,124ZM458.8,226.56a87.71,87.71,0,0,0-17.15,1.63l-73.1-53.52-.34-.27,24.69-27.59c6-6.48,18.37-20,37.17-13.07.51.19,1,.39,1.53.6l-33.81,40.08,72.77,52.14Z"/>
      <circle class="a" cx="333" cy="187.25" r="5.98"/>
      <circle class="a" cx="333" cy="209.38" r="5.98"/>
      <circle class="a" cx="333" cy="231.5" r="5.98"/>
      <circle class="a" cx="333" cy="253.63" r="5.98"/>
      <circle class="a" cx="333" cy="275.75" r="5.98"/>
      <circle class="a" cx="287.29" cy="209.44" r="5.98"/>
      <circle class="a" cx="287.29" cy="231.57" r="5.98"/>
      <circle class="a" cx="287.29" cy="253.69" r="5.98"/>
      <circle class="a" cx="378.66" cy="209.44" r="5.98"/>
      <circle class="a" cx="378.66" cy="231.57" r="5.98"/>
      <circle class="a" cx="378.66" cy="253.69" r="5.98"/>
      <circle class="a" cx="355.86" cy="198.54" r="5.98"/>
      <circle class="a" cx="355.86" cy="220.67" r="5.98"/>
      <circle class="a" cx="355.86" cy="242.8" r="5.98"/>
      <circle class="a" cx="355.86" cy="264.92" r="5.98"/>
      <circle class="a" cx="264.44" cy="231.62" r="5.98"/>
      <circle class="a" cx="401.79" cy="231.62" r="5.98"/>
      <circle class="a" cx="310.15" cy="198.66" r="5.98"/>
      <circle class="a" cx="310.15" cy="220.79" r="5.98"/>
      <circle class="a" cx="310.15" cy="242.92" r="5.98"/>
      <circle class="a" cx="310.15" cy="265.04" r="5.98"/>
    </g>
    <path class="b" d="M18.7,101.73C7.91,101.73,0,109.64,0,120.8s7.91,19.06,18.7,19.06,18.7-7.91,18.7-19.06S29.5,101.73,18.7,101.73Zm0,28c-5.49,0-9.33-3.63-9.33-8.89s3.84-8.89,9.33-8.89S28,115.54,28,120.8,24.19,129.69,18.7,129.69Zm18-56.78H16.46L36.74,58V48.51H.67V58.3H20.95L.67,73.17V82.7H36.74ZM36.74,0H28V18.39H22.85V1.29H14.14V18.39H9.38V0H.67V28.18H36.74ZM88.18,107.69a8.43,8.43,0,0,0-7.75,5.51,8.39,8.39,0,0,0-7.6-4.79c-6.39,0-10.36,4.3-10.36,14v16.18H98.54V121.47C98.54,111.91,94.57,107.69,88.18,107.69Zm-11.72,21.1h-6V122.6c0-2.71,1-4,3-4s3,1.37,3,4.07Zm14.12,0H84.39V122q0-4.25,3.09-4.25c2.09,0,3.12,1.42,3.12,4.25ZM62.47,56.54v10.9L76.1,74.71,62.47,82V93.23L85,79.63H98.54V69.84H84.88Zm79.83,45.19c-10.79,0-18.7,7.91-18.7,19.06s7.91,19.06,18.7,19.06S161,132,161,120.8,153.1,101.73,142.31,101.73Zm0,28c-5.49,0-9.33-3.63-9.33-8.89s3.84-8.89,9.33-8.89,9.33,3.63,9.33,8.89S147.79,129.69,142.31,129.69Zm18-56.78H140.06L160.34,58V48.51H124.27V58.3h20.28L124.27,73.17V82.7h36.07Zm0-72.91h-8.71V18.39h-5.18V1.29h-8.71V18.39H133V0h-8.71V28.18h36.07Z"/>
  </g>
</svg>
