<svg xmlns="http://www.w3.org/2000/svg" width="50" height="50" viewBox="0 0 50 50">
  <defs>
    <style>
      .a {
        fill: #fff;
      }
    </style>
  </defs>
  <title>social-fb</title>
  <g>
    <path class="a" d="M27.08,18.51c0-1.13.11-1.73,1.85-1.73h2.32V12.45H27.53c-4.46,0-6,2.1-6,5.63v2.6H18.73V25h2.78V37.55h5.56V25h3.71l.49-4.32h-4.2Z"/>
    <path class="a" d="M48.69,8.62a12.22,12.22,0,0,0-2.88-4.42,12.22,12.22,0,0,0-4.42-2.88A18.24,18.24,0,0,0,35.32.15C32.65,0,31.8,0,25,0S17.35,0,14.68.15A18.14,18.14,0,0,0,8.62,1.31,12.22,12.22,0,0,0,4.19,4.19,12.22,12.22,0,0,0,1.31,8.62,18.24,18.24,0,0,0,.15,14.68C0,17.35,0,18.2,0,25s0,7.65.15,10.32a18.14,18.14,0,0,0,1.16,6.07,12.22,12.22,0,0,0,2.88,4.42,12.22,12.22,0,0,0,4.42,2.88,18.24,18.24,0,0,0,6.07,1.16C17.35,50,18.2,50,25,50s7.65,0,10.32-.15a18.14,18.14,0,0,0,6.07-1.16,12.75,12.75,0,0,0,7.3-7.3,18.24,18.24,0,0,0,1.16-6.07C50,32.65,50,31.8,50,25s0-7.65-.15-10.32A18.14,18.14,0,0,0,48.69,8.62ZM45.34,35.1a13.67,13.67,0,0,1-.87,4.64,7.74,7.74,0,0,1-1.87,2.88,7.83,7.83,0,0,1-2.88,1.87,13.78,13.78,0,0,1-4.64.87c-2.65.12-3.42.15-10.1.15s-7.48,0-10.1-.15a13.67,13.67,0,0,1-4.64-.87,7.74,7.74,0,0,1-2.88-1.87,7.83,7.83,0,0,1-1.87-2.88,13.78,13.78,0,0,1-.87-4.64c-.12-2.65-.15-3.44-.15-10.1s0-7.48.15-10.1a13.67,13.67,0,0,1,.87-4.64A7.74,7.74,0,0,1,7.36,7.38a7.83,7.83,0,0,1,2.88-1.87,13.78,13.78,0,0,1,4.64-.87c2.65-.12,3.44-.15,10.1-.15s7.48,0,10.1.15a13.67,13.67,0,0,1,4.64.87A7.74,7.74,0,0,1,42.6,7.38a7.83,7.83,0,0,1,1.87,2.88,13.78,13.78,0,0,1,.87,4.64c.12,2.65.15,3.44.15,10.1S45.46,32.48,45.34,35.1Z"/>
  </g>
</svg>
